<mxfile host="app.diagrams.net" modified="2023-04-24T10:05:09.754Z" agent="Mozilla/5.0 (Macintosh; Intel Mac OS X 10_15_7) AppleWebKit/537.36 (KHTML, like Gecko) Chrome/112.0.0.0 Safari/537.36" etag="ZjcRRREwaeAAzp4uJtGZ" version="21.1.6" type="github" pages="3">
  <diagram id="R2lEEEUBdFMjLlhIrx00" name="Page-1">
    <mxGraphModel dx="1026" dy="661" grid="1" gridSize="10" guides="1" tooltips="1" connect="1" arrows="1" fold="1" page="1" pageScale="1" pageWidth="3300" pageHeight="4681" math="0" shadow="0" extFonts="Permanent Marker^https://fonts.googleapis.com/css?family=Permanent+Marker">
      <root>
        <mxCell id="0" />
        <mxCell id="1" parent="0" />
        <mxCell id="75YZYvt6jA_KE0coofRE-18" value="" style="edgeStyle=none;rounded=0;orthogonalLoop=1;jettySize=auto;html=1;endArrow=none;endFill=0;" parent="1" source="75YZYvt6jA_KE0coofRE-2" target="75YZYvt6jA_KE0coofRE-8" edge="1">
          <mxGeometry relative="1" as="geometry" />
        </mxCell>
        <mxCell id="75YZYvt6jA_KE0coofRE-19" value="1" style="edgeLabel;html=1;align=center;verticalAlign=middle;resizable=0;points=[];" parent="75YZYvt6jA_KE0coofRE-18" vertex="1" connectable="0">
          <mxGeometry x="-0.5397" y="-3" relative="1" as="geometry">
            <mxPoint as="offset" />
          </mxGeometry>
        </mxCell>
        <mxCell id="75YZYvt6jA_KE0coofRE-20" value="*" style="edgeLabel;html=1;align=center;verticalAlign=middle;resizable=0;points=[];" parent="75YZYvt6jA_KE0coofRE-18" vertex="1" connectable="0">
          <mxGeometry x="0.683" y="4" relative="1" as="geometry">
            <mxPoint as="offset" />
          </mxGeometry>
        </mxCell>
        <mxCell id="75YZYvt6jA_KE0coofRE-2" value="账单模版" style="rounded=1;whiteSpace=wrap;html=1;fillColor=#dae8fc;strokeColor=#6c8ebf;" parent="1" vertex="1">
          <mxGeometry x="340" y="290" width="91.67" height="50" as="geometry" />
        </mxCell>
        <mxCell id="75YZYvt6jA_KE0coofRE-3" value="账单模版快照" style="rounded=1;whiteSpace=wrap;html=1;fillColor=#dae8fc;strokeColor=#6c8ebf;" parent="1" vertex="1">
          <mxGeometry x="340" y="430" width="91.67" height="50" as="geometry" />
        </mxCell>
        <mxCell id="75YZYvt6jA_KE0coofRE-5" value="" style="endArrow=none;html=1;rounded=0;entryX=0.5;entryY=0;entryDx=0;entryDy=0;exitX=0.5;exitY=1;exitDx=0;exitDy=0;" parent="1" source="75YZYvt6jA_KE0coofRE-2" target="75YZYvt6jA_KE0coofRE-3" edge="1">
          <mxGeometry width="50" height="50" relative="1" as="geometry">
            <mxPoint x="320" y="440" as="sourcePoint" />
            <mxPoint x="310" y="580" as="targetPoint" />
          </mxGeometry>
        </mxCell>
        <mxCell id="75YZYvt6jA_KE0coofRE-6" value="1" style="edgeLabel;html=1;align=center;verticalAlign=middle;resizable=0;points=[];" parent="75YZYvt6jA_KE0coofRE-5" vertex="1" connectable="0">
          <mxGeometry x="-0.42" y="1" relative="1" as="geometry">
            <mxPoint y="1" as="offset" />
          </mxGeometry>
        </mxCell>
        <mxCell id="75YZYvt6jA_KE0coofRE-7" value="*" style="edgeLabel;html=1;align=center;verticalAlign=middle;resizable=0;points=[];" parent="75YZYvt6jA_KE0coofRE-5" vertex="1" connectable="0">
          <mxGeometry x="0.48" y="1" relative="1" as="geometry">
            <mxPoint y="-1" as="offset" />
          </mxGeometry>
        </mxCell>
        <mxCell id="75YZYvt6jA_KE0coofRE-22" value="" style="edgeStyle=none;rounded=0;orthogonalLoop=1;jettySize=auto;html=1;endArrow=none;endFill=0;" parent="1" source="75YZYvt6jA_KE0coofRE-8" target="75YZYvt6jA_KE0coofRE-21" edge="1">
          <mxGeometry relative="1" as="geometry" />
        </mxCell>
        <mxCell id="75YZYvt6jA_KE0coofRE-23" value="1" style="edgeLabel;html=1;align=center;verticalAlign=middle;resizable=0;points=[];" parent="75YZYvt6jA_KE0coofRE-22" vertex="1" connectable="0">
          <mxGeometry x="-0.5192" relative="1" as="geometry">
            <mxPoint as="offset" />
          </mxGeometry>
        </mxCell>
        <mxCell id="75YZYvt6jA_KE0coofRE-24" value="*" style="edgeLabel;html=1;align=center;verticalAlign=middle;resizable=0;points=[];" parent="75YZYvt6jA_KE0coofRE-22" vertex="1" connectable="0">
          <mxGeometry x="0.5787" y="-2" relative="1" as="geometry">
            <mxPoint as="offset" />
          </mxGeometry>
        </mxCell>
        <mxCell id="75YZYvt6jA_KE0coofRE-8" value="账单配置" style="rounded=1;whiteSpace=wrap;html=1;fillColor=#dae8fc;strokeColor=#6c8ebf;" parent="1" vertex="1">
          <mxGeometry x="520" y="290" width="91.67" height="50" as="geometry" />
        </mxCell>
        <mxCell id="75YZYvt6jA_KE0coofRE-9" value="账单配置快照" style="rounded=1;whiteSpace=wrap;html=1;fillColor=#dae8fc;strokeColor=#6c8ebf;" parent="1" vertex="1">
          <mxGeometry x="520" y="430" width="91.67" height="50" as="geometry" />
        </mxCell>
        <mxCell id="75YZYvt6jA_KE0coofRE-10" value="" style="endArrow=none;html=1;rounded=0;entryX=0.5;entryY=0;entryDx=0;entryDy=0;exitX=0.5;exitY=1;exitDx=0;exitDy=0;" parent="1" source="75YZYvt6jA_KE0coofRE-8" target="75YZYvt6jA_KE0coofRE-9" edge="1">
          <mxGeometry width="50" height="50" relative="1" as="geometry">
            <mxPoint x="395.83500000000004" y="350" as="sourcePoint" />
            <mxPoint x="395.83500000000004" y="440" as="targetPoint" />
          </mxGeometry>
        </mxCell>
        <mxCell id="75YZYvt6jA_KE0coofRE-11" value="1" style="edgeLabel;html=1;align=center;verticalAlign=middle;resizable=0;points=[];" parent="75YZYvt6jA_KE0coofRE-10" vertex="1" connectable="0">
          <mxGeometry x="-0.42" y="1" relative="1" as="geometry">
            <mxPoint y="1" as="offset" />
          </mxGeometry>
        </mxCell>
        <mxCell id="75YZYvt6jA_KE0coofRE-12" value="*" style="edgeLabel;html=1;align=center;verticalAlign=middle;resizable=0;points=[];" parent="75YZYvt6jA_KE0coofRE-10" vertex="1" connectable="0">
          <mxGeometry x="0.48" y="1" relative="1" as="geometry">
            <mxPoint y="-1" as="offset" />
          </mxGeometry>
        </mxCell>
        <mxCell id="75YZYvt6jA_KE0coofRE-14" value="" style="rounded=0;orthogonalLoop=1;jettySize=auto;html=1;endArrow=none;endFill=0;" parent="1" source="75YZYvt6jA_KE0coofRE-13" target="75YZYvt6jA_KE0coofRE-8" edge="1">
          <mxGeometry relative="1" as="geometry" />
        </mxCell>
        <mxCell id="75YZYvt6jA_KE0coofRE-16" value="1" style="edgeLabel;html=1;align=center;verticalAlign=middle;resizable=0;points=[];" parent="75YZYvt6jA_KE0coofRE-14" vertex="1" connectable="0">
          <mxGeometry x="-0.5667" relative="1" as="geometry">
            <mxPoint as="offset" />
          </mxGeometry>
        </mxCell>
        <mxCell id="75YZYvt6jA_KE0coofRE-17" value="*" style="edgeLabel;html=1;align=center;verticalAlign=middle;resizable=0;points=[];" parent="75YZYvt6jA_KE0coofRE-14" vertex="1" connectable="0">
          <mxGeometry x="0.3667" y="-1" relative="1" as="geometry">
            <mxPoint as="offset" />
          </mxGeometry>
        </mxCell>
        <mxCell id="75YZYvt6jA_KE0coofRE-30" value="" style="edgeStyle=none;rounded=0;orthogonalLoop=1;jettySize=auto;html=1;endArrow=none;endFill=0;" parent="1" source="75YZYvt6jA_KE0coofRE-13" target="75YZYvt6jA_KE0coofRE-29" edge="1">
          <mxGeometry relative="1" as="geometry" />
        </mxCell>
        <mxCell id="75YZYvt6jA_KE0coofRE-31" value="1" style="edgeLabel;html=1;align=center;verticalAlign=middle;resizable=0;points=[];" parent="75YZYvt6jA_KE0coofRE-30" vertex="1" connectable="0">
          <mxGeometry x="-0.6038" relative="1" as="geometry">
            <mxPoint as="offset" />
          </mxGeometry>
        </mxCell>
        <mxCell id="75YZYvt6jA_KE0coofRE-32" value="1" style="edgeLabel;html=1;align=center;verticalAlign=middle;resizable=0;points=[];" parent="75YZYvt6jA_KE0coofRE-30" vertex="1" connectable="0">
          <mxGeometry x="0.6189" y="3" relative="1" as="geometry">
            <mxPoint as="offset" />
          </mxGeometry>
        </mxCell>
        <mxCell id="75YZYvt6jA_KE0coofRE-36" value="" style="edgeStyle=none;rounded=0;orthogonalLoop=1;jettySize=auto;html=1;endArrow=none;endFill=0;" parent="1" source="75YZYvt6jA_KE0coofRE-13" target="75YZYvt6jA_KE0coofRE-35" edge="1">
          <mxGeometry relative="1" as="geometry" />
        </mxCell>
        <mxCell id="75YZYvt6jA_KE0coofRE-37" value="1" style="edgeLabel;html=1;align=center;verticalAlign=middle;resizable=0;points=[];" parent="75YZYvt6jA_KE0coofRE-36" vertex="1" connectable="0">
          <mxGeometry x="-0.5447" y="1" relative="1" as="geometry">
            <mxPoint as="offset" />
          </mxGeometry>
        </mxCell>
        <mxCell id="75YZYvt6jA_KE0coofRE-38" value="*" style="edgeLabel;html=1;align=center;verticalAlign=middle;resizable=0;points=[];" parent="75YZYvt6jA_KE0coofRE-36" vertex="1" connectable="0">
          <mxGeometry x="0.5787" relative="1" as="geometry">
            <mxPoint as="offset" />
          </mxGeometry>
        </mxCell>
        <mxCell id="75YZYvt6jA_KE0coofRE-13" value="会员" style="rounded=1;whiteSpace=wrap;html=1;fillColor=#ffe6cc;strokeColor=#d79b00;" parent="1" vertex="1">
          <mxGeometry x="520" y="180" width="91.67" height="50" as="geometry" />
        </mxCell>
        <mxCell id="75YZYvt6jA_KE0coofRE-26" value="" style="edgeStyle=none;rounded=0;orthogonalLoop=1;jettySize=auto;html=1;endArrow=none;endFill=0;" parent="1" source="75YZYvt6jA_KE0coofRE-21" target="75YZYvt6jA_KE0coofRE-25" edge="1">
          <mxGeometry relative="1" as="geometry" />
        </mxCell>
        <mxCell id="75YZYvt6jA_KE0coofRE-27" value="1" style="edgeLabel;html=1;align=center;verticalAlign=middle;resizable=0;points=[];" parent="75YZYvt6jA_KE0coofRE-26" vertex="1" connectable="0">
          <mxGeometry x="-0.5778" relative="1" as="geometry">
            <mxPoint as="offset" />
          </mxGeometry>
        </mxCell>
        <mxCell id="75YZYvt6jA_KE0coofRE-28" value="*" style="edgeLabel;html=1;align=center;verticalAlign=middle;resizable=0;points=[];" parent="75YZYvt6jA_KE0coofRE-26" vertex="1" connectable="0">
          <mxGeometry x="0.4667" y="1" relative="1" as="geometry">
            <mxPoint as="offset" />
          </mxGeometry>
        </mxCell>
        <mxCell id="75YZYvt6jA_KE0coofRE-21" value="账单计划" style="rounded=1;whiteSpace=wrap;html=1;fillColor=#dae8fc;strokeColor=#6c8ebf;" parent="1" vertex="1">
          <mxGeometry x="690" y="290" width="91.67" height="50" as="geometry" />
        </mxCell>
        <mxCell id="75YZYvt6jA_KE0coofRE-25" value="账单" style="rounded=1;whiteSpace=wrap;html=1;fillColor=#dae8fc;strokeColor=#6c8ebf;" parent="1" vertex="1">
          <mxGeometry x="690" y="430" width="91.67" height="50" as="geometry" />
        </mxCell>
        <mxCell id="75YZYvt6jA_KE0coofRE-29" value="账单权限" style="rounded=1;whiteSpace=wrap;html=1;fillColor=#dae8fc;strokeColor=#6c8ebf;" parent="1" vertex="1">
          <mxGeometry x="340" y="180" width="91.67" height="50" as="geometry" />
        </mxCell>
        <mxCell id="75YZYvt6jA_KE0coofRE-40" value="" style="edgeStyle=none;rounded=0;orthogonalLoop=1;jettySize=auto;html=1;endArrow=none;endFill=0;" parent="1" source="75YZYvt6jA_KE0coofRE-35" target="75YZYvt6jA_KE0coofRE-39" edge="1">
          <mxGeometry relative="1" as="geometry" />
        </mxCell>
        <mxCell id="75YZYvt6jA_KE0coofRE-41" value="1" style="edgeLabel;html=1;align=center;verticalAlign=middle;resizable=0;points=[];" parent="75YZYvt6jA_KE0coofRE-40" vertex="1" connectable="0">
          <mxGeometry x="0.4333" relative="1" as="geometry">
            <mxPoint as="offset" />
          </mxGeometry>
        </mxCell>
        <mxCell id="75YZYvt6jA_KE0coofRE-42" value="*" style="edgeLabel;html=1;align=center;verticalAlign=middle;resizable=0;points=[];" parent="75YZYvt6jA_KE0coofRE-40" vertex="1" connectable="0">
          <mxGeometry x="-0.5667" y="-1" relative="1" as="geometry">
            <mxPoint as="offset" />
          </mxGeometry>
        </mxCell>
        <mxCell id="75YZYvt6jA_KE0coofRE-35" value="打包信息" style="rounded=1;whiteSpace=wrap;html=1;fillColor=#dae8fc;strokeColor=#6c8ebf;" parent="1" vertex="1">
          <mxGeometry x="690" y="180" width="91.67" height="50" as="geometry" />
        </mxCell>
        <mxCell id="75YZYvt6jA_KE0coofRE-39" value="打包规则" style="rounded=1;whiteSpace=wrap;html=1;fillColor=#dae8fc;strokeColor=#6c8ebf;" parent="1" vertex="1">
          <mxGeometry x="690" y="70" width="91.67" height="50" as="geometry" />
        </mxCell>
      </root>
    </mxGraphModel>
  </diagram>
  <diagram id="XAfnP7oxJoBHH8d0sBKR" name="第 2 页">
    <mxGraphModel dx="1026" dy="661" grid="1" gridSize="10" guides="1" tooltips="1" connect="1" arrows="1" fold="1" page="1" pageScale="1" pageWidth="10000" pageHeight="10000" math="0" shadow="0">
      <root>
        <mxCell id="0" />
        <mxCell id="1" parent="0" />
        <mxCell id="tF9eq-TAVwMk88sSngUh-1" value="构造定制账单请求列表" style="rounded=1;whiteSpace=wrap;html=1;fillColor=#d5e8d4;strokeColor=#82b366;container=0;" vertex="1" parent="1">
          <mxGeometry x="1350" y="180" width="120" height="60" as="geometry" />
        </mxCell>
        <mxCell id="tF9eq-TAVwMk88sSngUh-41" value="" style="edgeStyle=orthogonalEdgeStyle;rounded=0;orthogonalLoop=1;jettySize=auto;html=1;" edge="1" parent="1" source="tF9eq-TAVwMk88sSngUh-2">
          <mxGeometry relative="1" as="geometry">
            <mxPoint x="1270" y="320" as="targetPoint" />
          </mxGeometry>
        </mxCell>
        <mxCell id="tF9eq-TAVwMk88sSngUh-2" value="创建文件" style="rounded=1;whiteSpace=wrap;html=1;fillColor=#d5e8d4;strokeColor=#82b366;container=0;" vertex="1" parent="1">
          <mxGeometry x="1350" y="290" width="120" height="60" as="geometry" />
        </mxCell>
        <mxCell id="tF9eq-TAVwMk88sSngUh-3" value="" style="edgeStyle=orthogonalEdgeStyle;rounded=0;orthogonalLoop=1;jettySize=auto;html=1;" edge="1" parent="1" source="tF9eq-TAVwMk88sSngUh-1" target="tF9eq-TAVwMk88sSngUh-2">
          <mxGeometry relative="1" as="geometry" />
        </mxCell>
        <mxCell id="tF9eq-TAVwMk88sSngUh-5" value="" style="edgeStyle=orthogonalEdgeStyle;rounded=0;orthogonalLoop=1;jettySize=auto;html=1;" edge="1" parent="1" source="tF9eq-TAVwMk88sSngUh-1">
          <mxGeometry relative="1" as="geometry">
            <mxPoint x="1580" y="210" as="targetPoint" />
          </mxGeometry>
        </mxCell>
        <mxCell id="tF9eq-TAVwMk88sSngUh-9" value="" style="edgeStyle=orthogonalEdgeStyle;rounded=0;orthogonalLoop=1;jettySize=auto;html=1;" edge="1" parent="1" source="tF9eq-TAVwMk88sSngUh-7">
          <mxGeometry relative="1" as="geometry">
            <mxPoint x="1800" y="150" as="targetPoint" />
          </mxGeometry>
        </mxCell>
        <mxCell id="tF9eq-TAVwMk88sSngUh-7" value="开始" style="rounded=1;whiteSpace=wrap;html=1;fillColor=#d5e8d4;strokeColor=#82b366;" vertex="1" parent="1">
          <mxGeometry x="1740" y="50" width="120" height="50" as="geometry" />
        </mxCell>
        <mxCell id="tF9eq-TAVwMk88sSngUh-20" value="" style="group" vertex="1" connectable="0" parent="1">
          <mxGeometry x="1720" y="230" width="160" height="500" as="geometry" />
        </mxCell>
        <mxCell id="tF9eq-TAVwMk88sSngUh-8" value="获取报表开始/结束时间，构造时间范围列表dateTimes" style="rounded=1;whiteSpace=wrap;html=1;fillColor=#d5e8d4;strokeColor=#82b366;" vertex="1" parent="tF9eq-TAVwMk88sSngUh-20">
          <mxGeometry x="20" width="120" height="50" as="geometry" />
        </mxCell>
        <mxCell id="tF9eq-TAVwMk88sSngUh-10" value="查询&#39;tb_bill_custom_info&lt;span style=&quot;background-color: initial;&quot;&gt;&#39;表，&lt;br&gt;获取未删除的结算类型定制账单信息customInfos&lt;br&gt;&lt;/span&gt;" style="rounded=1;whiteSpace=wrap;html=1;fillColor=#d5e8d4;strokeColor=#82b366;" vertex="1" parent="tF9eq-TAVwMk88sSngUh-20">
          <mxGeometry y="90" width="160" height="60" as="geometry" />
        </mxCell>
        <mxCell id="tF9eq-TAVwMk88sSngUh-11" value="" style="edgeStyle=orthogonalEdgeStyle;rounded=0;orthogonalLoop=1;jettySize=auto;html=1;" edge="1" parent="tF9eq-TAVwMk88sSngUh-20" source="tF9eq-TAVwMk88sSngUh-8" target="tF9eq-TAVwMk88sSngUh-10">
          <mxGeometry relative="1" as="geometry" />
        </mxCell>
        <mxCell id="tF9eq-TAVwMk88sSngUh-14" value="遍历customInfos" style="rhombus;whiteSpace=wrap;html=1;fillColor=#d5e8d4;strokeColor=#82b366;rounded=1;" vertex="1" parent="tF9eq-TAVwMk88sSngUh-20">
          <mxGeometry x="30" y="200" width="100" height="100" as="geometry" />
        </mxCell>
        <mxCell id="tF9eq-TAVwMk88sSngUh-15" value="" style="edgeStyle=orthogonalEdgeStyle;rounded=0;orthogonalLoop=1;jettySize=auto;html=1;" edge="1" parent="tF9eq-TAVwMk88sSngUh-20" source="tF9eq-TAVwMk88sSngUh-10" target="tF9eq-TAVwMk88sSngUh-14">
          <mxGeometry relative="1" as="geometry" />
        </mxCell>
        <mxCell id="tF9eq-TAVwMk88sSngUh-16" value="从customInfo获取商户信息" style="whiteSpace=wrap;html=1;fillColor=#d5e8d4;strokeColor=#82b366;rounded=1;" vertex="1" parent="tF9eq-TAVwMk88sSngUh-20">
          <mxGeometry x="20" y="340" width="120" height="60" as="geometry" />
        </mxCell>
        <mxCell id="tF9eq-TAVwMk88sSngUh-17" value="" style="edgeStyle=orthogonalEdgeStyle;rounded=0;orthogonalLoop=1;jettySize=auto;html=1;" edge="1" parent="tF9eq-TAVwMk88sSngUh-20" source="tF9eq-TAVwMk88sSngUh-14" target="tF9eq-TAVwMk88sSngUh-16">
          <mxGeometry relative="1" as="geometry" />
        </mxCell>
        <mxCell id="tF9eq-TAVwMk88sSngUh-18" value="通过customInfo构造定制账单请求实例" style="whiteSpace=wrap;html=1;fillColor=#d5e8d4;strokeColor=#82b366;rounded=1;" vertex="1" parent="tF9eq-TAVwMk88sSngUh-20">
          <mxGeometry x="20" y="440" width="120" height="60" as="geometry" />
        </mxCell>
        <mxCell id="tF9eq-TAVwMk88sSngUh-19" value="" style="edgeStyle=orthogonalEdgeStyle;rounded=0;orthogonalLoop=1;jettySize=auto;html=1;" edge="1" parent="tF9eq-TAVwMk88sSngUh-20" source="tF9eq-TAVwMk88sSngUh-16" target="tF9eq-TAVwMk88sSngUh-18">
          <mxGeometry relative="1" as="geometry" />
        </mxCell>
        <mxCell id="tF9eq-TAVwMk88sSngUh-22" value="" style="edgeStyle=orthogonalEdgeStyle;rounded=0;orthogonalLoop=1;jettySize=auto;html=1;" edge="1" parent="1" source="tF9eq-TAVwMk88sSngUh-21" target="tF9eq-TAVwMk88sSngUh-8">
          <mxGeometry relative="1" as="geometry" />
        </mxCell>
        <mxCell id="tF9eq-TAVwMk88sSngUh-21" value="新建定制账单请求列表reqList" style="rounded=1;whiteSpace=wrap;html=1;fillColor=#d5e8d4;strokeColor=#82b366;" vertex="1" parent="1">
          <mxGeometry x="1740" y="130" width="120" height="50" as="geometry" />
        </mxCell>
        <mxCell id="tF9eq-TAVwMk88sSngUh-26" value="" style="edgeStyle=orthogonalEdgeStyle;rounded=0;orthogonalLoop=1;jettySize=auto;html=1;" edge="1" parent="1" source="tF9eq-TAVwMk88sSngUh-23" target="tF9eq-TAVwMk88sSngUh-25">
          <mxGeometry relative="1" as="geometry" />
        </mxCell>
        <mxCell id="tF9eq-TAVwMk88sSngUh-23" value="遍历dataTimes" style="rhombus;whiteSpace=wrap;html=1;fillColor=#d5e8d4;strokeColor=#82b366;rounded=1;" vertex="1" parent="1">
          <mxGeometry x="1760" y="770" width="80" height="80" as="geometry" />
        </mxCell>
        <mxCell id="tF9eq-TAVwMk88sSngUh-24" value="" style="edgeStyle=orthogonalEdgeStyle;rounded=0;orthogonalLoop=1;jettySize=auto;html=1;" edge="1" parent="1" source="tF9eq-TAVwMk88sSngUh-18" target="tF9eq-TAVwMk88sSngUh-23">
          <mxGeometry relative="1" as="geometry" />
        </mxCell>
        <mxCell id="tF9eq-TAVwMk88sSngUh-28" value="" style="edgeStyle=orthogonalEdgeStyle;rounded=0;orthogonalLoop=1;jettySize=auto;html=1;" edge="1" parent="1" source="tF9eq-TAVwMk88sSngUh-25" target="tF9eq-TAVwMk88sSngUh-27">
          <mxGeometry relative="1" as="geometry" />
        </mxCell>
        <mxCell id="tF9eq-TAVwMk88sSngUh-29" value="是" style="edgeLabel;html=1;align=center;verticalAlign=middle;resizable=0;points=[];" vertex="1" connectable="0" parent="tF9eq-TAVwMk88sSngUh-28">
          <mxGeometry x="-0.26" y="-2" relative="1" as="geometry">
            <mxPoint as="offset" />
          </mxGeometry>
        </mxCell>
        <mxCell id="tF9eq-TAVwMk88sSngUh-30" style="edgeStyle=orthogonalEdgeStyle;rounded=0;orthogonalLoop=1;jettySize=auto;html=1;exitX=1;exitY=0.5;exitDx=0;exitDy=0;entryX=1;entryY=0.5;entryDx=0;entryDy=0;" edge="1" parent="1" source="tF9eq-TAVwMk88sSngUh-25" target="tF9eq-TAVwMk88sSngUh-31">
          <mxGeometry relative="1" as="geometry">
            <mxPoint x="1900" y="1170" as="targetPoint" />
            <Array as="points">
              <mxPoint x="1900" y="930" />
              <mxPoint x="1900" y="1180" />
            </Array>
          </mxGeometry>
        </mxCell>
        <mxCell id="tF9eq-TAVwMk88sSngUh-33" value="否" style="edgeLabel;html=1;align=center;verticalAlign=middle;resizable=0;points=[];" vertex="1" connectable="0" parent="tF9eq-TAVwMk88sSngUh-30">
          <mxGeometry x="-0.8444" relative="1" as="geometry">
            <mxPoint as="offset" />
          </mxGeometry>
        </mxCell>
        <mxCell id="tF9eq-TAVwMk88sSngUh-25" value="当前日期为周一 &amp;amp;&amp;amp; 定制账单为周账单" style="rhombus;whiteSpace=wrap;html=1;fillColor=#d5e8d4;strokeColor=#82b366;rounded=1;" vertex="1" parent="1">
          <mxGeometry x="1750" y="880" width="100" height="100" as="geometry" />
        </mxCell>
        <mxCell id="tF9eq-TAVwMk88sSngUh-32" value="" style="edgeStyle=orthogonalEdgeStyle;rounded=0;orthogonalLoop=1;jettySize=auto;html=1;" edge="1" parent="1" source="tF9eq-TAVwMk88sSngUh-27" target="tF9eq-TAVwMk88sSngUh-31">
          <mxGeometry relative="1" as="geometry" />
        </mxCell>
        <mxCell id="tF9eq-TAVwMk88sSngUh-27" value="设置定制账单请求实例开始时间和结束时间，添加实例到reqList" style="whiteSpace=wrap;html=1;fillColor=#d5e8d4;strokeColor=#82b366;rounded=1;" vertex="1" parent="1">
          <mxGeometry x="1740" y="1030" width="120" height="60" as="geometry" />
        </mxCell>
        <mxCell id="tF9eq-TAVwMk88sSngUh-35" value="" style="edgeStyle=orthogonalEdgeStyle;rounded=0;orthogonalLoop=1;jettySize=auto;html=1;" edge="1" parent="1" source="tF9eq-TAVwMk88sSngUh-31" target="tF9eq-TAVwMk88sSngUh-34">
          <mxGeometry relative="1" as="geometry" />
        </mxCell>
        <mxCell id="tF9eq-TAVwMk88sSngUh-36" value="是" style="edgeLabel;html=1;align=center;verticalAlign=middle;resizable=0;points=[];" vertex="1" connectable="0" parent="tF9eq-TAVwMk88sSngUh-35">
          <mxGeometry x="-0.175" relative="1" as="geometry">
            <mxPoint as="offset" />
          </mxGeometry>
        </mxCell>
        <mxCell id="tF9eq-TAVwMk88sSngUh-31" value="当前日期是否为每月1号&amp;amp;&amp;amp; 月账单" style="rhombus;whiteSpace=wrap;html=1;fillColor=#d5e8d4;strokeColor=#82b366;rounded=1;" vertex="1" parent="1">
          <mxGeometry x="1760" y="1140" width="80" height="80" as="geometry" />
        </mxCell>
        <mxCell id="tF9eq-TAVwMk88sSngUh-37" style="edgeStyle=orthogonalEdgeStyle;rounded=0;orthogonalLoop=1;jettySize=auto;html=1;exitX=0;exitY=0.5;exitDx=0;exitDy=0;entryX=0;entryY=0.5;entryDx=0;entryDy=0;" edge="1" parent="1" source="tF9eq-TAVwMk88sSngUh-34" target="tF9eq-TAVwMk88sSngUh-23">
          <mxGeometry relative="1" as="geometry">
            <mxPoint x="1690" y="850" as="targetPoint" />
            <Array as="points">
              <mxPoint x="1680" y="1290" />
              <mxPoint x="1680" y="810" />
            </Array>
          </mxGeometry>
        </mxCell>
        <mxCell id="tF9eq-TAVwMk88sSngUh-39" style="edgeStyle=orthogonalEdgeStyle;rounded=0;orthogonalLoop=1;jettySize=auto;html=1;exitX=0;exitY=0.5;exitDx=0;exitDy=0;entryX=0;entryY=0.5;entryDx=0;entryDy=0;" edge="1" parent="1" source="tF9eq-TAVwMk88sSngUh-34" target="tF9eq-TAVwMk88sSngUh-14">
          <mxGeometry relative="1" as="geometry">
            <Array as="points">
              <mxPoint x="1620" y="1290" />
              <mxPoint x="1620" y="480" />
            </Array>
          </mxGeometry>
        </mxCell>
        <mxCell id="tF9eq-TAVwMk88sSngUh-34" value="设置定制账单请求实例开始时间和结束时间，添加实例到reqList" style="whiteSpace=wrap;html=1;fillColor=#d5e8d4;strokeColor=#82b366;rounded=1;" vertex="1" parent="1">
          <mxGeometry x="1740" y="1260" width="120" height="60" as="geometry" />
        </mxCell>
        <mxCell id="tF9eq-TAVwMk88sSngUh-44" value="" style="edgeStyle=orthogonalEdgeStyle;rounded=0;orthogonalLoop=1;jettySize=auto;html=1;" edge="1" parent="1" source="tF9eq-TAVwMk88sSngUh-42" target="tF9eq-TAVwMk88sSngUh-43">
          <mxGeometry relative="1" as="geometry" />
        </mxCell>
        <mxCell id="tF9eq-TAVwMk88sSngUh-42" value="开始" style="rounded=1;whiteSpace=wrap;html=1;fillColor=#d5e8d4;strokeColor=#82b366;" vertex="1" parent="1">
          <mxGeometry x="990" y="50" width="120" height="50" as="geometry" />
        </mxCell>
        <mxCell id="tF9eq-TAVwMk88sSngUh-46" value="" style="edgeStyle=orthogonalEdgeStyle;rounded=0;orthogonalLoop=1;jettySize=auto;html=1;" edge="1" parent="1" source="tF9eq-TAVwMk88sSngUh-43" target="tF9eq-TAVwMk88sSngUh-45">
          <mxGeometry relative="1" as="geometry" />
        </mxCell>
        <mxCell id="tF9eq-TAVwMk88sSngUh-43" value="遍历定制账单请求列表reqList" style="rhombus;whiteSpace=wrap;html=1;fillColor=#d5e8d4;strokeColor=#82b366;rounded=1;" vertex="1" parent="1">
          <mxGeometry x="1000" y="150" width="100" height="100" as="geometry" />
        </mxCell>
        <mxCell id="tF9eq-TAVwMk88sSngUh-48" value="" style="edgeStyle=orthogonalEdgeStyle;rounded=0;orthogonalLoop=1;jettySize=auto;html=1;" edge="1" parent="1" source="tF9eq-TAVwMk88sSngUh-45" target="tF9eq-TAVwMk88sSngUh-47">
          <mxGeometry relative="1" as="geometry" />
        </mxCell>
        <mxCell id="tF9eq-TAVwMk88sSngUh-45" value="从req获取商户信息列表merchantNo" style="whiteSpace=wrap;html=1;fillColor=#d5e8d4;strokeColor=#82b366;rounded=1;" vertex="1" parent="1">
          <mxGeometry x="990" y="290" width="120" height="60" as="geometry" />
        </mxCell>
        <mxCell id="tF9eq-TAVwMk88sSngUh-49" style="edgeStyle=orthogonalEdgeStyle;rounded=0;orthogonalLoop=1;jettySize=auto;html=1;exitX=1;exitY=0.5;exitDx=0;exitDy=0;entryX=1;entryY=0.5;entryDx=0;entryDy=0;" edge="1" parent="1" source="tF9eq-TAVwMk88sSngUh-47" target="tF9eq-TAVwMk88sSngUh-43">
          <mxGeometry relative="1" as="geometry">
            <Array as="points">
              <mxPoint x="1150" y="450" />
              <mxPoint x="1150" y="200" />
            </Array>
          </mxGeometry>
        </mxCell>
        <mxCell id="tF9eq-TAVwMk88sSngUh-50" value="是" style="edgeLabel;html=1;align=center;verticalAlign=middle;resizable=0;points=[];" vertex="1" connectable="0" parent="tF9eq-TAVwMk88sSngUh-49">
          <mxGeometry x="-0.8514" y="-1" relative="1" as="geometry">
            <mxPoint as="offset" />
          </mxGeometry>
        </mxCell>
        <mxCell id="tF9eq-TAVwMk88sSngUh-52" value="" style="edgeStyle=orthogonalEdgeStyle;rounded=0;orthogonalLoop=1;jettySize=auto;html=1;" edge="1" parent="1" source="tF9eq-TAVwMk88sSngUh-47" target="tF9eq-TAVwMk88sSngUh-51">
          <mxGeometry relative="1" as="geometry" />
        </mxCell>
        <mxCell id="tF9eq-TAVwMk88sSngUh-53" value="否" style="edgeLabel;html=1;align=center;verticalAlign=middle;resizable=0;points=[];" vertex="1" connectable="0" parent="tF9eq-TAVwMk88sSngUh-52">
          <mxGeometry x="-0.4" relative="1" as="geometry">
            <mxPoint as="offset" />
          </mxGeometry>
        </mxCell>
        <mxCell id="tF9eq-TAVwMk88sSngUh-47" value="merchantNo是否为empty" style="rhombus;whiteSpace=wrap;html=1;fillColor=#d5e8d4;strokeColor=#82b366;rounded=1;" vertex="1" parent="1">
          <mxGeometry x="1000" y="400" width="100" height="100" as="geometry" />
        </mxCell>
        <mxCell id="tF9eq-TAVwMk88sSngUh-55" value="" style="edgeStyle=orthogonalEdgeStyle;rounded=0;orthogonalLoop=1;jettySize=auto;html=1;" edge="1" parent="1" source="tF9eq-TAVwMk88sSngUh-51" target="tF9eq-TAVwMk88sSngUh-54">
          <mxGeometry relative="1" as="geometry" />
        </mxCell>
        <mxCell id="tF9eq-TAVwMk88sSngUh-51" value="获取开始时间，结束时间，文件结束时间" style="whiteSpace=wrap;html=1;fillColor=#d5e8d4;strokeColor=#82b366;rounded=1;" vertex="1" parent="1">
          <mxGeometry x="990" y="550" width="120" height="60" as="geometry" />
        </mxCell>
        <mxCell id="tF9eq-TAVwMk88sSngUh-57" value="" style="edgeStyle=orthogonalEdgeStyle;rounded=0;orthogonalLoop=1;jettySize=auto;html=1;" edge="1" parent="1" source="tF9eq-TAVwMk88sSngUh-54" target="tF9eq-TAVwMk88sSngUh-56">
          <mxGeometry relative="1" as="geometry" />
        </mxCell>
        <mxCell id="tF9eq-TAVwMk88sSngUh-54" value="由会员号，结束时间构造文件源地址source" style="whiteSpace=wrap;html=1;fillColor=#d5e8d4;strokeColor=#82b366;rounded=1;" vertex="1" parent="1">
          <mxGeometry x="990" y="660" width="120" height="60" as="geometry" />
        </mxCell>
        <mxCell id="tF9eq-TAVwMk88sSngUh-59" value="" style="edgeStyle=orthogonalEdgeStyle;rounded=0;orthogonalLoop=1;jettySize=auto;html=1;" edge="1" parent="1" source="tF9eq-TAVwMk88sSngUh-56">
          <mxGeometry relative="1" as="geometry">
            <mxPoint x="1050" y="900" as="targetPoint" />
          </mxGeometry>
        </mxCell>
        <mxCell id="tF9eq-TAVwMk88sSngUh-60" value="否" style="edgeLabel;html=1;align=center;verticalAlign=middle;resizable=0;points=[];" vertex="1" connectable="0" parent="tF9eq-TAVwMk88sSngUh-59">
          <mxGeometry x="-0.26" y="4" relative="1" as="geometry">
            <mxPoint as="offset" />
          </mxGeometry>
        </mxCell>
        <mxCell id="tF9eq-TAVwMk88sSngUh-63" value="" style="edgeStyle=orthogonalEdgeStyle;rounded=0;orthogonalLoop=1;jettySize=auto;html=1;" edge="1" parent="1" source="tF9eq-TAVwMk88sSngUh-56" target="tF9eq-TAVwMk88sSngUh-62">
          <mxGeometry relative="1" as="geometry" />
        </mxCell>
        <mxCell id="tF9eq-TAVwMk88sSngUh-56" value="source是否存在" style="rhombus;whiteSpace=wrap;html=1;fillColor=#d5e8d4;strokeColor=#82b366;rounded=1;" vertex="1" parent="1">
          <mxGeometry x="1010" y="770" width="80" height="80" as="geometry" />
        </mxCell>
        <mxCell id="tF9eq-TAVwMk88sSngUh-67" value="" style="edgeStyle=orthogonalEdgeStyle;rounded=0;orthogonalLoop=1;jettySize=auto;html=1;" edge="1" parent="1" source="tF9eq-TAVwMk88sSngUh-61" target="tF9eq-TAVwMk88sSngUh-66">
          <mxGeometry relative="1" as="geometry" />
        </mxCell>
        <mxCell id="tF9eq-TAVwMk88sSngUh-61" value="遍历商户信息列表merchantNo" style="rhombus;whiteSpace=wrap;html=1;fillColor=#d5e8d4;strokeColor=#82b366;rounded=1;" vertex="1" parent="1">
          <mxGeometry x="1000" y="900" width="100" height="90" as="geometry" />
        </mxCell>
        <mxCell id="tF9eq-TAVwMk88sSngUh-64" value="是" style="edgeStyle=orthogonalEdgeStyle;rounded=0;orthogonalLoop=1;jettySize=auto;html=1;" edge="1" parent="1" source="tF9eq-TAVwMk88sSngUh-62" target="tF9eq-TAVwMk88sSngUh-56">
          <mxGeometry relative="1" as="geometry" />
        </mxCell>
        <mxCell id="tF9eq-TAVwMk88sSngUh-65" style="edgeStyle=orthogonalEdgeStyle;rounded=0;orthogonalLoop=1;jettySize=auto;html=1;exitX=1;exitY=0.5;exitDx=0;exitDy=0;entryX=1;entryY=0.5;entryDx=0;entryDy=0;" edge="1" parent="1" source="tF9eq-TAVwMk88sSngUh-62" target="tF9eq-TAVwMk88sSngUh-61">
          <mxGeometry relative="1" as="geometry" />
        </mxCell>
        <mxCell id="tF9eq-TAVwMk88sSngUh-62" value="删除该地址文件" style="whiteSpace=wrap;html=1;fillColor=#d5e8d4;strokeColor=#82b366;rounded=1;" vertex="1" parent="1">
          <mxGeometry x="1150" y="785" width="100" height="50" as="geometry" />
        </mxCell>
        <mxCell id="tF9eq-TAVwMk88sSngUh-69" value="" style="edgeStyle=orthogonalEdgeStyle;rounded=0;orthogonalLoop=1;jettySize=auto;html=1;" edge="1" parent="1" source="tF9eq-TAVwMk88sSngUh-66" target="tF9eq-TAVwMk88sSngUh-68">
          <mxGeometry relative="1" as="geometry" />
        </mxCell>
        <mxCell id="tF9eq-TAVwMk88sSngUh-66" value="新建数组arr，保存商户号" style="whiteSpace=wrap;html=1;fillColor=#d5e8d4;strokeColor=#82b366;rounded=1;" vertex="1" parent="1">
          <mxGeometry x="995" y="1040" width="110" height="50" as="geometry" />
        </mxCell>
        <mxCell id="tF9eq-TAVwMk88sSngUh-71" value="是" style="edgeStyle=orthogonalEdgeStyle;rounded=0;orthogonalLoop=1;jettySize=auto;html=1;" edge="1" parent="1" source="tF9eq-TAVwMk88sSngUh-68" target="tF9eq-TAVwMk88sSngUh-70">
          <mxGeometry relative="1" as="geometry" />
        </mxCell>
        <mxCell id="tF9eq-TAVwMk88sSngUh-76" value="" style="edgeStyle=orthogonalEdgeStyle;rounded=0;orthogonalLoop=1;jettySize=auto;html=1;" edge="1" parent="1" source="tF9eq-TAVwMk88sSngUh-68" target="tF9eq-TAVwMk88sSngUh-75">
          <mxGeometry relative="1" as="geometry" />
        </mxCell>
        <mxCell id="tF9eq-TAVwMk88sSngUh-77" value="否" style="edgeLabel;html=1;align=center;verticalAlign=middle;resizable=0;points=[];" vertex="1" connectable="0" parent="tF9eq-TAVwMk88sSngUh-76">
          <mxGeometry x="-0.3" y="3" relative="1" as="geometry">
            <mxPoint y="1" as="offset" />
          </mxGeometry>
        </mxCell>
        <mxCell id="tF9eq-TAVwMk88sSngUh-68" value="商户中老商户号是否存在" style="rhombus;whiteSpace=wrap;html=1;fillColor=#d5e8d4;strokeColor=#82b366;rounded=1;" vertex="1" parent="1">
          <mxGeometry x="1010" y="1140" width="80" height="80" as="geometry" />
        </mxCell>
        <mxCell id="tF9eq-TAVwMk88sSngUh-79" value="" style="edgeStyle=orthogonalEdgeStyle;rounded=0;orthogonalLoop=1;jettySize=auto;html=1;" edge="1" parent="1" source="tF9eq-TAVwMk88sSngUh-70" target="tF9eq-TAVwMk88sSngUh-78">
          <mxGeometry relative="1" as="geometry" />
        </mxCell>
        <mxCell id="tF9eq-TAVwMk88sSngUh-70" value="arr保存新老商户号" style="whiteSpace=wrap;html=1;fillColor=#d5e8d4;strokeColor=#82b366;rounded=1;" vertex="1" parent="1">
          <mxGeometry x="990" y="1260" width="120" height="40" as="geometry" />
        </mxCell>
        <mxCell id="tF9eq-TAVwMk88sSngUh-75" value="arr保存新商户号" style="whiteSpace=wrap;html=1;fillColor=#d5e8d4;strokeColor=#82b366;rounded=1;" vertex="1" parent="1">
          <mxGeometry x="1150" y="1160" width="120" height="40" as="geometry" />
        </mxCell>
        <mxCell id="tF9eq-TAVwMk88sSngUh-81" value="" style="edgeStyle=orthogonalEdgeStyle;rounded=0;orthogonalLoop=1;jettySize=auto;html=1;" edge="1" parent="1" source="tF9eq-TAVwMk88sSngUh-78" target="tF9eq-TAVwMk88sSngUh-80">
          <mxGeometry relative="1" as="geometry" />
        </mxCell>
        <mxCell id="tF9eq-TAVwMk88sSngUh-78" value="由商户号，开始，结束时间，时区构造查询参数parMap" style="whiteSpace=wrap;html=1;fillColor=#d5e8d4;strokeColor=#82b366;rounded=1;" vertex="1" parent="1">
          <mxGeometry x="990" y="1340" width="120" height="60" as="geometry" />
        </mxCell>
        <mxCell id="tF9eq-TAVwMk88sSngUh-83" value="" style="edgeStyle=orthogonalEdgeStyle;rounded=0;orthogonalLoop=1;jettySize=auto;html=1;" edge="1" parent="1" source="tF9eq-TAVwMk88sSngUh-80" target="tF9eq-TAVwMk88sSngUh-82">
          <mxGeometry relative="1" as="geometry" />
        </mxCell>
        <mxCell id="tF9eq-TAVwMk88sSngUh-80" value="由参数查询表dwd_mico_reconciliation_settle_sum_&lt;span style=&quot;font-family: Menlo, Monaco, Consolas, &amp;quot;Courier New&amp;quot;, monospace; text-align: justify; box-sizing: border-box; color: rgb(255, 140, 0);&quot; class=&quot;number&quot;&gt;1&lt;/span&gt;&lt;span style=&quot;background-color: rgb(255, 255, 255); color: rgb(51, 51, 51); font-family: Menlo, Monaco, Consolas, &amp;quot;Courier New&amp;quot;, monospace; text-align: justify;&quot;&gt;di，&lt;br&gt;查询商户结算状态为成功的预结单， preSettleMap&lt;br&gt;&lt;/span&gt;" style="whiteSpace=wrap;html=1;fillColor=#d5e8d4;strokeColor=#82b366;rounded=1;" vertex="1" parent="1">
          <mxGeometry x="990" y="1440" width="120" height="60" as="geometry" />
        </mxCell>
        <mxCell id="tF9eq-TAVwMk88sSngUh-85" value="" style="edgeStyle=orthogonalEdgeStyle;rounded=0;orthogonalLoop=1;jettySize=auto;html=1;" edge="1" parent="1" source="tF9eq-TAVwMk88sSngUh-82" target="tF9eq-TAVwMk88sSngUh-84">
          <mxGeometry relative="1" as="geometry" />
        </mxCell>
        <mxCell id="tF9eq-TAVwMk88sSngUh-82" value="新建预结单列表perSettleList和预结单与确认单的关系字典preConfirmRelationMap" style="whiteSpace=wrap;html=1;fillColor=#d5e8d4;strokeColor=#82b366;rounded=1;" vertex="1" parent="1">
          <mxGeometry x="990" y="1550" width="120" height="60" as="geometry" />
        </mxCell>
        <mxCell id="tF9eq-TAVwMk88sSngUh-87" value="" style="edgeStyle=orthogonalEdgeStyle;rounded=0;orthogonalLoop=1;jettySize=auto;html=1;" edge="1" parent="1" source="tF9eq-TAVwMk88sSngUh-84" target="tF9eq-TAVwMk88sSngUh-86">
          <mxGeometry relative="1" as="geometry" />
        </mxCell>
        <mxCell id="tF9eq-TAVwMk88sSngUh-84" value="遍历预结单信息preSettleMap" style="rhombus;whiteSpace=wrap;html=1;fillColor=#d5e8d4;strokeColor=#82b366;rounded=1;" vertex="1" parent="1">
          <mxGeometry x="1005" y="1660" width="90" height="80" as="geometry" />
        </mxCell>
        <mxCell id="tF9eq-TAVwMk88sSngUh-89" value="" style="edgeStyle=orthogonalEdgeStyle;rounded=0;orthogonalLoop=1;jettySize=auto;html=1;" edge="1" parent="1" source="tF9eq-TAVwMk88sSngUh-86" target="tF9eq-TAVwMk88sSngUh-88">
          <mxGeometry relative="1" as="geometry" />
        </mxCell>
        <mxCell id="tF9eq-TAVwMk88sSngUh-86" value="获取预结单" style="whiteSpace=wrap;html=1;fillColor=#d5e8d4;strokeColor=#82b366;rounded=1;" vertex="1" parent="1">
          <mxGeometry x="995" y="1780" width="110" height="40" as="geometry" />
        </mxCell>
        <mxCell id="tF9eq-TAVwMk88sSngUh-91" value="" style="edgeStyle=orthogonalEdgeStyle;rounded=0;orthogonalLoop=1;jettySize=auto;html=1;" edge="1" parent="1" source="tF9eq-TAVwMk88sSngUh-88" target="tF9eq-TAVwMk88sSngUh-90">
          <mxGeometry relative="1" as="geometry" />
        </mxCell>
        <mxCell id="tF9eq-TAVwMk88sSngUh-92" value="否" style="edgeLabel;html=1;align=center;verticalAlign=middle;resizable=0;points=[];" vertex="1" connectable="0" parent="tF9eq-TAVwMk88sSngUh-91">
          <mxGeometry x="-0.1667" y="-1" relative="1" as="geometry">
            <mxPoint as="offset" />
          </mxGeometry>
        </mxCell>
        <mxCell id="tF9eq-TAVwMk88sSngUh-94" value="" style="edgeStyle=orthogonalEdgeStyle;rounded=0;orthogonalLoop=1;jettySize=auto;html=1;" edge="1" parent="1" source="tF9eq-TAVwMk88sSngUh-88" target="tF9eq-TAVwMk88sSngUh-93">
          <mxGeometry relative="1" as="geometry" />
        </mxCell>
        <mxCell id="tF9eq-TAVwMk88sSngUh-95" value="是" style="edgeLabel;html=1;align=center;verticalAlign=middle;resizable=0;points=[];" vertex="1" connectable="0" parent="tF9eq-TAVwMk88sSngUh-94">
          <mxGeometry x="-0.2" y="1" relative="1" as="geometry">
            <mxPoint y="1" as="offset" />
          </mxGeometry>
        </mxCell>
        <mxCell id="tF9eq-TAVwMk88sSngUh-88" value="判断pre ConfirmRelationMap中该预结单对应的确认单是否为null" style="rhombus;whiteSpace=wrap;html=1;fillColor=#d5e8d4;strokeColor=#82b366;rounded=1;" vertex="1" parent="1">
          <mxGeometry x="1000" y="1870" width="100" height="110" as="geometry" />
        </mxCell>
        <mxCell id="tF9eq-TAVwMk88sSngUh-97" value="" style="edgeStyle=orthogonalEdgeStyle;rounded=0;orthogonalLoop=1;jettySize=auto;html=1;" edge="1" parent="1" source="tF9eq-TAVwMk88sSngUh-90" target="tF9eq-TAVwMk88sSngUh-96">
          <mxGeometry relative="1" as="geometry" />
        </mxCell>
        <mxCell id="tF9eq-TAVwMk88sSngUh-100" style="edgeStyle=orthogonalEdgeStyle;rounded=0;orthogonalLoop=1;jettySize=auto;html=1;exitX=0;exitY=0.5;exitDx=0;exitDy=0;entryX=0;entryY=0.5;entryDx=0;entryDy=0;" edge="1" parent="1" source="tF9eq-TAVwMk88sSngUh-90" target="tF9eq-TAVwMk88sSngUh-84">
          <mxGeometry relative="1" as="geometry">
            <Array as="points">
              <mxPoint x="940" y="2070" />
              <mxPoint x="940" y="1700" />
            </Array>
          </mxGeometry>
        </mxCell>
        <mxCell id="tF9eq-TAVwMk88sSngUh-90" value="该预结单对应的确认单列表添加确认单号" style="whiteSpace=wrap;html=1;fillColor=#d5e8d4;strokeColor=#82b366;rounded=1;" vertex="1" parent="1">
          <mxGeometry x="990" y="2040" width="120" height="60" as="geometry" />
        </mxCell>
        <mxCell id="tF9eq-TAVwMk88sSngUh-102" style="edgeStyle=orthogonalEdgeStyle;rounded=0;orthogonalLoop=1;jettySize=auto;html=1;exitX=1;exitY=0.5;exitDx=0;exitDy=0;entryX=1;entryY=0.5;entryDx=0;entryDy=0;" edge="1" parent="1" source="tF9eq-TAVwMk88sSngUh-93" target="tF9eq-TAVwMk88sSngUh-84">
          <mxGeometry relative="1" as="geometry">
            <mxPoint x="1120" y="1710" as="targetPoint" />
          </mxGeometry>
        </mxCell>
        <mxCell id="tF9eq-TAVwMk88sSngUh-93" value="preSettleList添加该预结单号，pre ConfirmRelationMap添加该预结单和确认单映射关系" style="whiteSpace=wrap;html=1;fillColor=#d5e8d4;strokeColor=#82b366;rounded=1;" vertex="1" parent="1">
          <mxGeometry x="1170" y="1887.5" width="140" height="75" as="geometry" />
        </mxCell>
        <mxCell id="tF9eq-TAVwMk88sSngUh-98" style="edgeStyle=orthogonalEdgeStyle;rounded=0;orthogonalLoop=1;jettySize=auto;html=1;exitX=0;exitY=0.5;exitDx=0;exitDy=0;entryX=0;entryY=0.5;entryDx=0;entryDy=0;" edge="1" parent="1" source="tF9eq-TAVwMk88sSngUh-96" target="tF9eq-TAVwMk88sSngUh-61">
          <mxGeometry relative="1" as="geometry">
            <mxPoint x="870" y="1130" as="targetPoint" />
            <Array as="points">
              <mxPoint x="840" y="2210" />
              <mxPoint x="840" y="945" />
            </Array>
          </mxGeometry>
        </mxCell>
        <mxCell id="tF9eq-TAVwMk88sSngUh-104" value="是" style="edgeLabel;html=1;align=center;verticalAlign=middle;resizable=0;points=[];" vertex="1" connectable="0" parent="tF9eq-TAVwMk88sSngUh-98">
          <mxGeometry x="-0.8809" y="-1" relative="1" as="geometry">
            <mxPoint as="offset" />
          </mxGeometry>
        </mxCell>
        <mxCell id="tF9eq-TAVwMk88sSngUh-106" value="" style="edgeStyle=orthogonalEdgeStyle;rounded=0;orthogonalLoop=1;jettySize=auto;html=1;" edge="1" parent="1" source="tF9eq-TAVwMk88sSngUh-96" target="tF9eq-TAVwMk88sSngUh-105">
          <mxGeometry relative="1" as="geometry" />
        </mxCell>
        <mxCell id="tF9eq-TAVwMk88sSngUh-107" value="否" style="edgeLabel;html=1;align=center;verticalAlign=middle;resizable=0;points=[];" vertex="1" connectable="0" parent="tF9eq-TAVwMk88sSngUh-106">
          <mxGeometry x="-0.2667" y="-1" relative="1" as="geometry">
            <mxPoint as="offset" />
          </mxGeometry>
        </mxCell>
        <mxCell id="tF9eq-TAVwMk88sSngUh-96" value="preSettleList是否为空" style="rhombus;whiteSpace=wrap;html=1;fillColor=#d5e8d4;strokeColor=#82b366;rounded=1;" vertex="1" parent="1">
          <mxGeometry x="1010" y="2170" width="80" height="80" as="geometry" />
        </mxCell>
        <mxCell id="tF9eq-TAVwMk88sSngUh-99" value="商户信息循环" style="text;html=1;strokeColor=none;fillColor=none;align=center;verticalAlign=middle;whiteSpace=wrap;rounded=0;" vertex="1" parent="1">
          <mxGeometry x="790" y="1530" width="60" height="30" as="geometry" />
        </mxCell>
        <mxCell id="tF9eq-TAVwMk88sSngUh-101" value="预结单信息循环" style="text;html=1;strokeColor=none;fillColor=none;align=center;verticalAlign=middle;whiteSpace=wrap;rounded=0;" vertex="1" parent="1">
          <mxGeometry x="890" y="1860" width="60" height="30" as="geometry" />
        </mxCell>
        <mxCell id="tF9eq-TAVwMk88sSngUh-111" value="" style="edgeStyle=orthogonalEdgeStyle;rounded=0;orthogonalLoop=1;jettySize=auto;html=1;" edge="1" parent="1" source="tF9eq-TAVwMk88sSngUh-105" target="tF9eq-TAVwMk88sSngUh-110">
          <mxGeometry relative="1" as="geometry" />
        </mxCell>
        <mxCell id="tF9eq-TAVwMk88sSngUh-105" value="查询参数paramparamMap增加预结单列表" style="whiteSpace=wrap;html=1;fillColor=#d5e8d4;strokeColor=#82b366;rounded=1;" vertex="1" parent="1">
          <mxGeometry x="990" y="2300" width="120" height="50" as="geometry" />
        </mxCell>
        <mxCell id="tF9eq-TAVwMk88sSngUh-113" value="" style="edgeStyle=orthogonalEdgeStyle;rounded=0;orthogonalLoop=1;jettySize=auto;html=1;" edge="1" parent="1" source="tF9eq-TAVwMk88sSngUh-110" target="tF9eq-TAVwMk88sSngUh-112">
          <mxGeometry relative="1" as="geometry" />
        </mxCell>
        <mxCell id="tF9eq-TAVwMk88sSngUh-110" value="初始化writer" style="whiteSpace=wrap;html=1;fillColor=#d5e8d4;strokeColor=#82b366;rounded=1;" vertex="1" parent="1">
          <mxGeometry x="990" y="2390" width="120" height="40" as="geometry" />
        </mxCell>
        <mxCell id="tF9eq-TAVwMk88sSngUh-115" value="" style="edgeStyle=orthogonalEdgeStyle;rounded=0;orthogonalLoop=1;jettySize=auto;html=1;" edge="1" parent="1" source="tF9eq-TAVwMk88sSngUh-112" target="tF9eq-TAVwMk88sSngUh-114">
          <mxGeometry relative="1" as="geometry" />
        </mxCell>
        <mxCell id="tF9eq-TAVwMk88sSngUh-112" value="循环写excel" style="rhombus;whiteSpace=wrap;html=1;fillColor=#d5e8d4;strokeColor=#82b366;rounded=1;" vertex="1" parent="1">
          <mxGeometry x="1010" y="2490" width="80" height="80" as="geometry" />
        </mxCell>
        <mxCell id="tF9eq-TAVwMk88sSngUh-117" value="" style="edgeStyle=orthogonalEdgeStyle;rounded=0;orthogonalLoop=1;jettySize=auto;html=1;" edge="1" parent="1" source="tF9eq-TAVwMk88sSngUh-114" target="tF9eq-TAVwMk88sSngUh-116">
          <mxGeometry relative="1" as="geometry" />
        </mxCell>
        <mxCell id="tF9eq-TAVwMk88sSngUh-114" value="由参数查询表dwd_mico_reconciliation_settle_detail_&lt;span style=&quot;font-family: Menlo, Monaco, Consolas, &amp;quot;Courier New&amp;quot;, monospace; text-align: justify; box-sizing: border-box; color: rgb(255, 140, 0);&quot; class=&quot;number&quot;&gt;1&lt;/span&gt;&lt;span style=&quot;background-color: rgb(255, 255, 255); color: rgb(51, 51, 51); font-family: Menlo, Monaco, Consolas, &amp;quot;Courier New&amp;quot;, monospace; text-align: justify;&quot;&gt;di&lt;/span&gt;&lt;span style=&quot;background-color: rgb(255, 255, 255); color: rgb(51, 51, 51); font-family: Menlo, Monaco, Consolas, &amp;quot;Courier New&amp;quot;, monospace; text-align: justify;&quot;&gt;，&lt;/span&gt;&lt;span style=&quot;background-color: rgb(255, 255, 255); color: rgb(51, 51, 51); font-family: Menlo, Monaco, Consolas, &amp;quot;Courier New&amp;quot;, monospace; text-align: justify;&quot;&gt;&lt;br&gt;&lt;/span&gt;&lt;span style=&quot;border-color: var(--border-color); background-color: rgb(255, 255, 255); color: rgb(51, 51, 51); font-family: Menlo, Monaco, Consolas, &amp;quot;Courier New&amp;quot;, monospace; text-align: justify;&quot;&gt;根据预结单查询结算单明细&amp;nbsp;&lt;/span&gt;settleDetail" style="whiteSpace=wrap;html=1;fillColor=#d5e8d4;strokeColor=#82b366;rounded=1;" vertex="1" parent="1">
          <mxGeometry x="990" y="2610" width="120" height="60" as="geometry" />
        </mxCell>
        <mxCell id="tF9eq-TAVwMk88sSngUh-119" value="" style="edgeStyle=orthogonalEdgeStyle;rounded=0;orthogonalLoop=1;jettySize=auto;html=1;" edge="1" parent="1" source="tF9eq-TAVwMk88sSngUh-116" target="tF9eq-TAVwMk88sSngUh-118">
          <mxGeometry relative="1" as="geometry" />
        </mxCell>
        <mxCell id="tF9eq-TAVwMk88sSngUh-116" value="新建结果列表resList，遍历结算明细settleDetail，将数据转换为json格式存入resList" style="whiteSpace=wrap;html=1;fillColor=#d5e8d4;strokeColor=#82b366;rounded=1;" vertex="1" parent="1">
          <mxGeometry x="990" y="2730" width="120" height="80" as="geometry" />
        </mxCell>
        <mxCell id="tF9eq-TAVwMk88sSngUh-121" value="" style="edgeStyle=orthogonalEdgeStyle;rounded=0;orthogonalLoop=1;jettySize=auto;html=1;" edge="1" parent="1" source="tF9eq-TAVwMk88sSngUh-118" target="tF9eq-TAVwMk88sSngUh-120">
          <mxGeometry relative="1" as="geometry" />
        </mxCell>
        <mxCell id="tF9eq-TAVwMk88sSngUh-122" value="是" style="edgeLabel;html=1;align=center;verticalAlign=middle;resizable=0;points=[];" vertex="1" connectable="0" parent="tF9eq-TAVwMk88sSngUh-121">
          <mxGeometry x="-0.1778" y="1" relative="1" as="geometry">
            <mxPoint as="offset" />
          </mxGeometry>
        </mxCell>
        <mxCell id="tF9eq-TAVwMk88sSngUh-124" value="否" style="edgeStyle=orthogonalEdgeStyle;rounded=0;orthogonalLoop=1;jettySize=auto;html=1;" edge="1" parent="1" source="tF9eq-TAVwMk88sSngUh-118" target="tF9eq-TAVwMk88sSngUh-123">
          <mxGeometry relative="1" as="geometry" />
        </mxCell>
        <mxCell id="tF9eq-TAVwMk88sSngUh-118" value="结果列表resList是否为空" style="rhombus;whiteSpace=wrap;html=1;fillColor=#d5e8d4;strokeColor=#82b366;rounded=1;" vertex="1" parent="1">
          <mxGeometry x="1010" y="2860" width="80" height="80" as="geometry" />
        </mxCell>
        <mxCell id="tF9eq-TAVwMk88sSngUh-127" value="" style="edgeStyle=orthogonalEdgeStyle;rounded=0;orthogonalLoop=1;jettySize=auto;html=1;" edge="1" parent="1" source="tF9eq-TAVwMk88sSngUh-120" target="tF9eq-TAVwMk88sSngUh-126">
          <mxGeometry relative="1" as="geometry" />
        </mxCell>
        <mxCell id="tF9eq-TAVwMk88sSngUh-120" value="writer写入表格" style="whiteSpace=wrap;html=1;fillColor=#d5e8d4;strokeColor=#82b366;rounded=1;" vertex="1" parent="1">
          <mxGeometry x="990" y="2990" width="120" height="50" as="geometry" />
        </mxCell>
        <mxCell id="tF9eq-TAVwMk88sSngUh-125" style="edgeStyle=orthogonalEdgeStyle;rounded=0;orthogonalLoop=1;jettySize=auto;html=1;exitX=1;exitY=0.5;exitDx=0;exitDy=0;entryX=1;entryY=0.5;entryDx=0;entryDy=0;" edge="1" parent="1" source="tF9eq-TAVwMk88sSngUh-123" target="tF9eq-TAVwMk88sSngUh-120">
          <mxGeometry relative="1" as="geometry" />
        </mxCell>
        <mxCell id="tF9eq-TAVwMk88sSngUh-123" value="遍历resList列表，将数据由json解析成excelVo对象" style="whiteSpace=wrap;html=1;fillColor=#d5e8d4;strokeColor=#82b366;rounded=1;" vertex="1" parent="1">
          <mxGeometry x="1150" y="2870" width="120" height="60" as="geometry" />
        </mxCell>
        <mxCell id="tF9eq-TAVwMk88sSngUh-129" value="" style="edgeStyle=orthogonalEdgeStyle;rounded=0;orthogonalLoop=1;jettySize=auto;html=1;" edge="1" parent="1" source="tF9eq-TAVwMk88sSngUh-126" target="tF9eq-TAVwMk88sSngUh-128">
          <mxGeometry relative="1" as="geometry" />
        </mxCell>
        <mxCell id="tF9eq-TAVwMk88sSngUh-130" value="否" style="edgeLabel;html=1;align=center;verticalAlign=middle;resizable=0;points=[];" vertex="1" connectable="0" parent="tF9eq-TAVwMk88sSngUh-129">
          <mxGeometry y="2" relative="1" as="geometry">
            <mxPoint as="offset" />
          </mxGeometry>
        </mxCell>
        <mxCell id="tF9eq-TAVwMk88sSngUh-133" value="" style="edgeStyle=orthogonalEdgeStyle;rounded=0;orthogonalLoop=1;jettySize=auto;html=1;" edge="1" parent="1" source="tF9eq-TAVwMk88sSngUh-126" target="tF9eq-TAVwMk88sSngUh-132">
          <mxGeometry relative="1" as="geometry" />
        </mxCell>
        <mxCell id="tF9eq-TAVwMk88sSngUh-134" value="是" style="edgeLabel;html=1;align=center;verticalAlign=middle;resizable=0;points=[];" vertex="1" connectable="0" parent="tF9eq-TAVwMk88sSngUh-133">
          <mxGeometry x="-0.1556" y="-2" relative="1" as="geometry">
            <mxPoint as="offset" />
          </mxGeometry>
        </mxCell>
        <mxCell id="tF9eq-TAVwMk88sSngUh-126" value="结果总页码为0 或 当前页码大于总页码" style="rhombus;whiteSpace=wrap;html=1;fillColor=#d5e8d4;strokeColor=#82b366;rounded=1;" vertex="1" parent="1">
          <mxGeometry x="1010" y="3105" width="80" height="80" as="geometry" />
        </mxCell>
        <mxCell id="tF9eq-TAVwMk88sSngUh-131" style="edgeStyle=orthogonalEdgeStyle;rounded=0;orthogonalLoop=1;jettySize=auto;html=1;exitX=0;exitY=0.5;exitDx=0;exitDy=0;entryX=0;entryY=0.5;entryDx=0;entryDy=0;" edge="1" parent="1" source="tF9eq-TAVwMk88sSngUh-128" target="tF9eq-TAVwMk88sSngUh-112">
          <mxGeometry relative="1" as="geometry">
            <mxPoint x="880" y="2570" as="targetPoint" />
          </mxGeometry>
        </mxCell>
        <mxCell id="tF9eq-TAVwMk88sSngUh-128" value="当前页码加1" style="whiteSpace=wrap;html=1;fillColor=#d5e8d4;strokeColor=#82b366;rounded=1;" vertex="1" parent="1">
          <mxGeometry x="830" y="3122.5" width="120" height="45" as="geometry" />
        </mxCell>
        <mxCell id="6TS9SPNI_zXIky9GnBiD-2" value="" style="edgeStyle=orthogonalEdgeStyle;curved=1;rounded=0;orthogonalLoop=1;jettySize=auto;html=1;" edge="1" parent="1" source="tF9eq-TAVwMk88sSngUh-132" target="6TS9SPNI_zXIky9GnBiD-1">
          <mxGeometry relative="1" as="geometry" />
        </mxCell>
        <mxCell id="tF9eq-TAVwMk88sSngUh-132" value="初始化行数组fromRow，从第2行开始" style="whiteSpace=wrap;html=1;fillColor=#d5e8d4;strokeColor=#82b366;rounded=1;" vertex="1" parent="1">
          <mxGeometry x="990" y="3260" width="120" height="50" as="geometry" />
        </mxCell>
        <mxCell id="6TS9SPNI_zXIky9GnBiD-4" value="" style="edgeStyle=orthogonalEdgeStyle;curved=1;rounded=0;orthogonalLoop=1;jettySize=auto;html=1;" edge="1" parent="1" source="6TS9SPNI_zXIky9GnBiD-1" target="6TS9SPNI_zXIky9GnBiD-3">
          <mxGeometry relative="1" as="geometry" />
        </mxCell>
        <mxCell id="6TS9SPNI_zXIky9GnBiD-1" value="根据参数查询预结算信息dwd_mico_reconciliation_settle_sum_&lt;span style=&quot;font-family: Menlo, Monaco, Consolas, &amp;quot;Courier New&amp;quot;, monospace; text-align: justify; box-sizing: border-box; color: rgb(255, 140, 0);&quot; class=&quot;number&quot;&gt;1&lt;/span&gt;&lt;span style=&quot;background-color: rgb(255, 255, 255); color: rgb(51, 51, 51); font-family: Menlo, Monaco, Consolas, &amp;quot;Courier New&amp;quot;, monospace; text-align: justify;&quot;&gt;di&lt;/span&gt;" style="whiteSpace=wrap;html=1;fillColor=#d5e8d4;strokeColor=#82b366;rounded=1;" vertex="1" parent="1">
          <mxGeometry x="990" y="3350" width="120" height="50" as="geometry" />
        </mxCell>
        <mxCell id="6TS9SPNI_zXIky9GnBiD-6" value="" style="edgeStyle=orthogonalEdgeStyle;curved=1;rounded=0;orthogonalLoop=1;jettySize=auto;html=1;" edge="1" parent="1" source="6TS9SPNI_zXIky9GnBiD-3" target="6TS9SPNI_zXIky9GnBiD-5">
          <mxGeometry relative="1" as="geometry" />
        </mxCell>
        <mxCell id="6TS9SPNI_zXIky9GnBiD-3" value="获取预结算列表preDetailList，创建预结算信息json列表preListOj" style="whiteSpace=wrap;html=1;fillColor=#d5e8d4;strokeColor=#82b366;rounded=1;" vertex="1" parent="1">
          <mxGeometry x="990" y="3450" width="120" height="60" as="geometry" />
        </mxCell>
        <mxCell id="6TS9SPNI_zXIky9GnBiD-8" value="" style="edgeStyle=orthogonalEdgeStyle;curved=1;rounded=0;orthogonalLoop=1;jettySize=auto;html=1;" edge="1" parent="1" source="6TS9SPNI_zXIky9GnBiD-5" target="6TS9SPNI_zXIky9GnBiD-7">
          <mxGeometry relative="1" as="geometry" />
        </mxCell>
        <mxCell id="6TS9SPNI_zXIky9GnBiD-5" value="创建过滤列表filterList，过滤重复的预结算单" style="whiteSpace=wrap;html=1;fillColor=#d5e8d4;strokeColor=#82b366;rounded=1;" vertex="1" parent="1">
          <mxGeometry x="990" y="3550" width="120" height="60" as="geometry" />
        </mxCell>
        <mxCell id="6TS9SPNI_zXIky9GnBiD-10" value="" style="edgeStyle=orthogonalEdgeStyle;curved=1;rounded=0;orthogonalLoop=1;jettySize=auto;html=1;" edge="1" parent="1" source="6TS9SPNI_zXIky9GnBiD-7" target="6TS9SPNI_zXIky9GnBiD-9">
          <mxGeometry relative="1" as="geometry" />
        </mxCell>
        <mxCell id="6TS9SPNI_zXIky9GnBiD-7" value="遍历预结算列表preDetailList" style="rhombus;whiteSpace=wrap;html=1;fillColor=#d5e8d4;strokeColor=#82b366;rounded=1;" vertex="1" parent="1">
          <mxGeometry x="980" y="3650" width="140" height="80" as="geometry" />
        </mxCell>
        <mxCell id="6TS9SPNI_zXIky9GnBiD-11" style="edgeStyle=orthogonalEdgeStyle;rounded=0;orthogonalLoop=1;jettySize=auto;html=1;exitX=1;exitY=0.5;exitDx=0;exitDy=0;entryX=1;entryY=0.5;entryDx=0;entryDy=0;" edge="1" parent="1" source="6TS9SPNI_zXIky9GnBiD-9" target="6TS9SPNI_zXIky9GnBiD-7">
          <mxGeometry relative="1" as="geometry" />
        </mxCell>
        <mxCell id="6TS9SPNI_zXIky9GnBiD-12" value="是" style="edgeLabel;html=1;align=center;verticalAlign=middle;resizable=0;points=[];" vertex="1" connectable="0" parent="6TS9SPNI_zXIky9GnBiD-11">
          <mxGeometry x="-0.1067" y="-2" relative="1" as="geometry">
            <mxPoint as="offset" />
          </mxGeometry>
        </mxCell>
        <mxCell id="6TS9SPNI_zXIky9GnBiD-14" value="" style="edgeStyle=orthogonalEdgeStyle;curved=1;rounded=0;orthogonalLoop=1;jettySize=auto;html=1;" edge="1" parent="1" source="6TS9SPNI_zXIky9GnBiD-9" target="6TS9SPNI_zXIky9GnBiD-13">
          <mxGeometry relative="1" as="geometry" />
        </mxCell>
        <mxCell id="6TS9SPNI_zXIky9GnBiD-15" value="否" style="edgeLabel;html=1;align=center;verticalAlign=middle;resizable=0;points=[];" vertex="1" connectable="0" parent="6TS9SPNI_zXIky9GnBiD-14">
          <mxGeometry x="-0.24" y="-2" relative="1" as="geometry">
            <mxPoint as="offset" />
          </mxGeometry>
        </mxCell>
        <mxCell id="6TS9SPNI_zXIky9GnBiD-9" value="fiterList是否包含当前预结单号" style="rhombus;whiteSpace=wrap;html=1;fillColor=#d5e8d4;strokeColor=#82b366;rounded=1;" vertex="1" parent="1">
          <mxGeometry x="980" y="3760" width="140" height="80" as="geometry" />
        </mxCell>
        <mxCell id="6TS9SPNI_zXIky9GnBiD-16" style="edgeStyle=orthogonalEdgeStyle;rounded=0;orthogonalLoop=1;jettySize=auto;html=1;exitX=0;exitY=0.5;exitDx=0;exitDy=0;entryX=0;entryY=0.5;entryDx=0;entryDy=0;" edge="1" parent="1" source="6TS9SPNI_zXIky9GnBiD-13" target="6TS9SPNI_zXIky9GnBiD-7">
          <mxGeometry relative="1" as="geometry">
            <mxPoint x="960" y="3730" as="targetPoint" />
            <Array as="points">
              <mxPoint x="950" y="3920" />
              <mxPoint x="950" y="3690" />
            </Array>
          </mxGeometry>
        </mxCell>
        <mxCell id="6TS9SPNI_zXIky9GnBiD-18" value="" style="edgeStyle=orthogonalEdgeStyle;curved=1;rounded=0;orthogonalLoop=1;jettySize=auto;html=1;" edge="1" parent="1" source="6TS9SPNI_zXIky9GnBiD-13" target="6TS9SPNI_zXIky9GnBiD-17">
          <mxGeometry relative="1" as="geometry" />
        </mxCell>
        <mxCell id="6TS9SPNI_zXIky9GnBiD-13" value="filterList添加当前预结单号，将当前预结算信息转化成json放入preListObj列表" style="whiteSpace=wrap;html=1;fillColor=#d5e8d4;strokeColor=#82b366;rounded=1;" vertex="1" parent="1">
          <mxGeometry x="980" y="3890" width="140" height="60" as="geometry" />
        </mxCell>
        <mxCell id="6TS9SPNI_zXIky9GnBiD-20" value="" style="edgeStyle=orthogonalEdgeStyle;curved=1;rounded=0;orthogonalLoop=1;jettySize=auto;html=1;" edge="1" parent="1" source="6TS9SPNI_zXIky9GnBiD-17" target="6TS9SPNI_zXIky9GnBiD-19">
          <mxGeometry relative="1" as="geometry" />
        </mxCell>
        <mxCell id="6TS9SPNI_zXIky9GnBiD-17" value="新建预结单列合并集合，初始化预结算初始行号FIRST_PRE_FROM_ROW=2" style="whiteSpace=wrap;html=1;fillColor=#d5e8d4;strokeColor=#82b366;rounded=1;" vertex="1" parent="1">
          <mxGeometry x="955" y="3990" width="190" height="60" as="geometry" />
        </mxCell>
        <mxCell id="6TS9SPNI_zXIky9GnBiD-22" value="" style="edgeStyle=orthogonalEdgeStyle;curved=1;rounded=0;orthogonalLoop=1;jettySize=auto;html=1;" edge="1" parent="1" source="6TS9SPNI_zXIky9GnBiD-19" target="6TS9SPNI_zXIky9GnBiD-21">
          <mxGeometry relative="1" as="geometry" />
        </mxCell>
        <mxCell id="6TS9SPNI_zXIky9GnBiD-19" value="新建预结算单信息列表preDetailExcelVos和结算单信息列表result" style="whiteSpace=wrap;html=1;fillColor=#d5e8d4;strokeColor=#82b366;rounded=1;" vertex="1" parent="1">
          <mxGeometry x="990" y="4090" width="120" height="60" as="geometry" />
        </mxCell>
        <mxCell id="6TS9SPNI_zXIky9GnBiD-24" value="" style="edgeStyle=orthogonalEdgeStyle;curved=1;rounded=0;orthogonalLoop=1;jettySize=auto;html=1;" edge="1" parent="1" source="6TS9SPNI_zXIky9GnBiD-21" target="6TS9SPNI_zXIky9GnBiD-23">
          <mxGeometry relative="1" as="geometry" />
        </mxCell>
        <mxCell id="6TS9SPNI_zXIky9GnBiD-21" value="遍历json预结算信息列表preListObj" style="rhombus;whiteSpace=wrap;html=1;fillColor=#d5e8d4;strokeColor=#82b366;rounded=1;" vertex="1" parent="1">
          <mxGeometry x="990" y="4190" width="120" height="80" as="geometry" />
        </mxCell>
        <mxCell id="6TS9SPNI_zXIky9GnBiD-25" style="edgeStyle=orthogonalEdgeStyle;curved=1;rounded=0;orthogonalLoop=1;jettySize=auto;html=1;exitX=1;exitY=0.5;exitDx=0;exitDy=0;" edge="1" parent="1" source="6TS9SPNI_zXIky9GnBiD-23">
          <mxGeometry relative="1" as="geometry">
            <mxPoint x="1220" y="4340" as="targetPoint" />
          </mxGeometry>
        </mxCell>
        <mxCell id="6TS9SPNI_zXIky9GnBiD-102" value="" style="edgeStyle=orthogonalEdgeStyle;curved=1;rounded=0;orthogonalLoop=1;jettySize=auto;html=1;" edge="1" parent="1" source="6TS9SPNI_zXIky9GnBiD-23" target="6TS9SPNI_zXIky9GnBiD-101">
          <mxGeometry relative="1" as="geometry" />
        </mxCell>
        <mxCell id="6TS9SPNI_zXIky9GnBiD-23" value="根据账单请求参数中的时区转换预结算信息为预结算详情vo列表" style="whiteSpace=wrap;html=1;fillColor=#d5e8d4;strokeColor=#82b366;rounded=1;" vertex="1" parent="1">
          <mxGeometry x="990" y="4310" width="120" height="60" as="geometry" />
        </mxCell>
        <mxCell id="6TS9SPNI_zXIky9GnBiD-28" value="" style="edgeStyle=orthogonalEdgeStyle;curved=1;rounded=0;orthogonalLoop=1;jettySize=auto;html=1;" edge="1" parent="1" source="6TS9SPNI_zXIky9GnBiD-26" target="6TS9SPNI_zXIky9GnBiD-27">
          <mxGeometry relative="1" as="geometry" />
        </mxCell>
        <mxCell id="6TS9SPNI_zXIky9GnBiD-26" value="新建预结算详情vo对象列表result" style="rounded=0;whiteSpace=wrap;html=1;fillColor=#fad7ac;strokeColor=#b46504;" vertex="1" parent="1">
          <mxGeometry x="1350" y="4050" width="120" height="60" as="geometry" />
        </mxCell>
        <mxCell id="6TS9SPNI_zXIky9GnBiD-29" style="edgeStyle=orthogonalEdgeStyle;curved=1;rounded=0;orthogonalLoop=1;jettySize=auto;html=1;exitX=1;exitY=0.5;exitDx=0;exitDy=0;" edge="1" parent="1" source="6TS9SPNI_zXIky9GnBiD-27">
          <mxGeometry relative="1" as="geometry">
            <mxPoint x="1620" y="4175" as="targetPoint" />
          </mxGeometry>
        </mxCell>
        <mxCell id="6TS9SPNI_zXIky9GnBiD-67" value="" style="edgeStyle=orthogonalEdgeStyle;curved=1;rounded=0;orthogonalLoop=1;jettySize=auto;html=1;" edge="1" parent="1" source="6TS9SPNI_zXIky9GnBiD-27" target="6TS9SPNI_zXIky9GnBiD-66">
          <mxGeometry relative="1" as="geometry" />
        </mxCell>
        <mxCell id="6TS9SPNI_zXIky9GnBiD-27" value="从预结算preJson中获取预结算国家信息列表preCountryInfos" style="whiteSpace=wrap;html=1;fillColor=#fad7ac;strokeColor=#b46504;rounded=0;" vertex="1" parent="1">
          <mxGeometry x="1352.5" y="4150" width="115" height="50" as="geometry" />
        </mxCell>
        <mxCell id="6TS9SPNI_zXIky9GnBiD-65" value="" style="group" vertex="1" connectable="0" parent="1">
          <mxGeometry x="1670" y="3840" width="460" height="950" as="geometry" />
        </mxCell>
        <mxCell id="6TS9SPNI_zXIky9GnBiD-30" value="初始化交易币种为null" style="rounded=0;whiteSpace=wrap;html=1;fillColor=#b0e3e6;strokeColor=#0e8088;" vertex="1" parent="6TS9SPNI_zXIky9GnBiD-65">
          <mxGeometry x="130" width="110" height="50" as="geometry" />
        </mxCell>
        <mxCell id="6TS9SPNI_zXIky9GnBiD-31" value="preJson是否包含预结算详情信息preDetailInfo" style="rhombus;whiteSpace=wrap;html=1;fillColor=#b0e3e6;strokeColor=#0e8088;rounded=0;" vertex="1" parent="6TS9SPNI_zXIky9GnBiD-65">
          <mxGeometry x="127.5" y="87.5" width="115" height="85" as="geometry" />
        </mxCell>
        <mxCell id="6TS9SPNI_zXIky9GnBiD-32" value="" style="edgeStyle=orthogonalEdgeStyle;curved=1;rounded=0;orthogonalLoop=1;jettySize=auto;html=1;" edge="1" parent="6TS9SPNI_zXIky9GnBiD-65" source="6TS9SPNI_zXIky9GnBiD-30" target="6TS9SPNI_zXIky9GnBiD-31">
          <mxGeometry relative="1" as="geometry" />
        </mxCell>
        <mxCell id="6TS9SPNI_zXIky9GnBiD-33" value="获取预结算详情信息preDetailInfo，获取交易币种" style="whiteSpace=wrap;html=1;fillColor=#b0e3e6;strokeColor=#0e8088;rounded=0;" vertex="1" parent="6TS9SPNI_zXIky9GnBiD-65">
          <mxGeometry x="320" y="100" width="120" height="60" as="geometry" />
        </mxCell>
        <mxCell id="6TS9SPNI_zXIky9GnBiD-34" value="" style="edgeStyle=orthogonalEdgeStyle;curved=1;rounded=0;orthogonalLoop=1;jettySize=auto;html=1;" edge="1" parent="6TS9SPNI_zXIky9GnBiD-65" source="6TS9SPNI_zXIky9GnBiD-31" target="6TS9SPNI_zXIky9GnBiD-33">
          <mxGeometry relative="1" as="geometry" />
        </mxCell>
        <mxCell id="6TS9SPNI_zXIky9GnBiD-35" value="是" style="edgeLabel;html=1;align=center;verticalAlign=middle;resizable=0;points=[];" vertex="1" connectable="0" parent="6TS9SPNI_zXIky9GnBiD-34">
          <mxGeometry x="0.071" y="-3" relative="1" as="geometry">
            <mxPoint y="1" as="offset" />
          </mxGeometry>
        </mxCell>
        <mxCell id="6TS9SPNI_zXIky9GnBiD-40" style="edgeStyle=orthogonalEdgeStyle;curved=1;rounded=0;orthogonalLoop=1;jettySize=auto;html=1;exitX=0;exitY=0.5;exitDx=0;exitDy=0;" edge="1" parent="6TS9SPNI_zXIky9GnBiD-65" source="6TS9SPNI_zXIky9GnBiD-36">
          <mxGeometry relative="1" as="geometry">
            <mxPoint x="100" y="263" as="targetPoint" />
          </mxGeometry>
        </mxCell>
        <mxCell id="6TS9SPNI_zXIky9GnBiD-36" value="preJson是否包含扩展字段extendInfo" style="rhombus;whiteSpace=wrap;html=1;fillColor=#b0e3e6;strokeColor=#0e8088;rounded=0;" vertex="1" parent="6TS9SPNI_zXIky9GnBiD-65">
          <mxGeometry x="127.5" y="220" width="115" height="85" as="geometry" />
        </mxCell>
        <mxCell id="6TS9SPNI_zXIky9GnBiD-37" value="" style="edgeStyle=orthogonalEdgeStyle;curved=1;rounded=0;orthogonalLoop=1;jettySize=auto;html=1;" edge="1" parent="6TS9SPNI_zXIky9GnBiD-65" source="6TS9SPNI_zXIky9GnBiD-31" target="6TS9SPNI_zXIky9GnBiD-36">
          <mxGeometry relative="1" as="geometry" />
        </mxCell>
        <mxCell id="6TS9SPNI_zXIky9GnBiD-38" style="edgeStyle=orthogonalEdgeStyle;rounded=0;orthogonalLoop=1;jettySize=auto;html=1;exitX=0.5;exitY=1;exitDx=0;exitDy=0;entryX=1;entryY=0.5;entryDx=0;entryDy=0;" edge="1" parent="6TS9SPNI_zXIky9GnBiD-65" source="6TS9SPNI_zXIky9GnBiD-33" target="6TS9SPNI_zXIky9GnBiD-36">
          <mxGeometry relative="1" as="geometry" />
        </mxCell>
        <mxCell id="6TS9SPNI_zXIky9GnBiD-41" value="返回空列表" style="rounded=0;whiteSpace=wrap;html=1;fillColor=#b0e3e6;strokeColor=#0e8088;" vertex="1" parent="6TS9SPNI_zXIky9GnBiD-65">
          <mxGeometry y="241.25" width="100" height="42.5" as="geometry" />
        </mxCell>
        <mxCell id="6TS9SPNI_zXIky9GnBiD-42" value="获取扩展字段extendJson" style="whiteSpace=wrap;html=1;fillColor=#b0e3e6;strokeColor=#0e8088;rounded=0;" vertex="1" parent="6TS9SPNI_zXIky9GnBiD-65">
          <mxGeometry x="125" y="340" width="125" height="40" as="geometry" />
        </mxCell>
        <mxCell id="6TS9SPNI_zXIky9GnBiD-43" value="" style="edgeStyle=orthogonalEdgeStyle;curved=1;rounded=0;orthogonalLoop=1;jettySize=auto;html=1;" edge="1" parent="6TS9SPNI_zXIky9GnBiD-65" source="6TS9SPNI_zXIky9GnBiD-36" target="6TS9SPNI_zXIky9GnBiD-42">
          <mxGeometry relative="1" as="geometry" />
        </mxCell>
        <mxCell id="6TS9SPNI_zXIky9GnBiD-44" value="是" style="edgeLabel;html=1;align=center;verticalAlign=middle;resizable=0;points=[];" vertex="1" connectable="0" parent="6TS9SPNI_zXIky9GnBiD-43">
          <mxGeometry x="-0.3838" y="-3" relative="1" as="geometry">
            <mxPoint y="1" as="offset" />
          </mxGeometry>
        </mxCell>
        <mxCell id="6TS9SPNI_zXIky9GnBiD-48" value="" style="edgeStyle=orthogonalEdgeStyle;curved=1;rounded=0;orthogonalLoop=1;jettySize=auto;html=1;" edge="1" parent="6TS9SPNI_zXIky9GnBiD-65" source="6TS9SPNI_zXIky9GnBiD-45">
          <mxGeometry relative="1" as="geometry">
            <mxPoint x="187.5" y="530" as="targetPoint" />
          </mxGeometry>
        </mxCell>
        <mxCell id="6TS9SPNI_zXIky9GnBiD-45" value="extendJson不为空&amp;amp;&amp;amp;包含preExtendDisplayInfos字段" style="rhombus;whiteSpace=wrap;html=1;fillColor=#b0e3e6;strokeColor=#0e8088;rounded=0;" vertex="1" parent="6TS9SPNI_zXIky9GnBiD-65">
          <mxGeometry x="111.25" y="410" width="152.5" height="80" as="geometry" />
        </mxCell>
        <mxCell id="6TS9SPNI_zXIky9GnBiD-46" value="" style="edgeStyle=orthogonalEdgeStyle;curved=1;rounded=0;orthogonalLoop=1;jettySize=auto;html=1;" edge="1" parent="6TS9SPNI_zXIky9GnBiD-65" source="6TS9SPNI_zXIky9GnBiD-42" target="6TS9SPNI_zXIky9GnBiD-45">
          <mxGeometry relative="1" as="geometry" />
        </mxCell>
        <mxCell id="6TS9SPNI_zXIky9GnBiD-49" value="获取preExtendDisplayInfos字段并将其转换为国家信息列表preCountryInfos" style="whiteSpace=wrap;html=1;fillColor=#b0e3e6;strokeColor=#0e8088;rounded=0;" vertex="1" parent="6TS9SPNI_zXIky9GnBiD-65">
          <mxGeometry x="100" y="530" width="175" height="50" as="geometry" />
        </mxCell>
        <mxCell id="6TS9SPNI_zXIky9GnBiD-52" value="判断国家信息列表是否为空" style="rhombus;whiteSpace=wrap;html=1;fillColor=#b0e3e6;strokeColor=#0e8088;rounded=0;" vertex="1" parent="6TS9SPNI_zXIky9GnBiD-65">
          <mxGeometry x="126.25" y="620" width="122.5" height="75" as="geometry" />
        </mxCell>
        <mxCell id="6TS9SPNI_zXIky9GnBiD-53" value="" style="edgeStyle=orthogonalEdgeStyle;curved=1;rounded=0;orthogonalLoop=1;jettySize=auto;html=1;" edge="1" parent="6TS9SPNI_zXIky9GnBiD-65" source="6TS9SPNI_zXIky9GnBiD-49" target="6TS9SPNI_zXIky9GnBiD-52">
          <mxGeometry relative="1" as="geometry" />
        </mxCell>
        <mxCell id="6TS9SPNI_zXIky9GnBiD-54" value="遍历国家信息列表preCountryInfos" style="rhombus;whiteSpace=wrap;html=1;fillColor=#b0e3e6;strokeColor=#0e8088;rounded=0;" vertex="1" parent="6TS9SPNI_zXIky9GnBiD-65">
          <mxGeometry x="121.25" y="730" width="132.5" height="80" as="geometry" />
        </mxCell>
        <mxCell id="6TS9SPNI_zXIky9GnBiD-55" value="" style="edgeStyle=orthogonalEdgeStyle;curved=1;rounded=0;orthogonalLoop=1;jettySize=auto;html=1;" edge="1" parent="6TS9SPNI_zXIky9GnBiD-65" source="6TS9SPNI_zXIky9GnBiD-52" target="6TS9SPNI_zXIky9GnBiD-54">
          <mxGeometry relative="1" as="geometry" />
        </mxCell>
        <mxCell id="6TS9SPNI_zXIky9GnBiD-61" value="否" style="edgeLabel;html=1;align=center;verticalAlign=middle;resizable=0;points=[];" vertex="1" connectable="0" parent="6TS9SPNI_zXIky9GnBiD-55">
          <mxGeometry x="-0.5319" y="-2" relative="1" as="geometry">
            <mxPoint as="offset" />
          </mxGeometry>
        </mxCell>
        <mxCell id="6TS9SPNI_zXIky9GnBiD-56" value="设置交易币种" style="whiteSpace=wrap;html=1;fillColor=#b0e3e6;strokeColor=#0e8088;rounded=0;" vertex="1" parent="6TS9SPNI_zXIky9GnBiD-65">
          <mxGeometry x="126.25" y="840" width="122.5" height="40" as="geometry" />
        </mxCell>
        <mxCell id="6TS9SPNI_zXIky9GnBiD-57" value="" style="edgeStyle=orthogonalEdgeStyle;curved=1;rounded=0;orthogonalLoop=1;jettySize=auto;html=1;" edge="1" parent="6TS9SPNI_zXIky9GnBiD-65" source="6TS9SPNI_zXIky9GnBiD-54" target="6TS9SPNI_zXIky9GnBiD-56">
          <mxGeometry relative="1" as="geometry" />
        </mxCell>
        <mxCell id="6TS9SPNI_zXIky9GnBiD-58" value="返回preCountryInfos" style="whiteSpace=wrap;html=1;fillColor=#b0e3e6;strokeColor=#0e8088;rounded=0;" vertex="1" parent="6TS9SPNI_zXIky9GnBiD-65">
          <mxGeometry x="126.25" y="910" width="122.5" height="40" as="geometry" />
        </mxCell>
        <mxCell id="6TS9SPNI_zXIky9GnBiD-62" value="是" style="edgeStyle=orthogonalEdgeStyle;rounded=0;orthogonalLoop=1;jettySize=auto;html=1;exitX=1;exitY=0.5;exitDx=0;exitDy=0;entryX=1;entryY=0.5;entryDx=0;entryDy=0;" edge="1" parent="6TS9SPNI_zXIky9GnBiD-65" source="6TS9SPNI_zXIky9GnBiD-52" target="6TS9SPNI_zXIky9GnBiD-58">
          <mxGeometry relative="1" as="geometry">
            <Array as="points">
              <mxPoint x="280" y="658" />
              <mxPoint x="280" y="930" />
            </Array>
          </mxGeometry>
        </mxCell>
        <mxCell id="6TS9SPNI_zXIky9GnBiD-59" value="" style="edgeStyle=orthogonalEdgeStyle;curved=1;rounded=0;orthogonalLoop=1;jettySize=auto;html=1;" edge="1" parent="6TS9SPNI_zXIky9GnBiD-65" source="6TS9SPNI_zXIky9GnBiD-56" target="6TS9SPNI_zXIky9GnBiD-58">
          <mxGeometry relative="1" as="geometry" />
        </mxCell>
        <mxCell id="6TS9SPNI_zXIky9GnBiD-63" value="返回空列表" style="whiteSpace=wrap;html=1;fillColor=#b0e3e6;strokeColor=#0e8088;rounded=0;" vertex="1" parent="6TS9SPNI_zXIky9GnBiD-65">
          <mxGeometry x="350" y="430" width="110" height="40" as="geometry" />
        </mxCell>
        <mxCell id="6TS9SPNI_zXIky9GnBiD-64" value="" style="edgeStyle=orthogonalEdgeStyle;curved=1;rounded=0;orthogonalLoop=1;jettySize=auto;html=1;" edge="1" parent="6TS9SPNI_zXIky9GnBiD-65" source="6TS9SPNI_zXIky9GnBiD-45" target="6TS9SPNI_zXIky9GnBiD-63">
          <mxGeometry relative="1" as="geometry" />
        </mxCell>
        <mxCell id="6TS9SPNI_zXIky9GnBiD-69" value="" style="edgeStyle=orthogonalEdgeStyle;curved=1;rounded=0;orthogonalLoop=1;jettySize=auto;html=1;" edge="1" parent="1" source="6TS9SPNI_zXIky9GnBiD-66">
          <mxGeometry relative="1" as="geometry">
            <mxPoint x="1410" y="4370" as="targetPoint" />
          </mxGeometry>
        </mxCell>
        <mxCell id="6TS9SPNI_zXIky9GnBiD-70" value="否" style="edgeLabel;html=1;align=center;verticalAlign=middle;resizable=0;points=[];" vertex="1" connectable="0" parent="6TS9SPNI_zXIky9GnBiD-69">
          <mxGeometry x="-0.2556" y="-1" relative="1" as="geometry">
            <mxPoint y="1" as="offset" />
          </mxGeometry>
        </mxCell>
        <mxCell id="6TS9SPNI_zXIky9GnBiD-98" style="edgeStyle=orthogonalEdgeStyle;rounded=0;orthogonalLoop=1;jettySize=auto;html=1;exitX=0;exitY=0.5;exitDx=0;exitDy=0;entryX=0;entryY=0.5;entryDx=0;entryDy=0;" edge="1" parent="1" source="6TS9SPNI_zXIky9GnBiD-66" target="6TS9SPNI_zXIky9GnBiD-80">
          <mxGeometry relative="1" as="geometry">
            <Array as="points">
              <mxPoint x="1290" y="4280" />
              <mxPoint x="1290" y="4890" />
            </Array>
          </mxGeometry>
        </mxCell>
        <mxCell id="6TS9SPNI_zXIky9GnBiD-99" value="是" style="edgeLabel;html=1;align=center;verticalAlign=middle;resizable=0;points=[];" vertex="1" connectable="0" parent="6TS9SPNI_zXIky9GnBiD-98">
          <mxGeometry x="-0.9255" relative="1" as="geometry">
            <mxPoint as="offset" />
          </mxGeometry>
        </mxCell>
        <mxCell id="6TS9SPNI_zXIky9GnBiD-66" value="判断国家信息列表是否为空" style="rhombus;whiteSpace=wrap;html=1;fillColor=#fad7ac;strokeColor=#b46504;rounded=0;" vertex="1" parent="1">
          <mxGeometry x="1340" y="4240" width="140" height="80" as="geometry" />
        </mxCell>
        <mxCell id="6TS9SPNI_zXIky9GnBiD-73" value="" style="edgeStyle=orthogonalEdgeStyle;curved=1;rounded=0;orthogonalLoop=1;jettySize=auto;html=1;" edge="1" parent="1" source="6TS9SPNI_zXIky9GnBiD-71" target="6TS9SPNI_zXIky9GnBiD-72">
          <mxGeometry relative="1" as="geometry" />
        </mxCell>
        <mxCell id="6TS9SPNI_zXIky9GnBiD-71" value="遍历国家信息列表preCountryInfos" style="rhombus;whiteSpace=wrap;html=1;fillColor=#fad7ac;strokeColor=#b46504;rounded=0;" vertex="1" parent="1">
          <mxGeometry x="1340" y="4370" width="140" height="80" as="geometry" />
        </mxCell>
        <mxCell id="6TS9SPNI_zXIky9GnBiD-75" value="" style="edgeStyle=orthogonalEdgeStyle;curved=1;rounded=0;orthogonalLoop=1;jettySize=auto;html=1;" edge="1" parent="1" source="6TS9SPNI_zXIky9GnBiD-72" target="6TS9SPNI_zXIky9GnBiD-74">
          <mxGeometry relative="1" as="geometry" />
        </mxCell>
        <mxCell id="6TS9SPNI_zXIky9GnBiD-72" value="将预结算信息preJson转换为vo对象" style="whiteSpace=wrap;html=1;fillColor=#fad7ac;strokeColor=#b46504;rounded=0;" vertex="1" parent="1">
          <mxGeometry x="1350" y="4480" width="120" height="60" as="geometry" />
        </mxCell>
        <mxCell id="6TS9SPNI_zXIky9GnBiD-77" value="" style="edgeStyle=orthogonalEdgeStyle;curved=1;rounded=0;orthogonalLoop=1;jettySize=auto;html=1;" edge="1" parent="1" source="6TS9SPNI_zXIky9GnBiD-74" target="6TS9SPNI_zXIky9GnBiD-76">
          <mxGeometry relative="1" as="geometry" />
        </mxCell>
        <mxCell id="6TS9SPNI_zXIky9GnBiD-74" value="从预结算信息preJson中获取预结算详情信息，填充vo对象字段" style="whiteSpace=wrap;html=1;fillColor=#fad7ac;strokeColor=#b46504;rounded=0;" vertex="1" parent="1">
          <mxGeometry x="1350" y="4580" width="120" height="60" as="geometry" />
        </mxCell>
        <mxCell id="6TS9SPNI_zXIky9GnBiD-79" value="" style="edgeStyle=orthogonalEdgeStyle;curved=1;rounded=0;orthogonalLoop=1;jettySize=auto;html=1;" edge="1" parent="1" source="6TS9SPNI_zXIky9GnBiD-76" target="6TS9SPNI_zXIky9GnBiD-78">
          <mxGeometry relative="1" as="geometry" />
        </mxCell>
        <mxCell id="6TS9SPNI_zXIky9GnBiD-76" value="vo对象根据国家信息preCountryInfo设置国家，结算范围，时区等信息。" style="whiteSpace=wrap;html=1;fillColor=#fad7ac;strokeColor=#b46504;rounded=0;" vertex="1" parent="1">
          <mxGeometry x="1350" y="4680" width="120" height="60" as="geometry" />
        </mxCell>
        <mxCell id="6TS9SPNI_zXIky9GnBiD-81" value="" style="edgeStyle=orthogonalEdgeStyle;curved=1;rounded=0;orthogonalLoop=1;jettySize=auto;html=1;" edge="1" parent="1" source="6TS9SPNI_zXIky9GnBiD-78" target="6TS9SPNI_zXIky9GnBiD-80">
          <mxGeometry relative="1" as="geometry" />
        </mxCell>
        <mxCell id="6TS9SPNI_zXIky9GnBiD-100" style="edgeStyle=orthogonalEdgeStyle;rounded=0;orthogonalLoop=1;jettySize=auto;html=1;exitX=1;exitY=0.5;exitDx=0;exitDy=0;entryX=1;entryY=0.5;entryDx=0;entryDy=0;" edge="1" parent="1" source="6TS9SPNI_zXIky9GnBiD-78" target="6TS9SPNI_zXIky9GnBiD-71">
          <mxGeometry relative="1" as="geometry">
            <Array as="points">
              <mxPoint x="1520" y="4795" />
              <mxPoint x="1520" y="4410" />
            </Array>
          </mxGeometry>
        </mxCell>
        <mxCell id="6TS9SPNI_zXIky9GnBiD-78" value="将vo对象添加到result列表中" style="whiteSpace=wrap;html=1;fillColor=#fad7ac;strokeColor=#b46504;rounded=0;" vertex="1" parent="1">
          <mxGeometry x="1350" y="4770" width="120" height="50" as="geometry" />
        </mxCell>
        <mxCell id="6TS9SPNI_zXIky9GnBiD-83" value="" style="edgeStyle=orthogonalEdgeStyle;curved=1;rounded=0;orthogonalLoop=1;jettySize=auto;html=1;" edge="1" parent="1" source="6TS9SPNI_zXIky9GnBiD-80" target="6TS9SPNI_zXIky9GnBiD-82">
          <mxGeometry relative="1" as="geometry" />
        </mxCell>
        <mxCell id="6TS9SPNI_zXIky9GnBiD-84" value="是" style="edgeLabel;html=1;align=center;verticalAlign=middle;resizable=0;points=[];" vertex="1" connectable="0" parent="6TS9SPNI_zXIky9GnBiD-83">
          <mxGeometry x="0.0444" relative="1" as="geometry">
            <mxPoint as="offset" />
          </mxGeometry>
        </mxCell>
        <mxCell id="6TS9SPNI_zXIky9GnBiD-96" style="edgeStyle=orthogonalEdgeStyle;rounded=0;orthogonalLoop=1;jettySize=auto;html=1;exitX=1;exitY=0.5;exitDx=0;exitDy=0;entryX=1;entryY=0.5;entryDx=0;entryDy=0;" edge="1" parent="1" source="6TS9SPNI_zXIky9GnBiD-80" target="6TS9SPNI_zXIky9GnBiD-94">
          <mxGeometry relative="1" as="geometry">
            <Array as="points">
              <mxPoint x="1550" y="4890" />
              <mxPoint x="1550" y="5365" />
            </Array>
          </mxGeometry>
        </mxCell>
        <mxCell id="6TS9SPNI_zXIky9GnBiD-97" value="否" style="edgeLabel;html=1;align=center;verticalAlign=middle;resizable=0;points=[];" vertex="1" connectable="0" parent="6TS9SPNI_zXIky9GnBiD-96">
          <mxGeometry x="-0.8946" y="1" relative="1" as="geometry">
            <mxPoint as="offset" />
          </mxGeometry>
        </mxCell>
        <mxCell id="6TS9SPNI_zXIky9GnBiD-80" value="判断结果列表result是否为空" style="rhombus;whiteSpace=wrap;html=1;fillColor=#fad7ac;strokeColor=#b46504;rounded=0;" vertex="1" parent="1">
          <mxGeometry x="1355" y="4850" width="110" height="80" as="geometry" />
        </mxCell>
        <mxCell id="6TS9SPNI_zXIky9GnBiD-86" value="" style="edgeStyle=orthogonalEdgeStyle;curved=1;rounded=0;orthogonalLoop=1;jettySize=auto;html=1;" edge="1" parent="1" source="6TS9SPNI_zXIky9GnBiD-82" target="6TS9SPNI_zXIky9GnBiD-85">
          <mxGeometry relative="1" as="geometry" />
        </mxCell>
        <mxCell id="6TS9SPNI_zXIky9GnBiD-82" value="将预结算信息preJson转换为vo对象" style="whiteSpace=wrap;html=1;fillColor=#fad7ac;strokeColor=#b46504;rounded=0;" vertex="1" parent="1">
          <mxGeometry x="1350" y="4970" width="120" height="60" as="geometry" />
        </mxCell>
        <mxCell id="6TS9SPNI_zXIky9GnBiD-88" value="" style="edgeStyle=orthogonalEdgeStyle;curved=1;rounded=0;orthogonalLoop=1;jettySize=auto;html=1;" edge="1" parent="1" source="6TS9SPNI_zXIky9GnBiD-85" target="6TS9SPNI_zXIky9GnBiD-87">
          <mxGeometry relative="1" as="geometry" />
        </mxCell>
        <mxCell id="6TS9SPNI_zXIky9GnBiD-89" value="是" style="edgeLabel;html=1;align=center;verticalAlign=middle;resizable=0;points=[];" vertex="1" connectable="0" parent="6TS9SPNI_zXIky9GnBiD-88">
          <mxGeometry x="-0.1333" y="1" relative="1" as="geometry">
            <mxPoint as="offset" />
          </mxGeometry>
        </mxCell>
        <mxCell id="6TS9SPNI_zXIky9GnBiD-92" style="edgeStyle=orthogonalEdgeStyle;rounded=0;orthogonalLoop=1;jettySize=auto;html=1;exitX=1;exitY=0.5;exitDx=0;exitDy=0;entryX=1;entryY=0.5;entryDx=0;entryDy=0;" edge="1" parent="1" source="6TS9SPNI_zXIky9GnBiD-85" target="6TS9SPNI_zXIky9GnBiD-90">
          <mxGeometry relative="1" as="geometry">
            <Array as="points">
              <mxPoint x="1520" y="5110" />
              <mxPoint x="1520" y="5300" />
            </Array>
          </mxGeometry>
        </mxCell>
        <mxCell id="6TS9SPNI_zXIky9GnBiD-93" value="否" style="edgeLabel;html=1;align=center;verticalAlign=middle;resizable=0;points=[];" vertex="1" connectable="0" parent="6TS9SPNI_zXIky9GnBiD-92">
          <mxGeometry x="-0.8712" relative="1" as="geometry">
            <mxPoint as="offset" />
          </mxGeometry>
        </mxCell>
        <mxCell id="6TS9SPNI_zXIky9GnBiD-85" value="判断预结算信息preJson中是否包含预结算详情信息" style="rhombus;whiteSpace=wrap;html=1;fillColor=#fad7ac;strokeColor=#b46504;rounded=0;" vertex="1" parent="1">
          <mxGeometry x="1350" y="5070" width="120" height="80" as="geometry" />
        </mxCell>
        <mxCell id="6TS9SPNI_zXIky9GnBiD-91" value="" style="edgeStyle=orthogonalEdgeStyle;curved=1;rounded=0;orthogonalLoop=1;jettySize=auto;html=1;" edge="1" parent="1" source="6TS9SPNI_zXIky9GnBiD-87" target="6TS9SPNI_zXIky9GnBiD-90">
          <mxGeometry relative="1" as="geometry" />
        </mxCell>
        <mxCell id="6TS9SPNI_zXIky9GnBiD-87" value="获取预结算详情信息，vo对象填充详情字段，设置结算时间范围" style="whiteSpace=wrap;html=1;fillColor=#fad7ac;strokeColor=#b46504;rounded=0;" vertex="1" parent="1">
          <mxGeometry x="1350" y="5190" width="120" height="60" as="geometry" />
        </mxCell>
        <mxCell id="6TS9SPNI_zXIky9GnBiD-95" value="" style="edgeStyle=orthogonalEdgeStyle;curved=1;rounded=0;orthogonalLoop=1;jettySize=auto;html=1;" edge="1" parent="1" source="6TS9SPNI_zXIky9GnBiD-90" target="6TS9SPNI_zXIky9GnBiD-94">
          <mxGeometry relative="1" as="geometry" />
        </mxCell>
        <mxCell id="6TS9SPNI_zXIky9GnBiD-90" value="将vo对象添加到result列表中" style="whiteSpace=wrap;html=1;fillColor=#fad7ac;strokeColor=#b46504;rounded=0;" vertex="1" parent="1">
          <mxGeometry x="1355" y="5280" width="110" height="40" as="geometry" />
        </mxCell>
        <mxCell id="6TS9SPNI_zXIky9GnBiD-94" value="返回预结算vo列表result" style="whiteSpace=wrap;html=1;fillColor=#fad7ac;strokeColor=#b46504;rounded=0;" vertex="1" parent="1">
          <mxGeometry x="1355" y="5350" width="110" height="30" as="geometry" />
        </mxCell>
        <mxCell id="6TS9SPNI_zXIky9GnBiD-104" value="" style="edgeStyle=orthogonalEdgeStyle;curved=1;rounded=0;orthogonalLoop=1;jettySize=auto;html=1;" edge="1" parent="1" source="6TS9SPNI_zXIky9GnBiD-101" target="6TS9SPNI_zXIky9GnBiD-103">
          <mxGeometry relative="1" as="geometry" />
        </mxCell>
        <mxCell id="6TS9SPNI_zXIky9GnBiD-101" value="获取行数rowNum，大小为vo列表的size" style="whiteSpace=wrap;html=1;fillColor=#d5e8d4;strokeColor=#82b366;rounded=1;" vertex="1" parent="1">
          <mxGeometry x="990" y="4420" width="120" height="50" as="geometry" />
        </mxCell>
        <mxCell id="6TS9SPNI_zXIky9GnBiD-106" value="" style="edgeStyle=orthogonalEdgeStyle;curved=1;rounded=0;orthogonalLoop=1;jettySize=auto;html=1;" edge="1" parent="1" source="6TS9SPNI_zXIky9GnBiD-103" target="6TS9SPNI_zXIky9GnBiD-105">
          <mxGeometry relative="1" as="geometry" />
        </mxCell>
        <mxCell id="6TS9SPNI_zXIky9GnBiD-103" value="获取预结单" style="whiteSpace=wrap;html=1;fillColor=#d5e8d4;strokeColor=#82b366;rounded=1;" vertex="1" parent="1">
          <mxGeometry x="990" y="4500" width="120" height="30" as="geometry" />
        </mxCell>
        <mxCell id="6TS9SPNI_zXIky9GnBiD-108" value="" style="edgeStyle=orthogonalEdgeStyle;curved=1;rounded=0;orthogonalLoop=1;jettySize=auto;html=1;" edge="1" parent="1" source="6TS9SPNI_zXIky9GnBiD-105" target="6TS9SPNI_zXIky9GnBiD-107">
          <mxGeometry relative="1" as="geometry" />
        </mxCell>
        <mxCell id="6TS9SPNI_zXIky9GnBiD-109" value="是" style="edgeLabel;html=1;align=center;verticalAlign=middle;resizable=0;points=[];" vertex="1" connectable="0" parent="6TS9SPNI_zXIky9GnBiD-108">
          <mxGeometry x="-0.1556" y="-1" relative="1" as="geometry">
            <mxPoint as="offset" />
          </mxGeometry>
        </mxCell>
        <mxCell id="6TS9SPNI_zXIky9GnBiD-126" style="edgeStyle=orthogonalEdgeStyle;rounded=0;orthogonalLoop=1;jettySize=auto;html=1;exitX=1;exitY=0.5;exitDx=0;exitDy=0;entryX=1;entryY=0.5;entryDx=0;entryDy=0;" edge="1" parent="1" source="6TS9SPNI_zXIky9GnBiD-105" target="6TS9SPNI_zXIky9GnBiD-114">
          <mxGeometry relative="1" as="geometry">
            <Array as="points">
              <mxPoint x="1210" y="4600" />
              <mxPoint x="1210" y="4970" />
            </Array>
          </mxGeometry>
        </mxCell>
        <mxCell id="6TS9SPNI_zXIky9GnBiD-127" value="否" style="edgeLabel;html=1;align=center;verticalAlign=middle;resizable=0;points=[];" vertex="1" connectable="0" parent="6TS9SPNI_zXIky9GnBiD-126">
          <mxGeometry x="-0.8786" y="4" relative="1" as="geometry">
            <mxPoint y="1" as="offset" />
          </mxGeometry>
        </mxCell>
        <mxCell id="6TS9SPNI_zXIky9GnBiD-105" value="判断关系relationMap中该预结算单号是否存在" style="rhombus;whiteSpace=wrap;html=1;fillColor=#d5e8d4;strokeColor=#82b366;rounded=1;" vertex="1" parent="1">
          <mxGeometry x="980" y="4560" width="140" height="80" as="geometry" />
        </mxCell>
        <mxCell id="6TS9SPNI_zXIky9GnBiD-111" value="" style="edgeStyle=orthogonalEdgeStyle;curved=1;rounded=0;orthogonalLoop=1;jettySize=auto;html=1;" edge="1" parent="1" source="6TS9SPNI_zXIky9GnBiD-107" target="6TS9SPNI_zXIky9GnBiD-110">
          <mxGeometry relative="1" as="geometry" />
        </mxCell>
        <mxCell id="6TS9SPNI_zXIky9GnBiD-107" value="获取结算单号对应的结算确认单号列表" style="whiteSpace=wrap;html=1;fillColor=#d5e8d4;strokeColor=#82b366;rounded=1;" vertex="1" parent="1">
          <mxGeometry x="990" y="4680" width="120" height="50" as="geometry" />
        </mxCell>
        <mxCell id="6TS9SPNI_zXIky9GnBiD-113" value="" style="edgeStyle=orthogonalEdgeStyle;curved=1;rounded=0;orthogonalLoop=1;jettySize=auto;html=1;" edge="1" parent="1" source="6TS9SPNI_zXIky9GnBiD-110" target="6TS9SPNI_zXIky9GnBiD-112">
          <mxGeometry relative="1" as="geometry" />
        </mxCell>
        <mxCell id="6TS9SPNI_zXIky9GnBiD-110" value="使用符号&quot;\n\r&quot;拼接确认单号列表为confirmStr" style="whiteSpace=wrap;html=1;fillColor=#d5e8d4;strokeColor=#82b366;rounded=1;" vertex="1" parent="1">
          <mxGeometry x="990" y="4760" width="120" height="60" as="geometry" />
        </mxCell>
        <mxCell id="6TS9SPNI_zXIky9GnBiD-115" value="" style="edgeStyle=orthogonalEdgeStyle;curved=1;rounded=0;orthogonalLoop=1;jettySize=auto;html=1;" edge="1" parent="1" source="6TS9SPNI_zXIky9GnBiD-112" target="6TS9SPNI_zXIky9GnBiD-114">
          <mxGeometry relative="1" as="geometry" />
        </mxCell>
        <mxCell id="6TS9SPNI_zXIky9GnBiD-112" value="循环预结算详情vo列表，把其中每一项的结算确认单号设置为confirmStr" style="whiteSpace=wrap;html=1;fillColor=#d5e8d4;strokeColor=#82b366;rounded=1;" vertex="1" parent="1">
          <mxGeometry x="990" y="4850" width="120" height="60" as="geometry" />
        </mxCell>
        <mxCell id="6TS9SPNI_zXIky9GnBiD-117" value="" style="edgeStyle=orthogonalEdgeStyle;curved=1;rounded=0;orthogonalLoop=1;jettySize=auto;html=1;" edge="1" parent="1" source="6TS9SPNI_zXIky9GnBiD-114" target="6TS9SPNI_zXIky9GnBiD-116">
          <mxGeometry relative="1" as="geometry" />
        </mxCell>
        <mxCell id="6TS9SPNI_zXIky9GnBiD-114" value="将预结算详情列表放入预结算信息列表中preDetailExcelVos" style="whiteSpace=wrap;html=1;fillColor=#d5e8d4;strokeColor=#82b366;rounded=1;" vertex="1" parent="1">
          <mxGeometry x="990" y="4940" width="120" height="60" as="geometry" />
        </mxCell>
        <mxCell id="6TS9SPNI_zXIky9GnBiD-119" value="" style="edgeStyle=orthogonalEdgeStyle;curved=1;rounded=0;orthogonalLoop=1;jettySize=auto;html=1;" edge="1" parent="1" source="6TS9SPNI_zXIky9GnBiD-116" target="6TS9SPNI_zXIky9GnBiD-118">
          <mxGeometry relative="1" as="geometry" />
        </mxCell>
        <mxCell id="6TS9SPNI_zXIky9GnBiD-120" value="是" style="edgeLabel;html=1;align=center;verticalAlign=middle;resizable=0;points=[];" vertex="1" connectable="0" parent="6TS9SPNI_zXIky9GnBiD-119">
          <mxGeometry x="0.1333" y="1" relative="1" as="geometry">
            <mxPoint as="offset" />
          </mxGeometry>
        </mxCell>
        <mxCell id="6TS9SPNI_zXIky9GnBiD-123" style="edgeStyle=orthogonalEdgeStyle;rounded=0;orthogonalLoop=1;jettySize=auto;html=1;exitX=1;exitY=0.5;exitDx=0;exitDy=0;entryX=1;entryY=0.5;entryDx=0;entryDy=0;" edge="1" parent="1" source="6TS9SPNI_zXIky9GnBiD-116" target="6TS9SPNI_zXIky9GnBiD-121">
          <mxGeometry relative="1" as="geometry">
            <Array as="points">
              <mxPoint x="1150" y="5070" />
              <mxPoint x="1150" y="5265" />
            </Array>
          </mxGeometry>
        </mxCell>
        <mxCell id="6TS9SPNI_zXIky9GnBiD-124" value="否" style="edgeLabel;html=1;align=center;verticalAlign=middle;resizable=0;points=[];" vertex="1" connectable="0" parent="6TS9SPNI_zXIky9GnBiD-123">
          <mxGeometry x="-0.8667" relative="1" as="geometry">
            <mxPoint y="1" as="offset" />
          </mxGeometry>
        </mxCell>
        <mxCell id="6TS9SPNI_zXIky9GnBiD-116" value="判断行数rowNum是否大于1" style="rhombus;whiteSpace=wrap;html=1;fillColor=#d5e8d4;strokeColor=#82b366;rounded=1;" vertex="1" parent="1">
          <mxGeometry x="985" y="5030" width="130" height="80" as="geometry" />
        </mxCell>
        <mxCell id="6TS9SPNI_zXIky9GnBiD-122" value="" style="edgeStyle=orthogonalEdgeStyle;curved=1;rounded=0;orthogonalLoop=1;jettySize=auto;html=1;" edge="1" parent="1" source="6TS9SPNI_zXIky9GnBiD-118" target="6TS9SPNI_zXIky9GnBiD-121">
          <mxGeometry relative="1" as="geometry" />
        </mxCell>
        <mxCell id="6TS9SPNI_zXIky9GnBiD-118" value="设置预结算单合并列" style="whiteSpace=wrap;html=1;fillColor=#d5e8d4;strokeColor=#82b366;rounded=1;" vertex="1" parent="1">
          <mxGeometry x="990" y="5150" width="120" height="50" as="geometry" />
        </mxCell>
        <mxCell id="6TS9SPNI_zXIky9GnBiD-125" style="edgeStyle=orthogonalEdgeStyle;rounded=0;orthogonalLoop=1;jettySize=auto;html=1;exitX=0;exitY=0.5;exitDx=0;exitDy=0;entryX=0;entryY=0.5;entryDx=0;entryDy=0;" edge="1" parent="1" source="6TS9SPNI_zXIky9GnBiD-121" target="6TS9SPNI_zXIky9GnBiD-21">
          <mxGeometry relative="1" as="geometry">
            <mxPoint x="930" y="4260" as="targetPoint" />
            <Array as="points">
              <mxPoint x="910" y="5265" />
              <mxPoint x="910" y="4230" />
            </Array>
          </mxGeometry>
        </mxCell>
        <mxCell id="6TS9SPNI_zXIky9GnBiD-129" value="" style="edgeStyle=orthogonalEdgeStyle;curved=1;rounded=0;orthogonalLoop=1;jettySize=auto;html=1;" edge="1" parent="1" source="6TS9SPNI_zXIky9GnBiD-121" target="6TS9SPNI_zXIky9GnBiD-128">
          <mxGeometry relative="1" as="geometry" />
        </mxCell>
        <mxCell id="6TS9SPNI_zXIky9GnBiD-121" value="其实行号StartNum加上行数rowNum" style="whiteSpace=wrap;html=1;fillColor=#d5e8d4;strokeColor=#82b366;rounded=1;" vertex="1" parent="1">
          <mxGeometry x="990" y="5240" width="120" height="50" as="geometry" />
        </mxCell>
        <mxCell id="6TS9SPNI_zXIky9GnBiD-131" value="" style="edgeStyle=orthogonalEdgeStyle;curved=1;rounded=0;orthogonalLoop=1;jettySize=auto;html=1;" edge="1" parent="1" source="6TS9SPNI_zXIky9GnBiD-128" target="6TS9SPNI_zXIky9GnBiD-130">
          <mxGeometry relative="1" as="geometry" />
        </mxCell>
        <mxCell id="6TS9SPNI_zXIky9GnBiD-128" value="查询结算确认单信息dwd_mico_reconciliation_settle_sum_&lt;span style=&quot;font-family: Menlo, Monaco, Consolas, &amp;quot;Courier New&amp;quot;, monospace; text-align: justify; box-sizing: border-box; color: rgb(255, 140, 0);&quot; class=&quot;number&quot;&gt;1&lt;/span&gt;&lt;span style=&quot;background-color: rgb(255, 255, 255); color: rgb(51, 51, 51); font-family: Menlo, Monaco, Consolas, &amp;quot;Courier New&amp;quot;, monospace; text-align: justify;&quot;&gt;di&lt;/span&gt;" style="whiteSpace=wrap;html=1;fillColor=#d5e8d4;strokeColor=#82b366;rounded=1;" vertex="1" parent="1">
          <mxGeometry x="990" y="5320" width="120" height="60" as="geometry" />
        </mxCell>
        <mxCell id="6TS9SPNI_zXIky9GnBiD-133" value="" style="edgeStyle=orthogonalEdgeStyle;curved=1;rounded=0;orthogonalLoop=1;jettySize=auto;html=1;" edge="1" parent="1" source="6TS9SPNI_zXIky9GnBiD-130" target="6TS9SPNI_zXIky9GnBiD-132">
          <mxGeometry relative="1" as="geometry" />
        </mxCell>
        <mxCell id="6TS9SPNI_zXIky9GnBiD-130" value="获取确认单信息列表confirmDetailList，并将其转化为json列表confirmListObj" style="whiteSpace=wrap;html=1;fillColor=#d5e8d4;strokeColor=#82b366;rounded=1;" vertex="1" parent="1">
          <mxGeometry x="990" y="5420" width="120" height="60" as="geometry" />
        </mxCell>
        <mxCell id="6TS9SPNI_zXIky9GnBiD-135" value="" style="edgeStyle=orthogonalEdgeStyle;curved=1;rounded=0;orthogonalLoop=1;jettySize=auto;html=1;" edge="1" parent="1" source="6TS9SPNI_zXIky9GnBiD-132" target="6TS9SPNI_zXIky9GnBiD-134">
          <mxGeometry relative="1" as="geometry" />
        </mxCell>
        <mxCell id="6TS9SPNI_zXIky9GnBiD-132" value="新建合并区域集合" style="whiteSpace=wrap;html=1;fillColor=#d5e8d4;strokeColor=#82b366;rounded=1;" vertex="1" parent="1">
          <mxGeometry x="990" y="5510" width="120" height="40" as="geometry" />
        </mxCell>
        <mxCell id="6TS9SPNI_zXIky9GnBiD-137" value="" style="edgeStyle=orthogonalEdgeStyle;curved=1;rounded=0;orthogonalLoop=1;jettySize=auto;html=1;" edge="1" parent="1" source="6TS9SPNI_zXIky9GnBiD-134" target="6TS9SPNI_zXIky9GnBiD-136">
          <mxGeometry relative="1" as="geometry" />
        </mxCell>
        <mxCell id="6TS9SPNI_zXIky9GnBiD-134" value="判断结算确认单列表confirmDetailList是否为空" style="rhombus;whiteSpace=wrap;html=1;fillColor=#d5e8d4;strokeColor=#82b366;rounded=1;" vertex="1" parent="1">
          <mxGeometry x="985" y="5590" width="130" height="80" as="geometry" />
        </mxCell>
        <mxCell id="6TS9SPNI_zXIky9GnBiD-141" value="" style="edgeStyle=orthogonalEdgeStyle;curved=1;rounded=0;orthogonalLoop=1;jettySize=auto;html=1;" edge="1" parent="1" source="6TS9SPNI_zXIky9GnBiD-136" target="6TS9SPNI_zXIky9GnBiD-140">
          <mxGeometry relative="1" as="geometry" />
        </mxCell>
        <mxCell id="6TS9SPNI_zXIky9GnBiD-136" value="结算确认单json列表按照结算确认单号分组" style="whiteSpace=wrap;html=1;fillColor=#d5e8d4;strokeColor=#82b366;rounded=1;" vertex="1" parent="1">
          <mxGeometry x="990" y="5700" width="120" height="60" as="geometry" />
        </mxCell>
        <mxCell id="6TS9SPNI_zXIky9GnBiD-143" value="" style="edgeStyle=orthogonalEdgeStyle;curved=1;rounded=0;orthogonalLoop=1;jettySize=auto;html=1;" edge="1" parent="1" source="6TS9SPNI_zXIky9GnBiD-140" target="6TS9SPNI_zXIky9GnBiD-142">
          <mxGeometry relative="1" as="geometry" />
        </mxCell>
        <mxCell id="6TS9SPNI_zXIky9GnBiD-140" value="遍历分组后的map，（confirmNo, confirmExs）" style="rhombus;whiteSpace=wrap;html=1;fillColor=#d5e8d4;strokeColor=#82b366;rounded=1;" vertex="1" parent="1">
          <mxGeometry x="980" y="5790" width="140" height="80" as="geometry" />
        </mxCell>
        <mxCell id="6TS9SPNI_zXIky9GnBiD-147" value="" style="edgeStyle=orthogonalEdgeStyle;curved=1;rounded=0;orthogonalLoop=1;jettySize=auto;html=1;" edge="1" parent="1" source="6TS9SPNI_zXIky9GnBiD-142" target="6TS9SPNI_zXIky9GnBiD-146">
          <mxGeometry relative="1" as="geometry" />
        </mxCell>
        <mxCell id="6TS9SPNI_zXIky9GnBiD-142" value="获取行数，确认单对应的确认单信息列表confirmExs大小" style="whiteSpace=wrap;html=1;fillColor=#d5e8d4;strokeColor=#82b366;rounded=1;" vertex="1" parent="1">
          <mxGeometry x="990" y="5910" width="120" height="60" as="geometry" />
        </mxCell>
        <mxCell id="6TS9SPNI_zXIky9GnBiD-149" value="" style="edgeStyle=orthogonalEdgeStyle;curved=1;rounded=0;orthogonalLoop=1;jettySize=auto;html=1;" edge="1" parent="1" source="6TS9SPNI_zXIky9GnBiD-146" target="6TS9SPNI_zXIky9GnBiD-148">
          <mxGeometry relative="1" as="geometry" />
        </mxCell>
        <mxCell id="6TS9SPNI_zXIky9GnBiD-146" value="遍历确认单信息列表confirmExs" style="rhombus;whiteSpace=wrap;html=1;fillColor=#d5e8d4;strokeColor=#82b366;rounded=1;" vertex="1" parent="1">
          <mxGeometry x="980" y="6000" width="140" height="80" as="geometry" />
        </mxCell>
        <mxCell id="6TS9SPNI_zXIky9GnBiD-150" style="edgeStyle=orthogonalEdgeStyle;curved=1;rounded=0;orthogonalLoop=1;jettySize=auto;html=1;exitX=1;exitY=0.5;exitDx=0;exitDy=0;" edge="1" parent="1" source="6TS9SPNI_zXIky9GnBiD-148">
          <mxGeometry relative="1" as="geometry">
            <mxPoint x="1240" y="6140" as="targetPoint" />
          </mxGeometry>
        </mxCell>
        <mxCell id="6TS9SPNI_zXIky9GnBiD-168" value="" style="edgeStyle=orthogonalEdgeStyle;curved=1;rounded=0;orthogonalLoop=1;jettySize=auto;html=1;" edge="1" parent="1" source="6TS9SPNI_zXIky9GnBiD-148" target="6TS9SPNI_zXIky9GnBiD-167">
          <mxGeometry relative="1" as="geometry" />
        </mxCell>
        <mxCell id="6TS9SPNI_zXIky9GnBiD-148" value="将其转化为结算确认单对象，并填充信息" style="whiteSpace=wrap;html=1;fillColor=#d5e8d4;strokeColor=#82b366;rounded=1;" vertex="1" parent="1">
          <mxGeometry x="990" y="6110" width="120" height="60" as="geometry" />
        </mxCell>
        <mxCell id="6TS9SPNI_zXIky9GnBiD-154" value="" style="edgeStyle=orthogonalEdgeStyle;curved=1;rounded=0;orthogonalLoop=1;jettySize=auto;html=1;" edge="1" parent="1" source="6TS9SPNI_zXIky9GnBiD-152">
          <mxGeometry relative="1" as="geometry">
            <mxPoint x="1370" y="6070" as="targetPoint" />
          </mxGeometry>
        </mxCell>
        <mxCell id="6TS9SPNI_zXIky9GnBiD-155" value="否" style="edgeLabel;html=1;align=center;verticalAlign=middle;resizable=0;points=[];" vertex="1" connectable="0" parent="6TS9SPNI_zXIky9GnBiD-154">
          <mxGeometry x="-0.3" y="-1" relative="1" as="geometry">
            <mxPoint as="offset" />
          </mxGeometry>
        </mxCell>
        <mxCell id="6TS9SPNI_zXIky9GnBiD-157" value="" style="edgeStyle=orthogonalEdgeStyle;curved=1;rounded=0;orthogonalLoop=1;jettySize=auto;html=1;" edge="1" parent="1" source="6TS9SPNI_zXIky9GnBiD-152" target="6TS9SPNI_zXIky9GnBiD-156">
          <mxGeometry relative="1" as="geometry" />
        </mxCell>
        <mxCell id="6TS9SPNI_zXIky9GnBiD-158" value="是" style="edgeLabel;html=1;align=center;verticalAlign=middle;resizable=0;points=[];" vertex="1" connectable="0" parent="6TS9SPNI_zXIky9GnBiD-157">
          <mxGeometry x="-0.3" y="1" relative="1" as="geometry">
            <mxPoint as="offset" />
          </mxGeometry>
        </mxCell>
        <mxCell id="6TS9SPNI_zXIky9GnBiD-152" value="判断汇率是否为空" style="rhombus;whiteSpace=wrap;html=1;fillColor=#fad7ac;strokeColor=#b46504;" vertex="1" parent="1">
          <mxGeometry x="1310" y="5950" width="120" height="80" as="geometry" />
        </mxCell>
        <mxCell id="6TS9SPNI_zXIky9GnBiD-156" value="设置汇率描述为空" style="whiteSpace=wrap;html=1;fillColor=#fad7ac;strokeColor=#b46504;" vertex="1" parent="1">
          <mxGeometry x="1510" y="5960" width="120" height="60" as="geometry" />
        </mxCell>
        <mxCell id="6TS9SPNI_zXIky9GnBiD-161" value="" style="edgeStyle=orthogonalEdgeStyle;curved=1;rounded=0;orthogonalLoop=1;jettySize=auto;html=1;" edge="1" parent="1" source="6TS9SPNI_zXIky9GnBiD-159" target="6TS9SPNI_zXIky9GnBiD-160">
          <mxGeometry relative="1" as="geometry" />
        </mxCell>
        <mxCell id="6TS9SPNI_zXIky9GnBiD-162" value="是" style="edgeLabel;html=1;align=center;verticalAlign=middle;resizable=0;points=[];" vertex="1" connectable="0" parent="6TS9SPNI_zXIky9GnBiD-161">
          <mxGeometry x="-0.325" y="3" relative="1" as="geometry">
            <mxPoint y="1" as="offset" />
          </mxGeometry>
        </mxCell>
        <mxCell id="6TS9SPNI_zXIky9GnBiD-166" value="" style="edgeStyle=orthogonalEdgeStyle;curved=1;rounded=0;orthogonalLoop=1;jettySize=auto;html=1;" edge="1" parent="1" source="6TS9SPNI_zXIky9GnBiD-159" target="6TS9SPNI_zXIky9GnBiD-165">
          <mxGeometry relative="1" as="geometry" />
        </mxCell>
        <mxCell id="6TS9SPNI_zXIky9GnBiD-159" value="判断汇率生效时间是否为空或者汇率是否为1" style="rhombus;whiteSpace=wrap;html=1;fillColor=#fad7ac;strokeColor=#b46504;" vertex="1" parent="1">
          <mxGeometry x="1310" y="6070" width="120" height="80" as="geometry" />
        </mxCell>
        <mxCell id="6TS9SPNI_zXIky9GnBiD-160" value="设置汇率描述为汇率" style="whiteSpace=wrap;html=1;fillColor=#fad7ac;strokeColor=#b46504;" vertex="1" parent="1">
          <mxGeometry x="1510" y="6080" width="120" height="60" as="geometry" />
        </mxCell>
        <mxCell id="6TS9SPNI_zXIky9GnBiD-165" value="汇率描述设置为汇率+&quot;\r\n&quot; + 汇率生效时间 + &quot;(UTC)&quot;" style="whiteSpace=wrap;html=1;fillColor=#fad7ac;strokeColor=#b46504;" vertex="1" parent="1">
          <mxGeometry x="1310" y="6200" width="120" height="60" as="geometry" />
        </mxCell>
        <mxCell id="6TS9SPNI_zXIky9GnBiD-169" style="edgeStyle=orthogonalEdgeStyle;rounded=0;orthogonalLoop=1;jettySize=auto;html=1;exitX=0;exitY=0.5;exitDx=0;exitDy=0;entryX=0;entryY=0.5;entryDx=0;entryDy=0;" edge="1" parent="1" source="6TS9SPNI_zXIky9GnBiD-167" target="6TS9SPNI_zXIky9GnBiD-146">
          <mxGeometry relative="1" as="geometry">
            <mxPoint x="950" y="6070" as="targetPoint" />
            <Array as="points">
              <mxPoint x="950" y="6260" />
              <mxPoint x="950" y="6040" />
            </Array>
          </mxGeometry>
        </mxCell>
        <mxCell id="6TS9SPNI_zXIky9GnBiD-171" value="" style="edgeStyle=orthogonalEdgeStyle;curved=1;rounded=0;orthogonalLoop=1;jettySize=auto;html=1;" edge="1" parent="1" source="6TS9SPNI_zXIky9GnBiD-167" target="6TS9SPNI_zXIky9GnBiD-170">
          <mxGeometry relative="1" as="geometry" />
        </mxCell>
        <mxCell id="6TS9SPNI_zXIky9GnBiD-167" value="将结算确认单信息对象放入结算确认单列表result中" style="whiteSpace=wrap;html=1;fillColor=#d5e8d4;strokeColor=#82b366;rounded=1;" vertex="1" parent="1">
          <mxGeometry x="990" y="6230" width="120" height="60" as="geometry" />
        </mxCell>
        <mxCell id="6TS9SPNI_zXIky9GnBiD-174" value="" style="edgeStyle=orthogonalEdgeStyle;curved=1;rounded=0;orthogonalLoop=1;jettySize=auto;html=1;" edge="1" parent="1" source="6TS9SPNI_zXIky9GnBiD-170" target="6TS9SPNI_zXIky9GnBiD-173">
          <mxGeometry relative="1" as="geometry" />
        </mxCell>
        <mxCell id="6TS9SPNI_zXIky9GnBiD-170" value="生成合并集合列表" style="whiteSpace=wrap;html=1;fillColor=#d5e8d4;strokeColor=#82b366;rounded=1;" vertex="1" parent="1">
          <mxGeometry x="990" y="6330" width="120" height="40" as="geometry" />
        </mxCell>
        <mxCell id="6TS9SPNI_zXIky9GnBiD-175" style="edgeStyle=orthogonalEdgeStyle;rounded=0;orthogonalLoop=1;jettySize=auto;html=1;exitX=0;exitY=0.5;exitDx=0;exitDy=0;entryX=0;entryY=0.5;entryDx=0;entryDy=0;" edge="1" parent="1" source="6TS9SPNI_zXIky9GnBiD-173" target="6TS9SPNI_zXIky9GnBiD-140">
          <mxGeometry relative="1" as="geometry">
            <mxPoint x="880" y="6000" as="targetPoint" />
            <Array as="points">
              <mxPoint x="920" y="6440" />
              <mxPoint x="920" y="5830" />
            </Array>
          </mxGeometry>
        </mxCell>
        <mxCell id="6TS9SPNI_zXIky9GnBiD-177" value="" style="edgeStyle=orthogonalEdgeStyle;curved=1;rounded=0;orthogonalLoop=1;jettySize=auto;html=1;" edge="1" parent="1" source="6TS9SPNI_zXIky9GnBiD-173" target="6TS9SPNI_zXIky9GnBiD-176">
          <mxGeometry relative="1" as="geometry" />
        </mxCell>
        <mxCell id="6TS9SPNI_zXIky9GnBiD-173" value="起始行加上行数" style="whiteSpace=wrap;html=1;fillColor=#d5e8d4;strokeColor=#82b366;rounded=1;" vertex="1" parent="1">
          <mxGeometry x="990" y="6420" width="120" height="40" as="geometry" />
        </mxCell>
        <mxCell id="6TS9SPNI_zXIky9GnBiD-179" value="" style="edgeStyle=orthogonalEdgeStyle;curved=1;rounded=0;orthogonalLoop=1;jettySize=auto;html=1;" edge="1" parent="1" source="6TS9SPNI_zXIky9GnBiD-176" target="6TS9SPNI_zXIky9GnBiD-178">
          <mxGeometry relative="1" as="geometry" />
        </mxCell>
        <mxCell id="6TS9SPNI_zXIky9GnBiD-176" value="excel写入预结算单列表和确认单列表" style="whiteSpace=wrap;html=1;fillColor=#d5e8d4;strokeColor=#82b366;rounded=1;" vertex="1" parent="1">
          <mxGeometry x="990" y="6510" width="120" height="60" as="geometry" />
        </mxCell>
        <mxCell id="6TS9SPNI_zXIky9GnBiD-181" value="" style="edgeStyle=orthogonalEdgeStyle;curved=1;rounded=0;orthogonalLoop=1;jettySize=auto;html=1;" edge="1" parent="1" source="6TS9SPNI_zXIky9GnBiD-178" target="6TS9SPNI_zXIky9GnBiD-180">
          <mxGeometry relative="1" as="geometry" />
        </mxCell>
        <mxCell id="6TS9SPNI_zXIky9GnBiD-178" value="获取商户号，有老商户号则用老的，否则用新的" style="whiteSpace=wrap;html=1;fillColor=#d5e8d4;strokeColor=#82b366;rounded=1;" vertex="1" parent="1">
          <mxGeometry x="990" y="6620" width="120" height="50" as="geometry" />
        </mxCell>
        <mxCell id="6TS9SPNI_zXIky9GnBiD-182" style="edgeStyle=orthogonalEdgeStyle;rounded=0;orthogonalLoop=1;jettySize=auto;html=1;exitX=0;exitY=0.5;exitDx=0;exitDy=0;entryX=0;entryY=0.5;entryDx=0;entryDy=0;" edge="1" parent="1" source="6TS9SPNI_zXIky9GnBiD-180" target="tF9eq-TAVwMk88sSngUh-61">
          <mxGeometry relative="1" as="geometry">
            <mxPoint x="800" y="1030" as="targetPoint" />
            <Array as="points">
              <mxPoint x="780" y="6735" />
              <mxPoint x="780" y="945" />
            </Array>
          </mxGeometry>
        </mxCell>
        <mxCell id="6TS9SPNI_zXIky9GnBiD-184" value="" style="edgeStyle=orthogonalEdgeStyle;curved=1;rounded=0;orthogonalLoop=1;jettySize=auto;html=1;" edge="1" parent="1" source="6TS9SPNI_zXIky9GnBiD-180" target="6TS9SPNI_zXIky9GnBiD-183">
          <mxGeometry relative="1" as="geometry" />
        </mxCell>
        <mxCell id="6TS9SPNI_zXIky9GnBiD-180" value="每个商户的文件生成一个zip包" style="whiteSpace=wrap;html=1;fillColor=#d5e8d4;strokeColor=#82b366;rounded=1;" vertex="1" parent="1">
          <mxGeometry x="990" y="6710" width="120" height="50" as="geometry" />
        </mxCell>
        <mxCell id="6TS9SPNI_zXIky9GnBiD-190" value="" style="edgeStyle=orthogonalEdgeStyle;curved=1;rounded=0;orthogonalLoop=1;jettySize=auto;html=1;" edge="1" parent="1" source="6TS9SPNI_zXIky9GnBiD-183" target="6TS9SPNI_zXIky9GnBiD-189">
          <mxGeometry relative="1" as="geometry" />
        </mxCell>
        <mxCell id="6TS9SPNI_zXIky9GnBiD-183" value="会员中所有商户处理完后，生成zip打包路径，将源文件打包后放在zip路径中，随后删除源文件" style="whiteSpace=wrap;html=1;fillColor=#d5e8d4;strokeColor=#82b366;rounded=1;" vertex="1" parent="1">
          <mxGeometry x="990" y="6800" width="120" height="80" as="geometry" />
        </mxCell>
        <mxCell id="6TS9SPNI_zXIky9GnBiD-191" style="edgeStyle=orthogonalEdgeStyle;curved=1;rounded=0;orthogonalLoop=1;jettySize=auto;html=1;exitX=1;exitY=0.5;exitDx=0;exitDy=0;" edge="1" parent="1" source="6TS9SPNI_zXIky9GnBiD-189">
          <mxGeometry relative="1" as="geometry">
            <mxPoint x="1220" y="6950" as="targetPoint" />
          </mxGeometry>
        </mxCell>
        <mxCell id="6TS9SPNI_zXIky9GnBiD-189" value="保存并发送邮件" style="whiteSpace=wrap;html=1;fillColor=#d5e8d4;strokeColor=#82b366;rounded=1;" vertex="1" parent="1">
          <mxGeometry x="990" y="6930" width="120" height="40" as="geometry" />
        </mxCell>
        <mxCell id="6TS9SPNI_zXIky9GnBiD-194" value="" style="edgeStyle=orthogonalEdgeStyle;curved=1;rounded=0;orthogonalLoop=1;jettySize=auto;html=1;" edge="1" parent="1" source="6TS9SPNI_zXIky9GnBiD-192" target="6TS9SPNI_zXIky9GnBiD-193">
          <mxGeometry relative="1" as="geometry" />
        </mxCell>
        <mxCell id="6TS9SPNI_zXIky9GnBiD-192" value="生成账单日期，文件上传路径" style="rounded=0;whiteSpace=wrap;html=1;fillColor=#fad7ac;strokeColor=#b46504;" vertex="1" parent="1">
          <mxGeometry x="1290" y="6770" width="120" height="50" as="geometry" />
        </mxCell>
        <mxCell id="6TS9SPNI_zXIky9GnBiD-196" value="" style="edgeStyle=orthogonalEdgeStyle;curved=1;rounded=0;orthogonalLoop=1;jettySize=auto;html=1;" edge="1" parent="1" source="6TS9SPNI_zXIky9GnBiD-193" target="6TS9SPNI_zXIky9GnBiD-195">
          <mxGeometry relative="1" as="geometry" />
        </mxCell>
        <mxCell id="6TS9SPNI_zXIky9GnBiD-193" value="构建文件上传信息对象，默认设置为老商户类型" style="whiteSpace=wrap;html=1;fillColor=#fad7ac;strokeColor=#b46504;rounded=0;" vertex="1" parent="1">
          <mxGeometry x="1290" y="6860" width="120" height="50" as="geometry" />
        </mxCell>
        <mxCell id="6TS9SPNI_zXIky9GnBiD-198" value="" style="edgeStyle=orthogonalEdgeStyle;curved=1;rounded=0;orthogonalLoop=1;jettySize=auto;html=1;" edge="1" parent="1" source="6TS9SPNI_zXIky9GnBiD-195" target="6TS9SPNI_zXIky9GnBiD-197">
          <mxGeometry relative="1" as="geometry" />
        </mxCell>
        <mxCell id="6TS9SPNI_zXIky9GnBiD-201" style="edgeStyle=orthogonalEdgeStyle;curved=1;rounded=0;orthogonalLoop=1;jettySize=auto;html=1;exitX=1;exitY=0.5;exitDx=0;exitDy=0;" edge="1" parent="1" source="6TS9SPNI_zXIky9GnBiD-195">
          <mxGeometry relative="1" as="geometry">
            <mxPoint x="1550" y="6985" as="targetPoint" />
          </mxGeometry>
        </mxCell>
        <mxCell id="6TS9SPNI_zXIky9GnBiD-195" value="插入或更新文件信息对象" style="whiteSpace=wrap;html=1;fillColor=#fad7ac;strokeColor=#b46504;rounded=0;" vertex="1" parent="1">
          <mxGeometry x="1290" y="6960" width="120" height="50" as="geometry" />
        </mxCell>
        <mxCell id="6TS9SPNI_zXIky9GnBiD-200" value="" style="edgeStyle=orthogonalEdgeStyle;curved=1;rounded=0;orthogonalLoop=1;jettySize=auto;html=1;" edge="1" parent="1" source="6TS9SPNI_zXIky9GnBiD-197" target="6TS9SPNI_zXIky9GnBiD-199">
          <mxGeometry relative="1" as="geometry" />
        </mxCell>
        <mxCell id="6TS9SPNI_zXIky9GnBiD-197" value="上传S3" style="whiteSpace=wrap;html=1;fillColor=#fad7ac;strokeColor=#b46504;rounded=0;" vertex="1" parent="1">
          <mxGeometry x="1295" y="7040" width="110" height="40" as="geometry" />
        </mxCell>
        <mxCell id="6TS9SPNI_zXIky9GnBiD-199" value="发送邮件" style="whiteSpace=wrap;html=1;fillColor=#fad7ac;strokeColor=#b46504;rounded=0;" vertex="1" parent="1">
          <mxGeometry x="1290" y="7120" width="120" height="40" as="geometry" />
        </mxCell>
        <mxCell id="6TS9SPNI_zXIky9GnBiD-204" value="" style="edgeStyle=orthogonalEdgeStyle;curved=1;rounded=0;orthogonalLoop=1;jettySize=auto;html=1;" edge="1" parent="1" source="6TS9SPNI_zXIky9GnBiD-202" target="6TS9SPNI_zXIky9GnBiD-203">
          <mxGeometry relative="1" as="geometry" />
        </mxCell>
        <mxCell id="6TS9SPNI_zXIky9GnBiD-202" value="根据商户号，传输类型，账单日期，账单类型，会员号在表‘tb_file_info&lt;span style=&quot;background-color: initial;&quot;&gt;’中查找文件记录信息&lt;/span&gt;" style="rounded=0;whiteSpace=wrap;html=1;fillColor=#b0e3e6;strokeColor=#0e8088;" vertex="1" parent="1">
          <mxGeometry x="1650" y="6710" width="140" height="70" as="geometry" />
        </mxCell>
        <mxCell id="6TS9SPNI_zXIky9GnBiD-206" value="" style="edgeStyle=orthogonalEdgeStyle;curved=1;rounded=0;orthogonalLoop=1;jettySize=auto;html=1;" edge="1" parent="1" source="6TS9SPNI_zXIky9GnBiD-203" target="6TS9SPNI_zXIky9GnBiD-205">
          <mxGeometry relative="1" as="geometry" />
        </mxCell>
        <mxCell id="6TS9SPNI_zXIky9GnBiD-207" value="否" style="edgeLabel;html=1;align=center;verticalAlign=middle;resizable=0;points=[];" vertex="1" connectable="0" parent="6TS9SPNI_zXIky9GnBiD-206">
          <mxGeometry x="-0.075" y="-1" relative="1" as="geometry">
            <mxPoint y="1" as="offset" />
          </mxGeometry>
        </mxCell>
        <mxCell id="6TS9SPNI_zXIky9GnBiD-209" value="" style="edgeStyle=orthogonalEdgeStyle;curved=1;rounded=0;orthogonalLoop=1;jettySize=auto;html=1;" edge="1" parent="1" source="6TS9SPNI_zXIky9GnBiD-203" target="6TS9SPNI_zXIky9GnBiD-208">
          <mxGeometry relative="1" as="geometry" />
        </mxCell>
        <mxCell id="6TS9SPNI_zXIky9GnBiD-210" value="是" style="edgeLabel;html=1;align=center;verticalAlign=middle;resizable=0;points=[];" vertex="1" connectable="0" parent="6TS9SPNI_zXIky9GnBiD-209">
          <mxGeometry x="-0.1778" y="-1" relative="1" as="geometry">
            <mxPoint as="offset" />
          </mxGeometry>
        </mxCell>
        <mxCell id="6TS9SPNI_zXIky9GnBiD-203" value="文件记录信息是否为空" style="rhombus;whiteSpace=wrap;html=1;fillColor=#b0e3e6;strokeColor=#0e8088;rounded=0;" vertex="1" parent="1">
          <mxGeometry x="1660" y="6820" width="120" height="80" as="geometry" />
        </mxCell>
        <mxCell id="6TS9SPNI_zXIky9GnBiD-205" value="更新文件信息，返回s3上传桶路径" style="whiteSpace=wrap;html=1;fillColor=#b0e3e6;strokeColor=#0e8088;rounded=0;" vertex="1" parent="1">
          <mxGeometry x="1860" y="6830" width="120" height="60" as="geometry" />
        </mxCell>
        <mxCell id="6TS9SPNI_zXIky9GnBiD-213" value="" style="edgeStyle=orthogonalEdgeStyle;curved=1;rounded=0;orthogonalLoop=1;jettySize=auto;html=1;" edge="1" parent="1" source="6TS9SPNI_zXIky9GnBiD-208" target="6TS9SPNI_zXIky9GnBiD-212">
          <mxGeometry relative="1" as="geometry" />
        </mxCell>
        <mxCell id="6TS9SPNI_zXIky9GnBiD-208" value="根据商户号查询商户基本信息" style="whiteSpace=wrap;html=1;fillColor=#b0e3e6;strokeColor=#0e8088;rounded=0;" vertex="1" parent="1">
          <mxGeometry x="1660" y="6950" width="120" height="60" as="geometry" />
        </mxCell>
        <mxCell id="6TS9SPNI_zXIky9GnBiD-214" style="edgeStyle=orthogonalEdgeStyle;curved=1;rounded=0;orthogonalLoop=1;jettySize=auto;html=1;exitX=1;exitY=0.5;exitDx=0;exitDy=0;" edge="1" parent="1" source="6TS9SPNI_zXIky9GnBiD-212">
          <mxGeometry relative="1" as="geometry">
            <mxPoint x="1860" y="7080" as="targetPoint" />
          </mxGeometry>
        </mxCell>
        <mxCell id="6TS9SPNI_zXIky9GnBiD-215" value="否" style="edgeLabel;html=1;align=center;verticalAlign=middle;resizable=0;points=[];" vertex="1" connectable="0" parent="6TS9SPNI_zXIky9GnBiD-214">
          <mxGeometry x="-0.2" relative="1" as="geometry">
            <mxPoint y="1" as="offset" />
          </mxGeometry>
        </mxCell>
        <mxCell id="6TS9SPNI_zXIky9GnBiD-218" value="" style="edgeStyle=orthogonalEdgeStyle;curved=1;rounded=0;orthogonalLoop=1;jettySize=auto;html=1;" edge="1" parent="1" source="6TS9SPNI_zXIky9GnBiD-212" target="6TS9SPNI_zXIky9GnBiD-217">
          <mxGeometry relative="1" as="geometry" />
        </mxCell>
        <mxCell id="6TS9SPNI_zXIky9GnBiD-212" value="商户基本信息为空或者商户没有使用新架构" style="rhombus;whiteSpace=wrap;html=1;fillColor=#b0e3e6;strokeColor=#0e8088;rounded=0;" vertex="1" parent="1">
          <mxGeometry x="1650" y="7040" width="140" height="80" as="geometry" />
        </mxCell>
        <mxCell id="6TS9SPNI_zXIky9GnBiD-216" value="文件信息商户类型设置为新商户" style="rounded=0;whiteSpace=wrap;html=1;fillColor=#b0e3e6;strokeColor=#0e8088;" vertex="1" parent="1">
          <mxGeometry x="1860" y="7050" width="120" height="60" as="geometry" />
        </mxCell>
        <mxCell id="6TS9SPNI_zXIky9GnBiD-220" value="" style="edgeStyle=orthogonalEdgeStyle;curved=1;rounded=0;orthogonalLoop=1;jettySize=auto;html=1;" edge="1" parent="1" source="6TS9SPNI_zXIky9GnBiD-217" target="6TS9SPNI_zXIky9GnBiD-219">
          <mxGeometry relative="1" as="geometry" />
        </mxCell>
        <mxCell id="6TS9SPNI_zXIky9GnBiD-217" value="文件信息商户类型设置为老商户" style="whiteSpace=wrap;html=1;fillColor=#b0e3e6;strokeColor=#0e8088;rounded=0;" vertex="1" parent="1">
          <mxGeometry x="1660" y="7170" width="120" height="40" as="geometry" />
        </mxCell>
        <mxCell id="6TS9SPNI_zXIky9GnBiD-219" value="保存文件信息，返回S3桶路径" style="whiteSpace=wrap;html=1;fillColor=#b0e3e6;strokeColor=#0e8088;rounded=0;" vertex="1" parent="1">
          <mxGeometry x="1660" y="7250" width="120" height="50" as="geometry" />
        </mxCell>
        <mxCell id="6TS9SPNI_zXIky9GnBiD-224" value="" style="group" vertex="1" connectable="0" parent="1">
          <mxGeometry x="2170" y="170" width="120" height="170" as="geometry" />
        </mxCell>
        <mxCell id="6TS9SPNI_zXIky9GnBiD-225" style="edgeStyle=orthogonalEdgeStyle;curved=1;rounded=0;orthogonalLoop=1;jettySize=auto;html=1;exitX=0;exitY=0.5;exitDx=0;exitDy=0;" edge="1" parent="6TS9SPNI_zXIky9GnBiD-224" source="6TS9SPNI_zXIky9GnBiD-221">
          <mxGeometry relative="1" as="geometry">
            <mxPoint x="-140" y="30" as="targetPoint" />
          </mxGeometry>
        </mxCell>
        <mxCell id="6TS9SPNI_zXIky9GnBiD-221" value="构造定制账单请求列表" style="rounded=1;whiteSpace=wrap;html=1;fillColor=#d5e8d4;strokeColor=#82b366;container=0;" vertex="1" parent="6TS9SPNI_zXIky9GnBiD-224">
          <mxGeometry width="120" height="60" as="geometry" />
        </mxCell>
        <mxCell id="6TS9SPNI_zXIky9GnBiD-226" style="edgeStyle=orthogonalEdgeStyle;curved=1;rounded=0;orthogonalLoop=1;jettySize=auto;html=1;exitX=1;exitY=0.5;exitDx=0;exitDy=0;" edge="1" parent="6TS9SPNI_zXIky9GnBiD-224" source="6TS9SPNI_zXIky9GnBiD-222">
          <mxGeometry relative="1" as="geometry">
            <mxPoint x="240" y="140" as="targetPoint" />
          </mxGeometry>
        </mxCell>
        <mxCell id="6TS9SPNI_zXIky9GnBiD-222" value="创建文件" style="rounded=1;whiteSpace=wrap;html=1;fillColor=#d5e8d4;strokeColor=#82b366;container=0;" vertex="1" parent="6TS9SPNI_zXIky9GnBiD-224">
          <mxGeometry y="110" width="120" height="60" as="geometry" />
        </mxCell>
        <mxCell id="6TS9SPNI_zXIky9GnBiD-223" value="" style="edgeStyle=orthogonalEdgeStyle;rounded=0;orthogonalLoop=1;jettySize=auto;html=1;" edge="1" parent="6TS9SPNI_zXIky9GnBiD-224" source="6TS9SPNI_zXIky9GnBiD-221" target="6TS9SPNI_zXIky9GnBiD-222">
          <mxGeometry relative="1" as="geometry" />
        </mxCell>
        <mxCell id="6TS9SPNI_zXIky9GnBiD-232" value="" style="edgeStyle=orthogonalEdgeStyle;curved=1;rounded=0;orthogonalLoop=1;jettySize=auto;html=1;" edge="1" parent="1" source="6TS9SPNI_zXIky9GnBiD-230" target="6TS9SPNI_zXIky9GnBiD-231">
          <mxGeometry relative="1" as="geometry" />
        </mxCell>
        <mxCell id="6TS9SPNI_zXIky9GnBiD-230" value="遍历请求列表" style="rhombus;whiteSpace=wrap;html=1;fillColor=#d5e8d4;strokeColor=#82b366;" vertex="1" parent="1">
          <mxGeometry x="2530" y="140" width="160" height="80" as="geometry" />
        </mxCell>
        <mxCell id="6TS9SPNI_zXIky9GnBiD-234" value="" style="edgeStyle=orthogonalEdgeStyle;curved=1;rounded=0;orthogonalLoop=1;jettySize=auto;html=1;" edge="1" parent="1" source="6TS9SPNI_zXIky9GnBiD-231" target="6TS9SPNI_zXIky9GnBiD-233">
          <mxGeometry relative="1" as="geometry" />
        </mxCell>
        <mxCell id="6TS9SPNI_zXIky9GnBiD-231" value="获取商户号信息列表merchantNo" style="whiteSpace=wrap;html=1;fillColor=#d5e8d4;strokeColor=#82b366;" vertex="1" parent="1">
          <mxGeometry x="2550" y="260" width="120" height="50" as="geometry" />
        </mxCell>
        <mxCell id="6TS9SPNI_zXIky9GnBiD-236" value="" style="edgeStyle=orthogonalEdgeStyle;curved=1;rounded=0;orthogonalLoop=1;jettySize=auto;html=1;" edge="1" parent="1" source="6TS9SPNI_zXIky9GnBiD-233" target="6TS9SPNI_zXIky9GnBiD-235">
          <mxGeometry relative="1" as="geometry" />
        </mxCell>
        <mxCell id="6TS9SPNI_zXIky9GnBiD-233" value="遍历商户号信息列表merchantNo" style="rhombus;whiteSpace=wrap;html=1;fillColor=#d5e8d4;strokeColor=#82b366;" vertex="1" parent="1">
          <mxGeometry x="2525" y="360" width="170" height="80" as="geometry" />
        </mxCell>
        <mxCell id="6TS9SPNI_zXIky9GnBiD-238" value="" style="edgeStyle=orthogonalEdgeStyle;curved=1;rounded=0;orthogonalLoop=1;jettySize=auto;html=1;" edge="1" parent="1" source="6TS9SPNI_zXIky9GnBiD-235" target="6TS9SPNI_zXIky9GnBiD-237">
          <mxGeometry relative="1" as="geometry" />
        </mxCell>
        <mxCell id="6TS9SPNI_zXIky9GnBiD-235" value="构建查询参数" style="whiteSpace=wrap;html=1;fillColor=#d5e8d4;strokeColor=#82b366;" vertex="1" parent="1">
          <mxGeometry x="2550" y="470" width="120" height="40" as="geometry" />
        </mxCell>
        <mxCell id="6TS9SPNI_zXIky9GnBiD-239" style="edgeStyle=orthogonalEdgeStyle;curved=1;rounded=0;orthogonalLoop=1;jettySize=auto;html=1;exitX=1;exitY=0.5;exitDx=0;exitDy=0;" edge="1" parent="1" source="6TS9SPNI_zXIky9GnBiD-237">
          <mxGeometry relative="1" as="geometry">
            <mxPoint x="2810" y="560" as="targetPoint" />
          </mxGeometry>
        </mxCell>
        <mxCell id="6TS9SPNI_zXIky9GnBiD-259" value="" style="edgeStyle=orthogonalEdgeStyle;curved=1;rounded=0;orthogonalLoop=1;jettySize=auto;html=1;entryX=0.5;entryY=0;entryDx=0;entryDy=0;" edge="1" parent="1" source="6TS9SPNI_zXIky9GnBiD-237" target="6TS9SPNI_zXIky9GnBiD-266">
          <mxGeometry relative="1" as="geometry">
            <mxPoint x="2610" y="620" as="targetPoint" />
            <Array as="points" />
          </mxGeometry>
        </mxCell>
        <mxCell id="6TS9SPNI_zXIky9GnBiD-237" value="生成收款对账单" style="whiteSpace=wrap;html=1;fillColor=#d5e8d4;strokeColor=#82b366;" vertex="1" parent="1">
          <mxGeometry x="2550" y="550" width="120" height="40" as="geometry" />
        </mxCell>
        <mxCell id="6TS9SPNI_zXIky9GnBiD-244" value="" style="edgeStyle=orthogonalEdgeStyle;curved=1;rounded=0;orthogonalLoop=1;jettySize=auto;html=1;" edge="1" parent="1" source="6TS9SPNI_zXIky9GnBiD-240" target="6TS9SPNI_zXIky9GnBiD-243">
          <mxGeometry relative="1" as="geometry" />
        </mxCell>
        <mxCell id="6TS9SPNI_zXIky9GnBiD-240" value="初始化页码" style="rounded=0;whiteSpace=wrap;html=1;fillColor=#fff2cc;strokeColor=#d6b656;" vertex="1" parent="1">
          <mxGeometry x="2990" y="200" width="110" height="40" as="geometry" />
        </mxCell>
        <mxCell id="6TS9SPNI_zXIky9GnBiD-246" value="" style="edgeStyle=orthogonalEdgeStyle;curved=1;rounded=0;orthogonalLoop=1;jettySize=auto;html=1;" edge="1" parent="1" source="6TS9SPNI_zXIky9GnBiD-243" target="6TS9SPNI_zXIky9GnBiD-245">
          <mxGeometry relative="1" as="geometry" />
        </mxCell>
        <mxCell id="6TS9SPNI_zXIky9GnBiD-243" value="循环" style="rhombus;whiteSpace=wrap;html=1;fillColor=#fff2cc;strokeColor=#d6b656;rounded=0;" vertex="1" parent="1">
          <mxGeometry x="2967.5" y="270" width="155" height="80" as="geometry" />
        </mxCell>
        <mxCell id="6TS9SPNI_zXIky9GnBiD-248" value="" style="edgeStyle=orthogonalEdgeStyle;curved=1;rounded=0;orthogonalLoop=1;jettySize=auto;html=1;" edge="1" parent="1" source="6TS9SPNI_zXIky9GnBiD-245" target="6TS9SPNI_zXIky9GnBiD-247">
          <mxGeometry relative="1" as="geometry" />
        </mxCell>
        <mxCell id="6TS9SPNI_zXIky9GnBiD-245" value="查询收款单信息" style="whiteSpace=wrap;html=1;fillColor=#fff2cc;strokeColor=#d6b656;rounded=0;" vertex="1" parent="1">
          <mxGeometry x="2987.5" y="390" width="115" height="40" as="geometry" />
        </mxCell>
        <mxCell id="6TS9SPNI_zXIky9GnBiD-250" value="" style="edgeStyle=orthogonalEdgeStyle;curved=1;rounded=0;orthogonalLoop=1;jettySize=auto;html=1;" edge="1" parent="1" source="6TS9SPNI_zXIky9GnBiD-247" target="6TS9SPNI_zXIky9GnBiD-249">
          <mxGeometry relative="1" as="geometry" />
        </mxCell>
        <mxCell id="6TS9SPNI_zXIky9GnBiD-247" value="构建定制入款账单数据列表，过滤交易单为非终态或者退款单号不为空 &amp;amp;&amp;amp; （退款类型不为0 ｜｜ 退款状态不是终态）" style="whiteSpace=wrap;html=1;fillColor=#fff2cc;strokeColor=#d6b656;rounded=0;" vertex="1" parent="1">
          <mxGeometry x="2948.75" y="470" width="192.5" height="60" as="geometry" />
        </mxCell>
        <mxCell id="6TS9SPNI_zXIky9GnBiD-251" style="edgeStyle=orthogonalEdgeStyle;curved=1;rounded=0;orthogonalLoop=1;jettySize=auto;html=1;exitX=1;exitY=0.5;exitDx=0;exitDy=0;" edge="1" parent="1" source="6TS9SPNI_zXIky9GnBiD-249">
          <mxGeometry relative="1" as="geometry">
            <mxPoint x="3280" y="570" as="targetPoint" />
          </mxGeometry>
        </mxCell>
        <mxCell id="6TS9SPNI_zXIky9GnBiD-261" value="" style="edgeStyle=orthogonalEdgeStyle;curved=1;rounded=0;orthogonalLoop=1;jettySize=auto;html=1;" edge="1" parent="1" source="6TS9SPNI_zXIky9GnBiD-249" target="6TS9SPNI_zXIky9GnBiD-260">
          <mxGeometry relative="1" as="geometry" />
        </mxCell>
        <mxCell id="6TS9SPNI_zXIky9GnBiD-249" value="生成收款账单" style="whiteSpace=wrap;html=1;fillColor=#fff2cc;strokeColor=#d6b656;rounded=0;" vertex="1" parent="1">
          <mxGeometry x="2987.5" y="570" width="115" height="40" as="geometry" />
        </mxCell>
        <mxCell id="6TS9SPNI_zXIky9GnBiD-257" value="" style="group" vertex="1" connectable="0" parent="1">
          <mxGeometry x="3310" y="450" width="170" height="230" as="geometry" />
        </mxCell>
        <mxCell id="6TS9SPNI_zXIky9GnBiD-253" style="edgeStyle=orthogonalEdgeStyle;curved=1;rounded=0;orthogonalLoop=1;jettySize=auto;html=1;exitX=0.5;exitY=1;exitDx=0;exitDy=0;" edge="1" parent="6TS9SPNI_zXIky9GnBiD-257" source="6TS9SPNI_zXIky9GnBiD-252">
          <mxGeometry relative="1" as="geometry">
            <mxPoint x="85" y="100" as="targetPoint" />
          </mxGeometry>
        </mxCell>
        <mxCell id="6TS9SPNI_zXIky9GnBiD-252" value="生成文件全路径，文件名为payment_report_{}_{}_{}.csv，&lt;br&gt;PMmax，商户号，日期" style="rounded=0;whiteSpace=wrap;html=1;fillColor=#e1d5e7;strokeColor=#9673a6;" vertex="1" parent="6TS9SPNI_zXIky9GnBiD-257">
          <mxGeometry width="170" height="50" as="geometry" />
        </mxCell>
        <mxCell id="6TS9SPNI_zXIky9GnBiD-254" value="写入数据，其中空的数据用空引号代替&quot;&quot;" style="rounded=0;whiteSpace=wrap;html=1;fillColor=#e1d5e7;strokeColor=#9673a6;" vertex="1" parent="6TS9SPNI_zXIky9GnBiD-257">
          <mxGeometry y="100" width="170" height="50" as="geometry" />
        </mxCell>
        <mxCell id="6TS9SPNI_zXIky9GnBiD-255" value="返回文件全路径" style="whiteSpace=wrap;html=1;fillColor=#e1d5e7;strokeColor=#9673a6;rounded=0;" vertex="1" parent="6TS9SPNI_zXIky9GnBiD-257">
          <mxGeometry y="190" width="170" height="40" as="geometry" />
        </mxCell>
        <mxCell id="6TS9SPNI_zXIky9GnBiD-256" value="" style="edgeStyle=orthogonalEdgeStyle;curved=1;rounded=0;orthogonalLoop=1;jettySize=auto;html=1;" edge="1" parent="6TS9SPNI_zXIky9GnBiD-257" source="6TS9SPNI_zXIky9GnBiD-254" target="6TS9SPNI_zXIky9GnBiD-255">
          <mxGeometry relative="1" as="geometry" />
        </mxCell>
        <mxCell id="6TS9SPNI_zXIky9GnBiD-262" style="edgeStyle=orthogonalEdgeStyle;rounded=0;orthogonalLoop=1;jettySize=auto;html=1;exitX=0;exitY=0.5;exitDx=0;exitDy=0;entryX=0;entryY=0.5;entryDx=0;entryDy=0;" edge="1" parent="1" source="6TS9SPNI_zXIky9GnBiD-260" target="6TS9SPNI_zXIky9GnBiD-243">
          <mxGeometry relative="1" as="geometry">
            <mxPoint x="2920" y="490" as="targetPoint" />
            <Array as="points">
              <mxPoint x="2910" y="690" />
              <mxPoint x="2910" y="310" />
            </Array>
          </mxGeometry>
        </mxCell>
        <mxCell id="6TS9SPNI_zXIky9GnBiD-263" value="否" style="edgeLabel;html=1;align=center;verticalAlign=middle;resizable=0;points=[];" vertex="1" connectable="0" parent="6TS9SPNI_zXIky9GnBiD-262">
          <mxGeometry x="-0.9031" y="-2" relative="1" as="geometry">
            <mxPoint as="offset" />
          </mxGeometry>
        </mxCell>
        <mxCell id="6TS9SPNI_zXIky9GnBiD-265" value="" style="edgeStyle=orthogonalEdgeStyle;curved=1;rounded=0;orthogonalLoop=1;jettySize=auto;html=1;" edge="1" parent="1" source="6TS9SPNI_zXIky9GnBiD-260" target="6TS9SPNI_zXIky9GnBiD-264">
          <mxGeometry relative="1" as="geometry" />
        </mxCell>
        <mxCell id="6TS9SPNI_zXIky9GnBiD-260" value="判断收款单信息是否都已写完" style="rhombus;whiteSpace=wrap;html=1;fillColor=#fff2cc;strokeColor=#d6b656;rounded=0;" vertex="1" parent="1">
          <mxGeometry x="2957.5" y="650" width="175" height="80" as="geometry" />
        </mxCell>
        <mxCell id="6TS9SPNI_zXIky9GnBiD-264" value="返回文件全路径" style="whiteSpace=wrap;html=1;fillColor=#fff2cc;strokeColor=#d6b656;rounded=0;" vertex="1" parent="1">
          <mxGeometry x="2977.5" y="760" width="135" height="40" as="geometry" />
        </mxCell>
        <mxCell id="6TS9SPNI_zXIky9GnBiD-267" style="edgeStyle=orthogonalEdgeStyle;curved=1;rounded=0;orthogonalLoop=1;jettySize=auto;html=1;exitX=1;exitY=0.5;exitDx=0;exitDy=0;" edge="1" parent="1" source="6TS9SPNI_zXIky9GnBiD-266">
          <mxGeometry relative="1" as="geometry">
            <mxPoint x="2860" y="1000" as="targetPoint" />
            <Array as="points">
              <mxPoint x="2670" y="740" />
              <mxPoint x="2780" y="740" />
              <mxPoint x="2780" y="1000" />
            </Array>
          </mxGeometry>
        </mxCell>
        <mxCell id="6TS9SPNI_zXIky9GnBiD-298" value="" style="edgeStyle=orthogonalEdgeStyle;curved=1;rounded=0;orthogonalLoop=1;jettySize=auto;html=1;" edge="1" parent="1" source="6TS9SPNI_zXIky9GnBiD-266" target="6TS9SPNI_zXIky9GnBiD-297">
          <mxGeometry relative="1" as="geometry" />
        </mxCell>
        <mxCell id="6TS9SPNI_zXIky9GnBiD-266" value="退款数据追加到收款账单中" style="whiteSpace=wrap;html=1;fillColor=#d5e8d4;strokeColor=#82b366;" vertex="1" parent="1">
          <mxGeometry x="2550" y="670" width="120" height="40" as="geometry" />
        </mxCell>
        <mxCell id="6TS9SPNI_zXIky9GnBiD-271" style="edgeStyle=orthogonalEdgeStyle;curved=1;rounded=0;orthogonalLoop=1;jettySize=auto;html=1;exitX=0.5;exitY=1;exitDx=0;exitDy=0;" edge="1" parent="1" source="6TS9SPNI_zXIky9GnBiD-268">
          <mxGeometry relative="1" as="geometry">
            <mxPoint x="3040" y="950" as="targetPoint" />
          </mxGeometry>
        </mxCell>
        <mxCell id="6TS9SPNI_zXIky9GnBiD-268" value="初始化页码" style="rounded=0;whiteSpace=wrap;html=1;fillColor=#fff2cc;strokeColor=#d6b656;" vertex="1" parent="1">
          <mxGeometry x="2980" y="870" width="120" height="40" as="geometry" />
        </mxCell>
        <mxCell id="6TS9SPNI_zXIky9GnBiD-269" value="" style="swimlane;startSize=0;dashed=1;strokeWidth=2;strokeColor=#FF759A;" vertex="1" parent="1">
          <mxGeometry x="2880" y="155" width="660" height="675" as="geometry" />
        </mxCell>
        <mxCell id="6TS9SPNI_zXIky9GnBiD-273" style="edgeStyle=orthogonalEdgeStyle;curved=1;rounded=0;orthogonalLoop=1;jettySize=auto;html=1;exitX=0.5;exitY=1;exitDx=0;exitDy=0;" edge="1" parent="1" source="6TS9SPNI_zXIky9GnBiD-270" target="6TS9SPNI_zXIky9GnBiD-272">
          <mxGeometry relative="1" as="geometry" />
        </mxCell>
        <mxCell id="6TS9SPNI_zXIky9GnBiD-270" value="循环" style="rhombus;whiteSpace=wrap;html=1;fillColor=#fff2cc;strokeColor=#d6b656;rounded=0;" vertex="1" parent="1">
          <mxGeometry x="2962.5" y="950" width="155" height="80" as="geometry" />
        </mxCell>
        <mxCell id="6TS9SPNI_zXIky9GnBiD-275" value="" style="edgeStyle=orthogonalEdgeStyle;curved=1;rounded=0;orthogonalLoop=1;jettySize=auto;html=1;" edge="1" parent="1" source="6TS9SPNI_zXIky9GnBiD-272" target="6TS9SPNI_zXIky9GnBiD-274">
          <mxGeometry relative="1" as="geometry" />
        </mxCell>
        <mxCell id="6TS9SPNI_zXIky9GnBiD-272" value="查询收单退款信息" style="rounded=0;whiteSpace=wrap;html=1;fillColor=#fff2cc;strokeColor=#d6b656;" vertex="1" parent="1">
          <mxGeometry x="2980" y="1070" width="120" height="40" as="geometry" />
        </mxCell>
        <mxCell id="6TS9SPNI_zXIky9GnBiD-277" style="edgeStyle=orthogonalEdgeStyle;curved=1;rounded=0;orthogonalLoop=1;jettySize=auto;html=1;exitX=0.5;exitY=1;exitDx=0;exitDy=0;entryX=0.5;entryY=0;entryDx=0;entryDy=0;" edge="1" parent="1" source="6TS9SPNI_zXIky9GnBiD-274" target="6TS9SPNI_zXIky9GnBiD-276">
          <mxGeometry relative="1" as="geometry" />
        </mxCell>
        <mxCell id="6TS9SPNI_zXIky9GnBiD-280" style="edgeStyle=orthogonalEdgeStyle;curved=1;rounded=0;orthogonalLoop=1;jettySize=auto;html=1;exitX=1;exitY=0.5;exitDx=0;exitDy=0;" edge="1" parent="1" source="6TS9SPNI_zXIky9GnBiD-274">
          <mxGeometry relative="1" as="geometry">
            <mxPoint x="3240" y="1150" as="targetPoint" />
          </mxGeometry>
        </mxCell>
        <mxCell id="6TS9SPNI_zXIky9GnBiD-274" value="追加退款信息" style="whiteSpace=wrap;html=1;fillColor=#fff2cc;strokeColor=#d6b656;rounded=0;" vertex="1" parent="1">
          <mxGeometry x="2980" y="1150" width="120" height="40" as="geometry" />
        </mxCell>
        <mxCell id="6TS9SPNI_zXIky9GnBiD-278" style="edgeStyle=orthogonalEdgeStyle;rounded=0;orthogonalLoop=1;jettySize=auto;html=1;exitX=0;exitY=0.5;exitDx=0;exitDy=0;entryX=0;entryY=0.5;entryDx=0;entryDy=0;" edge="1" parent="1" source="6TS9SPNI_zXIky9GnBiD-276" target="6TS9SPNI_zXIky9GnBiD-270">
          <mxGeometry relative="1" as="geometry">
            <mxPoint x="2930" y="1020" as="targetPoint" />
            <Array as="points">
              <mxPoint x="2900" y="1270" />
              <mxPoint x="2900" y="990" />
            </Array>
          </mxGeometry>
        </mxCell>
        <mxCell id="6TS9SPNI_zXIky9GnBiD-279" value="否" style="edgeLabel;html=1;align=center;verticalAlign=middle;resizable=0;points=[];" vertex="1" connectable="0" parent="6TS9SPNI_zXIky9GnBiD-278">
          <mxGeometry x="-0.8658" y="1" relative="1" as="geometry">
            <mxPoint x="1" as="offset" />
          </mxGeometry>
        </mxCell>
        <mxCell id="6TS9SPNI_zXIky9GnBiD-281" style="edgeStyle=orthogonalEdgeStyle;curved=1;rounded=0;orthogonalLoop=1;jettySize=auto;html=1;exitX=0.5;exitY=1;exitDx=0;exitDy=0;" edge="1" parent="1" source="6TS9SPNI_zXIky9GnBiD-276">
          <mxGeometry relative="1" as="geometry">
            <mxPoint x="3040" y="1350" as="targetPoint" />
          </mxGeometry>
        </mxCell>
        <mxCell id="6TS9SPNI_zXIky9GnBiD-276" value="判断退款信息是否都已写完" style="rhombus;whiteSpace=wrap;html=1;fillColor=#fff2cc;strokeColor=#d6b656;rounded=0;" vertex="1" parent="1">
          <mxGeometry x="2952.5" y="1230" width="175" height="80" as="geometry" />
        </mxCell>
        <mxCell id="6TS9SPNI_zXIky9GnBiD-282" value="结束" style="whiteSpace=wrap;html=1;fillColor=#fff2cc;strokeColor=#d6b656;rounded=0;" vertex="1" parent="1">
          <mxGeometry x="2990" y="1350" width="100" height="40" as="geometry" />
        </mxCell>
        <mxCell id="6TS9SPNI_zXIky9GnBiD-285" value="" style="edgeStyle=orthogonalEdgeStyle;curved=1;rounded=0;orthogonalLoop=1;jettySize=auto;html=1;" edge="1" parent="1" source="6TS9SPNI_zXIky9GnBiD-283" target="6TS9SPNI_zXIky9GnBiD-284">
          <mxGeometry relative="1" as="geometry" />
        </mxCell>
        <mxCell id="6TS9SPNI_zXIky9GnBiD-283" value="把收单退款信息写入列表payinDataList" style="rounded=0;whiteSpace=wrap;html=1;fillColor=#e1d5e7;strokeColor=#9673a6;" vertex="1" parent="1">
          <mxGeometry x="3340" y="860" width="120" height="50" as="geometry" />
        </mxCell>
        <mxCell id="6TS9SPNI_zXIky9GnBiD-287" value="" style="edgeStyle=orthogonalEdgeStyle;curved=1;rounded=0;orthogonalLoop=1;jettySize=auto;html=1;" edge="1" parent="1" source="6TS9SPNI_zXIky9GnBiD-284" target="6TS9SPNI_zXIky9GnBiD-286">
          <mxGeometry relative="1" as="geometry" />
        </mxCell>
        <mxCell id="6TS9SPNI_zXIky9GnBiD-284" value="新建文件，新建csv文件内容保存列表" style="whiteSpace=wrap;html=1;fillColor=#e1d5e7;strokeColor=#9673a6;rounded=0;" vertex="1" parent="1">
          <mxGeometry x="3340" y="960" width="120" height="55" as="geometry" />
        </mxCell>
        <mxCell id="6TS9SPNI_zXIky9GnBiD-289" value="" style="edgeStyle=orthogonalEdgeStyle;curved=1;rounded=0;orthogonalLoop=1;jettySize=auto;html=1;" edge="1" parent="1" source="6TS9SPNI_zXIky9GnBiD-286" target="6TS9SPNI_zXIky9GnBiD-288">
          <mxGeometry relative="1" as="geometry" />
        </mxCell>
        <mxCell id="6TS9SPNI_zXIky9GnBiD-290" value="是" style="edgeLabel;html=1;align=center;verticalAlign=middle;resizable=0;points=[];" vertex="1" connectable="0" parent="6TS9SPNI_zXIky9GnBiD-289">
          <mxGeometry x="-0.36" y="1" relative="1" as="geometry">
            <mxPoint y="1" as="offset" />
          </mxGeometry>
        </mxCell>
        <mxCell id="6TS9SPNI_zXIky9GnBiD-292" value="" style="edgeStyle=orthogonalEdgeStyle;curved=1;rounded=0;orthogonalLoop=1;jettySize=auto;html=1;" edge="1" parent="1" source="6TS9SPNI_zXIky9GnBiD-286" target="6TS9SPNI_zXIky9GnBiD-291">
          <mxGeometry relative="1" as="geometry" />
        </mxCell>
        <mxCell id="6TS9SPNI_zXIky9GnBiD-293" value="否" style="edgeLabel;html=1;align=center;verticalAlign=middle;resizable=0;points=[];" vertex="1" connectable="0" parent="6TS9SPNI_zXIky9GnBiD-292">
          <mxGeometry x="-0.275" y="1" relative="1" as="geometry">
            <mxPoint as="offset" />
          </mxGeometry>
        </mxCell>
        <mxCell id="6TS9SPNI_zXIky9GnBiD-286" value="当前页码是否为1 &amp;amp;&amp;amp; 全路径下文件不存在" style="rhombus;whiteSpace=wrap;html=1;fillColor=#e1d5e7;strokeColor=#9673a6;rounded=0;" vertex="1" parent="1">
          <mxGeometry x="3320" y="1050" width="160" height="80" as="geometry" />
        </mxCell>
        <mxCell id="6TS9SPNI_zXIky9GnBiD-288" value="csv列表中保存表头" style="whiteSpace=wrap;html=1;fillColor=#e1d5e7;strokeColor=#9673a6;rounded=0;" vertex="1" parent="1">
          <mxGeometry x="3550" y="1065" width="120" height="50" as="geometry" />
        </mxCell>
        <mxCell id="6TS9SPNI_zXIky9GnBiD-295" value="" style="edgeStyle=orthogonalEdgeStyle;curved=1;rounded=0;orthogonalLoop=1;jettySize=auto;html=1;" edge="1" parent="1" source="6TS9SPNI_zXIky9GnBiD-291" target="6TS9SPNI_zXIky9GnBiD-294">
          <mxGeometry relative="1" as="geometry" />
        </mxCell>
        <mxCell id="6TS9SPNI_zXIky9GnBiD-291" value="遍历payinDateList，将退款信息写入csv列表" style="whiteSpace=wrap;html=1;fillColor=#e1d5e7;strokeColor=#9673a6;rounded=0;" vertex="1" parent="1">
          <mxGeometry x="3340" y="1170" width="120" height="60" as="geometry" />
        </mxCell>
        <mxCell id="6TS9SPNI_zXIky9GnBiD-294" value="将csv列表中退款信息追加写入到入款对账单后面" style="whiteSpace=wrap;html=1;fillColor=#e1d5e7;strokeColor=#9673a6;rounded=0;" vertex="1" parent="1">
          <mxGeometry x="3340" y="1260" width="120" height="60" as="geometry" />
        </mxCell>
        <mxCell id="6TS9SPNI_zXIky9GnBiD-296" value="" style="swimlane;startSize=0;strokeWidth=2;dashed=1;" vertex="1" parent="1">
          <mxGeometry x="2880" y="850" width="810" height="570" as="geometry" />
        </mxCell>
        <mxCell id="6TS9SPNI_zXIky9GnBiD-300" value="" style="edgeStyle=orthogonalEdgeStyle;curved=1;rounded=0;orthogonalLoop=1;jettySize=auto;html=1;" edge="1" parent="1" source="6TS9SPNI_zXIky9GnBiD-297" target="6TS9SPNI_zXIky9GnBiD-299">
          <mxGeometry relative="1" as="geometry" />
        </mxCell>
        <mxCell id="6TS9SPNI_zXIky9GnBiD-297" value="判断商户是否黑名单商户" style="rhombus;whiteSpace=wrap;html=1;fillColor=#d5e8d4;strokeColor=#82b366;" vertex="1" parent="1">
          <mxGeometry x="2530" y="760" width="160" height="80" as="geometry" />
        </mxCell>
        <mxCell id="6TS9SPNI_zXIky9GnBiD-302" value="" style="edgeStyle=orthogonalEdgeStyle;curved=1;rounded=0;orthogonalLoop=1;jettySize=auto;html=1;" edge="1" parent="1" source="6TS9SPNI_zXIky9GnBiD-299" target="6TS9SPNI_zXIky9GnBiD-301">
          <mxGeometry relative="1" as="geometry" />
        </mxCell>
        <mxCell id="6TS9SPNI_zXIky9GnBiD-299" value="追加争议信息到收款账单中" style="whiteSpace=wrap;html=1;fillColor=#d5e8d4;strokeColor=#82b366;" vertex="1" parent="1">
          <mxGeometry x="2550" y="890" width="120" height="60" as="geometry" />
        </mxCell>
        <mxCell id="6TS9SPNI_zXIky9GnBiD-304" value="" style="edgeStyle=orthogonalEdgeStyle;curved=1;rounded=0;orthogonalLoop=1;jettySize=auto;html=1;" edge="1" parent="1" source="6TS9SPNI_zXIky9GnBiD-301" target="6TS9SPNI_zXIky9GnBiD-303">
          <mxGeometry relative="1" as="geometry" />
        </mxCell>
        <mxCell id="6TS9SPNI_zXIky9GnBiD-305" style="edgeStyle=orthogonalEdgeStyle;rounded=0;orthogonalLoop=1;jettySize=auto;html=1;exitX=0;exitY=0.5;exitDx=0;exitDy=0;entryX=0;entryY=0.5;entryDx=0;entryDy=0;" edge="1" parent="1" source="6TS9SPNI_zXIky9GnBiD-301" target="6TS9SPNI_zXIky9GnBiD-233">
          <mxGeometry relative="1" as="geometry">
            <mxPoint x="2450" y="540" as="targetPoint" />
            <Array as="points">
              <mxPoint x="2410" y="1020" />
              <mxPoint x="2410" y="400" />
            </Array>
          </mxGeometry>
        </mxCell>
        <mxCell id="6TS9SPNI_zXIky9GnBiD-301" value="生成压缩包路径，打包" style="whiteSpace=wrap;html=1;fillColor=#d5e8d4;strokeColor=#82b366;" vertex="1" parent="1">
          <mxGeometry x="2550" y="990" width="120" height="60" as="geometry" />
        </mxCell>
        <mxCell id="6TS9SPNI_zXIky9GnBiD-307" value="" style="edgeStyle=orthogonalEdgeStyle;curved=1;rounded=0;orthogonalLoop=1;jettySize=auto;html=1;" edge="1" parent="1" source="6TS9SPNI_zXIky9GnBiD-303" target="6TS9SPNI_zXIky9GnBiD-306">
          <mxGeometry relative="1" as="geometry" />
        </mxCell>
        <mxCell id="6TS9SPNI_zXIky9GnBiD-303" value="把所有商户的zip打成一个文件" style="whiteSpace=wrap;html=1;fillColor=#d5e8d4;strokeColor=#82b366;" vertex="1" parent="1">
          <mxGeometry x="2550" y="1100" width="120" height="60" as="geometry" />
        </mxCell>
        <mxCell id="6TS9SPNI_zXIky9GnBiD-306" value="上传S3并发送邮件给商户" style="whiteSpace=wrap;html=1;fillColor=#d5e8d4;strokeColor=#82b366;" vertex="1" parent="1">
          <mxGeometry x="2550" y="1200" width="120" height="60" as="geometry" />
        </mxCell>
        <mxCell id="6TS9SPNI_zXIky9GnBiD-308" value="/data/custom/{会员号/结束日期}/upload/transaction/payin/{开始日-结束日}_{商户号}.zip" style="text;html=1;strokeColor=none;fillColor=none;align=center;verticalAlign=middle;whiteSpace=wrap;rounded=0;" vertex="1" parent="1">
          <mxGeometry x="2570" y="1030" width="340" height="30" as="geometry" />
        </mxCell>
        <mxCell id="6TS9SPNI_zXIky9GnBiD-309" value="/data/custom/{会员号/结束日期}/{开始日-结束日}_payin.zip" style="text;whiteSpace=wrap;html=1;" vertex="1" parent="1">
          <mxGeometry x="2620" y="1140" width="270" height="40" as="geometry" />
        </mxCell>
        <mxCell id="3hQKHUFjx83m3VpcnVH1-1" value="详情，原始流程" style="text;html=1;strokeColor=none;fillColor=none;align=center;verticalAlign=middle;whiteSpace=wrap;rounded=0;" vertex="1" parent="1">
          <mxGeometry x="230" y="7910" width="60" height="30" as="geometry" />
        </mxCell>
        <mxCell id="3hQKHUFjx83m3VpcnVH1-7" value="" style="edgeStyle=orthogonalEdgeStyle;curved=1;rounded=0;orthogonalLoop=1;jettySize=auto;html=1;" edge="1" parent="1" source="3hQKHUFjx83m3VpcnVH1-5" target="3hQKHUFjx83m3VpcnVH1-6">
          <mxGeometry relative="1" as="geometry" />
        </mxCell>
        <mxCell id="3hQKHUFjx83m3VpcnVH1-5" value="查询status=5 &amp;amp;&amp;amp; status!=&#39;INIT&#39;的预结算单，结算确认单号，状态" style="rounded=0;whiteSpace=wrap;html=1;fillColor=#d5e8d4;strokeColor=#82b366;" vertex="1" parent="1">
          <mxGeometry x="380" y="7970" width="150" height="50" as="geometry" />
        </mxCell>
        <mxCell id="3hQKHUFjx83m3VpcnVH1-6" value="获取预接单号list，构建预接单号与结算确认单号关系map，key为预结单号，value为确认单号list" style="whiteSpace=wrap;html=1;rounded=0;fillColor=#d5e8d4;strokeColor=#82b366;" vertex="1" parent="1">
          <mxGeometry x="377.5" y="8090" width="155" height="60" as="geometry" />
        </mxCell>
        <mxCell id="3hQKHUFjx83m3VpcnVH1-14" value="" style="group" vertex="1" connectable="0" parent="1">
          <mxGeometry x="540" y="7910" width="210" height="320" as="geometry" />
        </mxCell>
        <mxCell id="3hQKHUFjx83m3VpcnVH1-8" value="结算详情" style="text;html=1;strokeColor=none;fillColor=none;align=center;verticalAlign=middle;whiteSpace=wrap;rounded=0;" vertex="1" parent="3hQKHUFjx83m3VpcnVH1-14">
          <mxGeometry width="60" height="30" as="geometry" />
        </mxCell>
        <mxCell id="3hQKHUFjx83m3VpcnVH1-9" value="以预结单号list为查询参数，查询结算详情" style="rounded=0;whiteSpace=wrap;html=1;fillColor=#d5e8d4;strokeColor=#82b366;" vertex="1" parent="3hQKHUFjx83m3VpcnVH1-14">
          <mxGeometry x="90" y="50" width="120" height="60" as="geometry" />
        </mxCell>
        <mxCell id="3hQKHUFjx83m3VpcnVH1-10" value="结算详情转化json，再由json转为&lt;br&gt;excelVo对象" style="whiteSpace=wrap;html=1;rounded=0;fillColor=#d5e8d4;strokeColor=#82b366;" vertex="1" parent="3hQKHUFjx83m3VpcnVH1-14">
          <mxGeometry x="90" y="160" width="120" height="60" as="geometry" />
        </mxCell>
        <mxCell id="3hQKHUFjx83m3VpcnVH1-11" value="" style="edgeStyle=orthogonalEdgeStyle;curved=1;rounded=0;orthogonalLoop=1;jettySize=auto;html=1;" edge="1" parent="3hQKHUFjx83m3VpcnVH1-14" source="3hQKHUFjx83m3VpcnVH1-9" target="3hQKHUFjx83m3VpcnVH1-10">
          <mxGeometry relative="1" as="geometry" />
        </mxCell>
        <mxCell id="3hQKHUFjx83m3VpcnVH1-12" value="循环写入sheet" style="whiteSpace=wrap;html=1;fillColor=#d5e8d4;strokeColor=#82b366;rounded=0;" vertex="1" parent="3hQKHUFjx83m3VpcnVH1-14">
          <mxGeometry x="90" y="260" width="120" height="60" as="geometry" />
        </mxCell>
        <mxCell id="3hQKHUFjx83m3VpcnVH1-13" value="" style="edgeStyle=orthogonalEdgeStyle;curved=1;rounded=0;orthogonalLoop=1;jettySize=auto;html=1;" edge="1" parent="3hQKHUFjx83m3VpcnVH1-14" source="3hQKHUFjx83m3VpcnVH1-10" target="3hQKHUFjx83m3VpcnVH1-12">
          <mxGeometry relative="1" as="geometry" />
        </mxCell>
        <mxCell id="3hQKHUFjx83m3VpcnVH1-32" value="" style="group" vertex="1" connectable="0" parent="1">
          <mxGeometry x="770" y="7910" width="200" height="610" as="geometry" />
        </mxCell>
        <mxCell id="3hQKHUFjx83m3VpcnVH1-15" value="预结算单" style="text;html=1;strokeColor=none;fillColor=none;align=center;verticalAlign=middle;whiteSpace=wrap;rounded=0;" vertex="1" parent="3hQKHUFjx83m3VpcnVH1-32">
          <mxGeometry width="60" height="30" as="geometry" />
        </mxCell>
        <mxCell id="3hQKHUFjx83m3VpcnVH1-16" value="以预结单号list为查询参数，查询status=5 的预结单信息" style="rounded=0;whiteSpace=wrap;html=1;fillColor=#d5e8d4;strokeColor=#82b366;" vertex="1" parent="3hQKHUFjx83m3VpcnVH1-32">
          <mxGeometry x="80" y="40" width="120" height="60" as="geometry" />
        </mxCell>
        <mxCell id="3hQKHUFjx83m3VpcnVH1-17" value="根据预结单号去重" style="whiteSpace=wrap;html=1;fillColor=#d5e8d4;strokeColor=#82b366;rounded=0;" vertex="1" parent="3hQKHUFjx83m3VpcnVH1-32">
          <mxGeometry x="80" y="140" width="120" height="40" as="geometry" />
        </mxCell>
        <mxCell id="3hQKHUFjx83m3VpcnVH1-18" value="" style="edgeStyle=orthogonalEdgeStyle;curved=1;rounded=0;orthogonalLoop=1;jettySize=auto;html=1;" edge="1" parent="3hQKHUFjx83m3VpcnVH1-32" source="3hQKHUFjx83m3VpcnVH1-16" target="3hQKHUFjx83m3VpcnVH1-17">
          <mxGeometry relative="1" as="geometry" />
        </mxCell>
        <mxCell id="3hQKHUFjx83m3VpcnVH1-21" value="遍历预接单信息" style="rhombus;whiteSpace=wrap;html=1;fillColor=#d5e8d4;strokeColor=#82b366;rounded=0;" vertex="1" parent="3hQKHUFjx83m3VpcnVH1-32">
          <mxGeometry x="85" y="210" width="110" height="50" as="geometry" />
        </mxCell>
        <mxCell id="3hQKHUFjx83m3VpcnVH1-22" value="" style="edgeStyle=orthogonalEdgeStyle;curved=1;rounded=0;orthogonalLoop=1;jettySize=auto;html=1;" edge="1" parent="3hQKHUFjx83m3VpcnVH1-32" source="3hQKHUFjx83m3VpcnVH1-17" target="3hQKHUFjx83m3VpcnVH1-21">
          <mxGeometry relative="1" as="geometry" />
        </mxCell>
        <mxCell id="3hQKHUFjx83m3VpcnVH1-23" value="解析preDetiilInfo和extendInfo字段，转换成excelVo对象list" style="whiteSpace=wrap;html=1;fillColor=#d5e8d4;strokeColor=#82b366;rounded=0;" vertex="1" parent="3hQKHUFjx83m3VpcnVH1-32">
          <mxGeometry x="80" y="290" width="120" height="60" as="geometry" />
        </mxCell>
        <mxCell id="3hQKHUFjx83m3VpcnVH1-24" value="" style="edgeStyle=orthogonalEdgeStyle;curved=1;rounded=0;orthogonalLoop=1;jettySize=auto;html=1;" edge="1" parent="3hQKHUFjx83m3VpcnVH1-32" source="3hQKHUFjx83m3VpcnVH1-21" target="3hQKHUFjx83m3VpcnVH1-23">
          <mxGeometry relative="1" as="geometry" />
        </mxCell>
        <mxCell id="3hQKHUFjx83m3VpcnVH1-25" value="根据预结算单和结算单关系map，填充确认单号" style="whiteSpace=wrap;html=1;fillColor=#d5e8d4;strokeColor=#82b366;rounded=0;" vertex="1" parent="3hQKHUFjx83m3VpcnVH1-32">
          <mxGeometry x="80" y="380" width="120" height="60" as="geometry" />
        </mxCell>
        <mxCell id="3hQKHUFjx83m3VpcnVH1-26" value="" style="edgeStyle=orthogonalEdgeStyle;curved=1;rounded=0;orthogonalLoop=1;jettySize=auto;html=1;" edge="1" parent="3hQKHUFjx83m3VpcnVH1-32" source="3hQKHUFjx83m3VpcnVH1-23" target="3hQKHUFjx83m3VpcnVH1-25">
          <mxGeometry relative="1" as="geometry" />
        </mxCell>
        <mxCell id="3hQKHUFjx83m3VpcnVH1-29" style="edgeStyle=orthogonalEdgeStyle;rounded=0;orthogonalLoop=1;jettySize=auto;html=1;exitX=0;exitY=0.5;exitDx=0;exitDy=0;entryX=0;entryY=0.5;entryDx=0;entryDy=0;" edge="1" parent="3hQKHUFjx83m3VpcnVH1-32" source="3hQKHUFjx83m3VpcnVH1-27" target="3hQKHUFjx83m3VpcnVH1-21">
          <mxGeometry relative="1" as="geometry">
            <mxPoint x="50" y="270" as="targetPoint" />
            <Array as="points">
              <mxPoint x="30" y="500" />
              <mxPoint x="30" y="235" />
            </Array>
          </mxGeometry>
        </mxCell>
        <mxCell id="3hQKHUFjx83m3VpcnVH1-27" value="合并相同的行" style="whiteSpace=wrap;html=1;fillColor=#d5e8d4;strokeColor=#82b366;rounded=0;" vertex="1" parent="3hQKHUFjx83m3VpcnVH1-32">
          <mxGeometry x="80" y="480" width="120" height="40" as="geometry" />
        </mxCell>
        <mxCell id="3hQKHUFjx83m3VpcnVH1-28" value="" style="edgeStyle=orthogonalEdgeStyle;curved=1;rounded=0;orthogonalLoop=1;jettySize=auto;html=1;" edge="1" parent="3hQKHUFjx83m3VpcnVH1-32" source="3hQKHUFjx83m3VpcnVH1-25" target="3hQKHUFjx83m3VpcnVH1-27">
          <mxGeometry relative="1" as="geometry" />
        </mxCell>
        <mxCell id="3hQKHUFjx83m3VpcnVH1-30" value="excelVo列表写入sheet" style="whiteSpace=wrap;html=1;fillColor=#d5e8d4;strokeColor=#82b366;rounded=0;" vertex="1" parent="3hQKHUFjx83m3VpcnVH1-32">
          <mxGeometry x="80" y="560" width="120" height="50" as="geometry" />
        </mxCell>
        <mxCell id="3hQKHUFjx83m3VpcnVH1-31" value="" style="edgeStyle=orthogonalEdgeStyle;curved=1;rounded=0;orthogonalLoop=1;jettySize=auto;html=1;" edge="1" parent="3hQKHUFjx83m3VpcnVH1-32" source="3hQKHUFjx83m3VpcnVH1-27" target="3hQKHUFjx83m3VpcnVH1-30">
          <mxGeometry relative="1" as="geometry" />
        </mxCell>
        <mxCell id="3hQKHUFjx83m3VpcnVH1-33" value="结算单" style="text;html=1;strokeColor=none;fillColor=none;align=center;verticalAlign=middle;whiteSpace=wrap;rounded=0;" vertex="1" parent="1">
          <mxGeometry x="1020" y="7910" width="60" height="30" as="geometry" />
        </mxCell>
        <mxCell id="3hQKHUFjx83m3VpcnVH1-36" value="" style="edgeStyle=orthogonalEdgeStyle;curved=1;rounded=0;orthogonalLoop=1;jettySize=auto;html=1;" edge="1" parent="1" source="3hQKHUFjx83m3VpcnVH1-34" target="3hQKHUFjx83m3VpcnVH1-35">
          <mxGeometry relative="1" as="geometry" />
        </mxCell>
        <mxCell id="3hQKHUFjx83m3VpcnVH1-34" value="以预结算单号list为查询条件，查询结算确认单号，以结算确认单号查询结算信息" style="rounded=0;whiteSpace=wrap;html=1;fillColor=#d5e8d4;strokeColor=#82b366;" vertex="1" parent="1">
          <mxGeometry x="1060" y="7950" width="120" height="60" as="geometry" />
        </mxCell>
        <mxCell id="3hQKHUFjx83m3VpcnVH1-35" value="" style="whiteSpace=wrap;html=1;fillColor=#d5e8d4;strokeColor=#82b366;rounded=0;" vertex="1" parent="1">
          <mxGeometry x="1060" y="8050" width="120" height="60" as="geometry" />
        </mxCell>
      </root>
    </mxGraphModel>
  </diagram>
  <diagram id="39UdXYOgOvfkPo6It7K3" name="专利图">
    <mxGraphModel dx="1140" dy="734" grid="0" gridSize="10" guides="1" tooltips="1" connect="1" arrows="1" fold="1" page="1" pageScale="1" pageWidth="10000" pageHeight="10000" math="0" shadow="0">
      <root>
        <mxCell id="0" />
        <mxCell id="1" parent="0" />
        <mxCell id="OxaJgDEaDInpBFmtAvnn-1" value="业务服务" style="rounded=0;whiteSpace=wrap;html=1;" vertex="1" parent="1">
          <mxGeometry x="396" y="160" width="127" height="53" as="geometry" />
        </mxCell>
        <mxCell id="OxaJgDEaDInpBFmtAvnn-2" value="" style="endArrow=classic;html=1;rounded=0;entryX=0;entryY=0.5;entryDx=0;entryDy=0;" edge="1" parent="1" target="OxaJgDEaDInpBFmtAvnn-1">
          <mxGeometry width="50" height="50" relative="1" as="geometry">
            <mxPoint x="297" y="187" as="sourcePoint" />
            <mxPoint x="320" y="185" as="targetPoint" />
          </mxGeometry>
        </mxCell>
        <mxCell id="OxaJgDEaDInpBFmtAvnn-3" value="请求" style="text;html=1;strokeColor=none;fillColor=none;align=center;verticalAlign=middle;whiteSpace=wrap;rounded=0;" vertex="1" parent="1">
          <mxGeometry x="315" y="157" width="60" height="30" as="geometry" />
        </mxCell>
        <mxCell id="OxaJgDEaDInpBFmtAvnn-4" value="灰度功能" style="rounded=0;whiteSpace=wrap;html=1;" vertex="1" parent="1">
          <mxGeometry x="589" y="97" width="127" height="53" as="geometry" />
        </mxCell>
        <mxCell id="OxaJgDEaDInpBFmtAvnn-5" value="原始功能" style="rounded=0;whiteSpace=wrap;html=1;" vertex="1" parent="1">
          <mxGeometry x="589" y="220" width="127" height="53" as="geometry" />
        </mxCell>
        <mxCell id="OxaJgDEaDInpBFmtAvnn-6" value="" style="endArrow=classic;html=1;rounded=0;entryX=0;entryY=0.5;entryDx=0;entryDy=0;" edge="1" parent="1" target="OxaJgDEaDInpBFmtAvnn-4">
          <mxGeometry width="50" height="50" relative="1" as="geometry">
            <mxPoint x="524" y="187" as="sourcePoint" />
            <mxPoint x="576" y="137" as="targetPoint" />
          </mxGeometry>
        </mxCell>
        <mxCell id="OxaJgDEaDInpBFmtAvnn-7" value="" style="endArrow=classic;html=1;rounded=0;entryX=0;entryY=0.5;entryDx=0;entryDy=0;" edge="1" parent="1" target="OxaJgDEaDInpBFmtAvnn-5">
          <mxGeometry width="50" height="50" relative="1" as="geometry">
            <mxPoint x="523" y="188" as="sourcePoint" />
            <mxPoint x="623" y="218" as="targetPoint" />
          </mxGeometry>
        </mxCell>
        <mxCell id="OxaJgDEaDInpBFmtAvnn-8" value="多维度灰度路由服务" style="rounded=0;whiteSpace=wrap;html=1;" vertex="1" parent="1">
          <mxGeometry x="396" y="290" width="127" height="53" as="geometry" />
        </mxCell>
        <mxCell id="OxaJgDEaDInpBFmtAvnn-9" value="" style="endArrow=classic;html=1;rounded=0;exitX=0.25;exitY=1;exitDx=0;exitDy=0;entryX=0.25;entryY=0;entryDx=0;entryDy=0;" edge="1" parent="1" source="OxaJgDEaDInpBFmtAvnn-1" target="OxaJgDEaDInpBFmtAvnn-8">
          <mxGeometry width="50" height="50" relative="1" as="geometry">
            <mxPoint x="419" y="278" as="sourcePoint" />
            <mxPoint x="469" y="228" as="targetPoint" />
          </mxGeometry>
        </mxCell>
        <mxCell id="OxaJgDEaDInpBFmtAvnn-10" value="灰度信息" style="text;html=1;strokeColor=none;fillColor=none;align=center;verticalAlign=middle;whiteSpace=wrap;rounded=0;" vertex="1" parent="1">
          <mxGeometry x="372" y="231.5" width="60" height="30" as="geometry" />
        </mxCell>
        <mxCell id="OxaJgDEaDInpBFmtAvnn-11" value="" style="endArrow=classic;html=1;rounded=0;entryX=0.75;entryY=1;entryDx=0;entryDy=0;exitX=0.75;exitY=0;exitDx=0;exitDy=0;" edge="1" parent="1" source="OxaJgDEaDInpBFmtAvnn-8" target="OxaJgDEaDInpBFmtAvnn-1">
          <mxGeometry width="50" height="50" relative="1" as="geometry">
            <mxPoint x="473" y="288" as="sourcePoint" />
            <mxPoint x="523" y="238" as="targetPoint" />
          </mxGeometry>
        </mxCell>
        <mxCell id="OxaJgDEaDInpBFmtAvnn-12" value="结果" style="text;html=1;strokeColor=none;fillColor=none;align=center;verticalAlign=middle;whiteSpace=wrap;rounded=0;" vertex="1" parent="1">
          <mxGeometry x="479" y="234" width="60" height="30" as="geometry" />
        </mxCell>
        <mxCell id="OxaJgDEaDInpBFmtAvnn-17" value="" style="edgeStyle=orthogonalEdgeStyle;rounded=0;orthogonalLoop=1;jettySize=auto;html=1;" edge="1" parent="1" source="OxaJgDEaDInpBFmtAvnn-13" target="OxaJgDEaDInpBFmtAvnn-16">
          <mxGeometry relative="1" as="geometry" />
        </mxCell>
        <mxCell id="OxaJgDEaDInpBFmtAvnn-13" value="服务器部署的业务服务" style="rounded=0;whiteSpace=wrap;html=1;" vertex="1" parent="1">
          <mxGeometry x="1030" y="109" width="156" height="44" as="geometry" />
        </mxCell>
        <mxCell id="OxaJgDEaDInpBFmtAvnn-19" value="" style="edgeStyle=orthogonalEdgeStyle;rounded=0;orthogonalLoop=1;jettySize=auto;html=1;" edge="1" parent="1" source="OxaJgDEaDInpBFmtAvnn-16" target="OxaJgDEaDInpBFmtAvnn-18">
          <mxGeometry relative="1" as="geometry" />
        </mxCell>
        <mxCell id="OxaJgDEaDInpBFmtAvnn-16" value="可视化界面配置灰度策略，灰度路由代码，维度值等参数" style="rounded=0;whiteSpace=wrap;html=1;" vertex="1" parent="1">
          <mxGeometry x="1030" y="201" width="156" height="45" as="geometry" />
        </mxCell>
        <mxCell id="OxaJgDEaDInpBFmtAvnn-21" value="" style="edgeStyle=orthogonalEdgeStyle;rounded=0;orthogonalLoop=1;jettySize=auto;html=1;" edge="1" parent="1" source="OxaJgDEaDInpBFmtAvnn-18" target="OxaJgDEaDInpBFmtAvnn-20">
          <mxGeometry relative="1" as="geometry" />
        </mxCell>
        <mxCell id="OxaJgDEaDInpBFmtAvnn-18" value="业务服务接收业务请求，随后根据请求参数组装灰度信息，发送到多维度灰度服务" style="rounded=0;whiteSpace=wrap;html=1;" vertex="1" parent="1">
          <mxGeometry x="1030" y="294.5" width="156" height="53.5" as="geometry" />
        </mxCell>
        <mxCell id="OxaJgDEaDInpBFmtAvnn-20" value="多维度灰度服务接收灰度信息，执行灰度计算，返回灰度结果，业务服务根据结果执行不同功能" style="rounded=0;whiteSpace=wrap;html=1;" vertex="1" parent="1">
          <mxGeometry x="1030" y="395" width="156" height="61" as="geometry" />
        </mxCell>
        <mxCell id="OxaJgDEaDInpBFmtAvnn-26" value="" style="edgeStyle=orthogonalEdgeStyle;rounded=0;orthogonalLoop=1;jettySize=auto;html=1;" edge="1" parent="1" source="OxaJgDEaDInpBFmtAvnn-24" target="OxaJgDEaDInpBFmtAvnn-25">
          <mxGeometry relative="1" as="geometry" />
        </mxCell>
        <mxCell id="OxaJgDEaDInpBFmtAvnn-24" value="配置多种灰度策略" style="rounded=0;whiteSpace=wrap;html=1;" vertex="1" parent="1">
          <mxGeometry x="1452" y="117" width="121" height="43" as="geometry" />
        </mxCell>
        <mxCell id="OxaJgDEaDInpBFmtAvnn-28" value="" style="edgeStyle=orthogonalEdgeStyle;rounded=0;orthogonalLoop=1;jettySize=auto;html=1;" edge="1" parent="1" source="OxaJgDEaDInpBFmtAvnn-25" target="OxaJgDEaDInpBFmtAvnn-27">
          <mxGeometry relative="1" as="geometry" />
        </mxCell>
        <mxCell id="OxaJgDEaDInpBFmtAvnn-25" value="配置路由代码" style="rounded=0;whiteSpace=wrap;html=1;" vertex="1" parent="1">
          <mxGeometry x="1452" y="227.5" width="121" height="43" as="geometry" />
        </mxCell>
        <mxCell id="OxaJgDEaDInpBFmtAvnn-27" value="配置维度值" style="rounded=0;whiteSpace=wrap;html=1;" vertex="1" parent="1">
          <mxGeometry x="1452" y="335" width="121" height="43" as="geometry" />
        </mxCell>
        <mxCell id="OxaJgDEaDInpBFmtAvnn-31" value="" style="endArrow=classic;html=1;rounded=0;edgeStyle=orthogonalEdgeStyle;curved=1;" edge="1" parent="1">
          <mxGeometry width="50" height="50" relative="1" as="geometry">
            <mxPoint x="1160" y="106" as="sourcePoint" />
            <mxPoint x="1179" y="86" as="targetPoint" />
          </mxGeometry>
        </mxCell>
        <mxCell id="OxaJgDEaDInpBFmtAvnn-32" value="S201" style="text;html=1;strokeColor=none;fillColor=none;align=center;verticalAlign=middle;whiteSpace=wrap;rounded=0;" vertex="1" parent="1">
          <mxGeometry x="1158" y="59" width="60" height="30" as="geometry" />
        </mxCell>
        <mxCell id="OxaJgDEaDInpBFmtAvnn-33" value="" style="endArrow=classic;html=1;rounded=0;edgeStyle=orthogonalEdgeStyle;curved=1;" edge="1" parent="1">
          <mxGeometry width="50" height="50" relative="1" as="geometry">
            <mxPoint x="1163" y="198" as="sourcePoint" />
            <mxPoint x="1181" y="179" as="targetPoint" />
          </mxGeometry>
        </mxCell>
        <mxCell id="OxaJgDEaDInpBFmtAvnn-34" value="S202" style="text;html=1;strokeColor=none;fillColor=none;align=center;verticalAlign=middle;whiteSpace=wrap;rounded=0;" vertex="1" parent="1">
          <mxGeometry x="1155" y="157" width="60" height="30" as="geometry" />
        </mxCell>
        <mxCell id="OxaJgDEaDInpBFmtAvnn-35" value="" style="endArrow=classic;html=1;rounded=0;edgeStyle=orthogonalEdgeStyle;curved=1;" edge="1" parent="1">
          <mxGeometry width="50" height="50" relative="1" as="geometry">
            <mxPoint x="1158" y="294.5" as="sourcePoint" />
            <mxPoint x="1178" y="275" as="targetPoint" />
          </mxGeometry>
        </mxCell>
        <mxCell id="OxaJgDEaDInpBFmtAvnn-37" value="S203" style="text;html=1;strokeColor=none;fillColor=none;align=center;verticalAlign=middle;whiteSpace=wrap;rounded=0;" vertex="1" parent="1">
          <mxGeometry x="1151" y="250" width="60" height="30" as="geometry" />
        </mxCell>
        <mxCell id="OxaJgDEaDInpBFmtAvnn-38" value="" style="endArrow=classic;html=1;rounded=0;edgeStyle=orthogonalEdgeStyle;curved=1;" edge="1" parent="1">
          <mxGeometry width="50" height="50" relative="1" as="geometry">
            <mxPoint x="1158" y="395" as="sourcePoint" />
            <mxPoint x="1179" y="375" as="targetPoint" />
          </mxGeometry>
        </mxCell>
        <mxCell id="OxaJgDEaDInpBFmtAvnn-39" value="S204" style="text;html=1;strokeColor=none;fillColor=none;align=center;verticalAlign=middle;whiteSpace=wrap;rounded=0;" vertex="1" parent="1">
          <mxGeometry x="1149" y="352" width="60" height="30" as="geometry" />
        </mxCell>
        <mxCell id="OxaJgDEaDInpBFmtAvnn-40" value="" style="endArrow=classic;html=1;rounded=0;edgeStyle=orthogonalEdgeStyle;curved=1;" edge="1" parent="1">
          <mxGeometry width="50" height="50" relative="1" as="geometry">
            <mxPoint x="1548" y="117" as="sourcePoint" />
            <mxPoint x="1565" y="98" as="targetPoint" />
          </mxGeometry>
        </mxCell>
        <mxCell id="OxaJgDEaDInpBFmtAvnn-42" value="" style="endArrow=classic;html=1;rounded=0;edgeStyle=orthogonalEdgeStyle;curved=1;" edge="1" parent="1">
          <mxGeometry width="50" height="50" relative="1" as="geometry">
            <mxPoint x="1554" y="227.5" as="sourcePoint" />
            <mxPoint x="1571" y="210" as="targetPoint" />
          </mxGeometry>
        </mxCell>
        <mxCell id="OxaJgDEaDInpBFmtAvnn-43" value="" style="endArrow=classic;html=1;rounded=0;edgeStyle=orthogonalEdgeStyle;curved=1;" edge="1" parent="1">
          <mxGeometry width="50" height="50" relative="1" as="geometry">
            <mxPoint x="1552" y="335" as="sourcePoint" />
            <mxPoint x="1570" y="316" as="targetPoint" />
          </mxGeometry>
        </mxCell>
        <mxCell id="OxaJgDEaDInpBFmtAvnn-44" value="S301" style="text;html=1;strokeColor=none;fillColor=none;align=center;verticalAlign=middle;whiteSpace=wrap;rounded=0;" vertex="1" parent="1">
          <mxGeometry x="1534" y="73" width="60" height="30" as="geometry" />
        </mxCell>
        <mxCell id="OxaJgDEaDInpBFmtAvnn-45" value="S302" style="text;html=1;strokeColor=none;fillColor=none;align=center;verticalAlign=middle;whiteSpace=wrap;rounded=0;" vertex="1" parent="1">
          <mxGeometry x="1538" y="181" width="60" height="30" as="geometry" />
        </mxCell>
        <mxCell id="OxaJgDEaDInpBFmtAvnn-48" value="S303" style="text;html=1;strokeColor=none;fillColor=none;align=center;verticalAlign=middle;whiteSpace=wrap;rounded=0;" vertex="1" parent="1">
          <mxGeometry x="1542" y="294.5" width="60" height="30" as="geometry" />
        </mxCell>
        <mxCell id="OxaJgDEaDInpBFmtAvnn-51" value="" style="edgeStyle=orthogonalEdgeStyle;rounded=0;orthogonalLoop=1;jettySize=auto;html=1;" edge="1" parent="1" source="OxaJgDEaDInpBFmtAvnn-49" target="OxaJgDEaDInpBFmtAvnn-50">
          <mxGeometry relative="1" as="geometry" />
        </mxCell>
        <mxCell id="OxaJgDEaDInpBFmtAvnn-49" value="开始" style="strokeWidth=2;html=1;shape=mxgraph.flowchart.terminator;whiteSpace=wrap;" vertex="1" parent="1">
          <mxGeometry x="1972" y="101.5" width="88" height="44" as="geometry" />
        </mxCell>
        <mxCell id="OxaJgDEaDInpBFmtAvnn-53" value="" style="edgeStyle=orthogonalEdgeStyle;rounded=0;orthogonalLoop=1;jettySize=auto;html=1;" edge="1" parent="1" source="OxaJgDEaDInpBFmtAvnn-50" target="OxaJgDEaDInpBFmtAvnn-52">
          <mxGeometry relative="1" as="geometry" />
        </mxCell>
        <mxCell id="OxaJgDEaDInpBFmtAvnn-50" value="根据灰度信息参数查询缓存" style="whiteSpace=wrap;html=1;strokeWidth=2;" vertex="1" parent="1">
          <mxGeometry x="1908.88" y="188.5" width="214.25" height="43" as="geometry" />
        </mxCell>
        <mxCell id="OxaJgDEaDInpBFmtAvnn-55" value="" style="edgeStyle=orthogonalEdgeStyle;rounded=0;orthogonalLoop=1;jettySize=auto;html=1;" edge="1" parent="1" source="OxaJgDEaDInpBFmtAvnn-52" target="OxaJgDEaDInpBFmtAvnn-54">
          <mxGeometry relative="1" as="geometry" />
        </mxCell>
        <mxCell id="OxaJgDEaDInpBFmtAvnn-56" value="否" style="edgeLabel;html=1;align=center;verticalAlign=middle;resizable=0;points=[];" vertex="1" connectable="0" parent="OxaJgDEaDInpBFmtAvnn-55">
          <mxGeometry x="-0.2747" relative="1" as="geometry">
            <mxPoint as="offset" />
          </mxGeometry>
        </mxCell>
        <mxCell id="OxaJgDEaDInpBFmtAvnn-68" style="edgeStyle=orthogonalEdgeStyle;rounded=0;orthogonalLoop=1;jettySize=auto;html=1;exitX=0;exitY=0.5;exitDx=0;exitDy=0;entryX=0;entryY=0.5;entryDx=0;entryDy=0;" edge="1" parent="1" source="OxaJgDEaDInpBFmtAvnn-52" target="OxaJgDEaDInpBFmtAvnn-61">
          <mxGeometry relative="1" as="geometry">
            <Array as="points">
              <mxPoint x="1850" y="306" />
              <mxPoint x="1850" y="679" />
            </Array>
          </mxGeometry>
        </mxCell>
        <mxCell id="OxaJgDEaDInpBFmtAvnn-69" value="是" style="edgeLabel;html=1;align=center;verticalAlign=middle;resizable=0;points=[];" vertex="1" connectable="0" parent="OxaJgDEaDInpBFmtAvnn-68">
          <mxGeometry x="-0.8706" y="1" relative="1" as="geometry">
            <mxPoint as="offset" />
          </mxGeometry>
        </mxCell>
        <mxCell id="OxaJgDEaDInpBFmtAvnn-52" value="缓存中是否存在路由计算结果" style="rhombus;whiteSpace=wrap;html=1;strokeWidth=2;" vertex="1" parent="1">
          <mxGeometry x="1914" y="270.5" width="204" height="71" as="geometry" />
        </mxCell>
        <mxCell id="OxaJgDEaDInpBFmtAvnn-58" value="" style="edgeStyle=orthogonalEdgeStyle;rounded=0;orthogonalLoop=1;jettySize=auto;html=1;" edge="1" parent="1" source="OxaJgDEaDInpBFmtAvnn-54" target="OxaJgDEaDInpBFmtAvnn-57">
          <mxGeometry relative="1" as="geometry" />
        </mxCell>
        <mxCell id="OxaJgDEaDInpBFmtAvnn-54" value="根据灰度信息中的路由代码加载路由配置信息，维度值信息" style="whiteSpace=wrap;html=1;strokeWidth=2;" vertex="1" parent="1">
          <mxGeometry x="1907.51" y="387" width="217" height="43" as="geometry" />
        </mxCell>
        <mxCell id="OxaJgDEaDInpBFmtAvnn-60" value="" style="edgeStyle=orthogonalEdgeStyle;rounded=0;orthogonalLoop=1;jettySize=auto;html=1;" edge="1" parent="1" source="OxaJgDEaDInpBFmtAvnn-57" target="OxaJgDEaDInpBFmtAvnn-59">
          <mxGeometry relative="1" as="geometry" />
        </mxCell>
        <mxCell id="OxaJgDEaDInpBFmtAvnn-57" value="由路由配置信息获取策略代码，使用策略代码在策略工厂中查找对应策略执行器" style="whiteSpace=wrap;html=1;strokeWidth=2;" vertex="1" parent="1">
          <mxGeometry x="1907.51" y="473" width="217.49" height="50" as="geometry" />
        </mxCell>
        <mxCell id="OxaJgDEaDInpBFmtAvnn-62" value="" style="edgeStyle=orthogonalEdgeStyle;rounded=0;orthogonalLoop=1;jettySize=auto;html=1;" edge="1" parent="1" source="OxaJgDEaDInpBFmtAvnn-59" target="OxaJgDEaDInpBFmtAvnn-61">
          <mxGeometry relative="1" as="geometry" />
        </mxCell>
        <mxCell id="OxaJgDEaDInpBFmtAvnn-59" value="策略执行器根据维度值信息，路由配置等信息执行路由计算" style="whiteSpace=wrap;html=1;strokeWidth=2;" vertex="1" parent="1">
          <mxGeometry x="1907.5100000000002" y="566" width="217.49" height="50" as="geometry" />
        </mxCell>
        <mxCell id="OxaJgDEaDInpBFmtAvnn-64" value="" style="edgeStyle=orthogonalEdgeStyle;rounded=0;orthogonalLoop=1;jettySize=auto;html=1;" edge="1" parent="1" source="OxaJgDEaDInpBFmtAvnn-61">
          <mxGeometry relative="1" as="geometry">
            <mxPoint x="2016" y="747" as="targetPoint" />
          </mxGeometry>
        </mxCell>
        <mxCell id="OxaJgDEaDInpBFmtAvnn-61" value="返回路由计算结果" style="whiteSpace=wrap;html=1;strokeWidth=2;" vertex="1" parent="1">
          <mxGeometry x="1907.5100000000002" y="661" width="217.49" height="50" as="geometry" />
        </mxCell>
        <mxCell id="OxaJgDEaDInpBFmtAvnn-65" value="结束" style="strokeWidth=2;html=1;shape=mxgraph.flowchart.terminator;whiteSpace=wrap;" vertex="1" parent="1">
          <mxGeometry x="1972" y="748" width="88" height="44" as="geometry" />
        </mxCell>
        <mxCell id="OxaJgDEaDInpBFmtAvnn-71" value="" style="endArrow=classic;html=1;rounded=0;edgeStyle=orthogonalEdgeStyle;curved=1;" edge="1" parent="1">
          <mxGeometry width="50" height="50" relative="1" as="geometry">
            <mxPoint x="2098" y="187" as="sourcePoint" />
            <mxPoint x="2118" y="168" as="targetPoint" />
          </mxGeometry>
        </mxCell>
        <mxCell id="OxaJgDEaDInpBFmtAvnn-73" value="S401" style="text;html=1;strokeColor=none;fillColor=none;align=center;verticalAlign=middle;whiteSpace=wrap;rounded=0;" vertex="1" parent="1">
          <mxGeometry x="2088" y="146" width="60" height="30" as="geometry" />
        </mxCell>
        <mxCell id="OxaJgDEaDInpBFmtAvnn-74" value="" style="endArrow=classic;html=1;rounded=0;edgeStyle=orthogonalEdgeStyle;curved=1;" edge="1" parent="1">
          <mxGeometry width="50" height="50" relative="1" as="geometry">
            <mxPoint x="2098" y="297" as="sourcePoint" />
            <mxPoint x="2120" y="279" as="targetPoint" />
          </mxGeometry>
        </mxCell>
        <mxCell id="OxaJgDEaDInpBFmtAvnn-75" value="S402" style="text;html=1;strokeColor=none;fillColor=none;align=center;verticalAlign=middle;whiteSpace=wrap;rounded=0;" vertex="1" parent="1">
          <mxGeometry x="2092" y="256" width="60" height="30" as="geometry" />
        </mxCell>
        <mxCell id="OxaJgDEaDInpBFmtAvnn-76" value="" style="endArrow=classic;html=1;rounded=0;curved=1;edgeStyle=orthogonalEdgeStyle;" edge="1" parent="1">
          <mxGeometry width="50" height="50" relative="1" as="geometry">
            <mxPoint x="2095" y="387" as="sourcePoint" />
            <mxPoint x="2116" y="366" as="targetPoint" />
          </mxGeometry>
        </mxCell>
        <mxCell id="OxaJgDEaDInpBFmtAvnn-77" value="S403" style="text;html=1;strokeColor=none;fillColor=none;align=center;verticalAlign=middle;whiteSpace=wrap;rounded=0;" vertex="1" parent="1">
          <mxGeometry x="2088" y="342" width="60" height="30" as="geometry" />
        </mxCell>
        <mxCell id="OxaJgDEaDInpBFmtAvnn-78" value="" style="endArrow=classic;html=1;rounded=0;curved=1;edgeStyle=orthogonalEdgeStyle;" edge="1" parent="1">
          <mxGeometry width="50" height="50" relative="1" as="geometry">
            <mxPoint x="2100" y="471" as="sourcePoint" />
            <mxPoint x="2118" y="455" as="targetPoint" />
          </mxGeometry>
        </mxCell>
        <mxCell id="OxaJgDEaDInpBFmtAvnn-79" value="S404" style="text;html=1;strokeColor=none;fillColor=none;align=center;verticalAlign=middle;whiteSpace=wrap;rounded=0;" vertex="1" parent="1">
          <mxGeometry x="2088" y="434" width="60" height="30" as="geometry" />
        </mxCell>
        <mxCell id="OxaJgDEaDInpBFmtAvnn-80" value="" style="endArrow=classic;html=1;rounded=0;curved=1;edgeStyle=orthogonalEdgeStyle;" edge="1" parent="1">
          <mxGeometry width="50" height="50" relative="1" as="geometry">
            <mxPoint x="2097" y="566" as="sourcePoint" />
            <mxPoint x="2116" y="548" as="targetPoint" />
          </mxGeometry>
        </mxCell>
        <mxCell id="OxaJgDEaDInpBFmtAvnn-81" value="S405" style="text;html=1;strokeColor=none;fillColor=none;align=center;verticalAlign=middle;whiteSpace=wrap;rounded=0;" vertex="1" parent="1">
          <mxGeometry x="2088" y="526" width="60" height="30" as="geometry" />
        </mxCell>
        <mxCell id="OxaJgDEaDInpBFmtAvnn-84" value="" style="endArrow=classic;html=1;rounded=0;curved=1;edgeStyle=orthogonalEdgeStyle;" edge="1" parent="1">
          <mxGeometry width="50" height="50" relative="1" as="geometry">
            <mxPoint x="2098" y="661" as="sourcePoint" />
            <mxPoint x="2116" y="642" as="targetPoint" />
          </mxGeometry>
        </mxCell>
        <mxCell id="OxaJgDEaDInpBFmtAvnn-85" value="S406" style="text;html=1;strokeColor=none;fillColor=none;align=center;verticalAlign=middle;whiteSpace=wrap;rounded=0;" vertex="1" parent="1">
          <mxGeometry x="2088" y="619" width="60" height="30" as="geometry" />
        </mxCell>
      </root>
    </mxGraphModel>
  </diagram>
</mxfile>
